<?xml version="1.0" encoding="UTF-8" standalone="no"?> <!-- Created with Vectornator for iOS (http://vectornator.io/) --><!DOCTYPE svg PUBLIC "-//W3C//DTD SVG 1.1//EN" "http://www.w3.org/Graphics/SVG/1.1/DTD/svg11.dtd">
<svg height="100%" style="fill-rule:evenodd;clip-rule:evenodd;stroke-linecap:round;stroke-linejoin:round;" xmlns:xlink="http://www.w3.org/1999/xlink" xmlns="http://www.w3.org/2000/svg" xml:space="preserve" width="100%" xmlns:vectornator="http://vectornator.io" version="1.1" viewBox="0 0 1024 400.262">
<metadata>
<vectornator:setting key="DimensionsVisible" value="1"/>
<vectornator:setting key="PencilOnly" value="0"/>
<vectornator:setting key="SnapToPoints" value="0"/>
<vectornator:setting key="OutlineMode" value="0"/>
<vectornator:setting key="CMYKEnabledKey" value="0"/>
<vectornator:setting key="RulersVisible" value="1"/>
<vectornator:setting key="SnapToEdges" value="0"/>
<vectornator:setting key="GuidesVisible" value="1"/>
<vectornator:setting key="DisplayWhiteBackground" value="0"/>
<vectornator:setting key="doHistoryDisabled" value="0"/>
<vectornator:setting key="SnapToGuides" value="1"/>
<vectornator:setting key="TimeLapseWatermarkDisabled" value="0"/>
<vectornator:setting key="Units" value="Pixels"/>
<vectornator:setting key="DynamicGuides" value="0"/>
<vectornator:setting key="IsolateActiveLayer" value="0"/>
<vectornator:setting key="SnapToGrid" value="0"/>
</metadata>
<defs/>
<g id="Ebene 1" vectornator:layerName="Ebene 1">
<path stroke="#020066" stroke-width="0.747993" d="M0.712548+1.95706L1034.31+1.95706C1034.7+1.95706+1035.02+2.32347+1035.02+2.77547L1035.02+401.959C1035.02+402.411+1034.7+402.777+1034.31+402.777L0.712548+402.777C0.319019+402.777+0+402.411+0+401.959L0+2.77547C0+2.32347+0.319019+1.95706+0.712548+1.95706Z" fill="#020066" stroke-linecap="butt" opacity="1" stroke-linejoin="miter"/>
<path stroke="#ffffff" stroke-width="0.747993" d="M786.366+230.656C790.551+245.381+778.413+255.625+779.117+265.084C779.486+270.03+785.14+274.259+789.182+268.491C797.655+256.401+804.726+239.948+804.523+223.539C804.32+207.129+786.762+211.749+788.37+202.852C789.191+198.31+793.645+196.974+799.295+193.273C804.712+189.726+811.272+183.728+814.741+183.24C818.095+182.769+818.715+187.684+821.21+191.62C823.987+196+841.06+200.818+846.347+199.29C855.244+196.718+856.467+192.583+851.806+189.811C847.145+187.04+840.992+191.977+832.37+184.363C823.748+176.75+833.346+157.544+817.819+158.127C802.292+158.709+772.635+187.391+767.417+191.021C764.223+193.243+755.839+204.445+757.676+208.288C762.414+218.197+782.18+215.932+786.366+230.656Z" fill="#ffffff" stroke-linecap="butt" opacity="1" stroke-linejoin="miter"/>
<path stroke="#ffffff" stroke-width="0.747993" d="M827.257+224.623C842.951+208.825+867.707+207.734+882.551+222.185C897.395+236.637+896.706+261.159+881.012+276.957C865.318+292.755+840.562+293.846+825.718+279.394C810.874+264.942+811.563+240.42+827.257+224.623Z" fill="#ffffff" stroke-linecap="butt" opacity="1" stroke-linejoin="miter"/>
<path stroke="#ffffff" stroke-width="0.747993" d="M703.266+238.03C718.96+222.233+743.716+221.141+758.56+235.593C773.404+250.045+772.715+274.567+757.021+290.365C741.327+306.162+716.571+307.254+701.727+292.802C686.883+278.35+687.572+253.828+703.266+238.03Z" fill="#ffffff" stroke-linecap="butt" opacity="1" stroke-linejoin="miter"/>
<path stroke="#ffffff" stroke-width="0.747993" d="M833.435+130.242C841.366+122.163+853.913+121.642+861.46+129.078C869.007+136.515+868.696+149.093+860.766+157.172C852.835+165.252+840.288+165.773+832.741+158.337C825.193+150.9+825.504+138.322+833.435+130.242Z" fill="#ffffff" stroke-linecap="butt" opacity="1" stroke-linejoin="miter"/>
<path stroke="#ffffff" stroke-width="2.44006" d="M1.06749+262.336C10.3043+251.34+33.6207+270.573+54.3165+282.793C81.0075+298.554+106.179+253.667+106.179+253.667C106.179+253.667+87.6461+221.701+90.1266+204.979C91.643+194.757+123.189+186.509+131.697+183.262C140.237+180.003+145.618+185.08+139.143+194.289C132.668+203.499+109.368+198.14+106.722+213.613C104.076+229.087+158.987+287.211+158.987+287.211C158.987+287.211+104.604+304.144+73.0986+302.9C60.6481+302.409+49.3505+303.505+31.9612+291.479C12.7144+278.168-4.51905+268.987+1.06749+262.336Z" fill="#ffffff" stroke-linecap="butt" opacity="1" stroke-linejoin="round"/>
<path stroke="#ffffff" stroke-width="0.747993" d="M488.827+167.558C483.724+169.818+459.503+175.484+449.25+186.645C440.955+195.674+434.138+202.258+430.169+211.637C428.087+216.557+437.502+221.885+443.957+210.368C450.791+198.178+470.801+189.868+471.513+190.467C473.876+192.454+458.572+203.109+456.507+224.553C455.641+233.546+451.93+244.055+444.539+250.52C434.306+259.471+425.645+272.228+420.742+279.173C416.67+284.94+414.745+306.224+421.681+302.54C426.784+299.829+436.708+276.485+447.528+265.617C455.688+257.42+461.391+243.609+463.164+243.692C472.253+244.113+478.779+259.081+480.648+270.953C482.047+279.841+480.525+283.713+482.159+286.141C485.869+291.654+492.719+291.247+494.549+280.857C496.046+272.36+494.43+263.887+490.042+252.836C485.653+241.786+477.86+239.201+476.356+229.577C475.802+226.038+487.057+211.803+491.882+204.097C496.782+196.27+495.276+195.003+497.678+195.563C504.946+197.255+526.047+199.02+530.116+194.079C532.185+191.565+527.791+188.008+521.433+185.468C515.29+183.013+503.552+182.026+499.785+180.909C492.015+178.605+492.366+165.991+488.827+167.558Z" fill="#ffffff" stroke-linecap="butt" opacity="1" stroke-linejoin="miter"/>
<path stroke="#ffffff" stroke-width="0.747993" d="M491.078+135.244C497.478+125.704+510.403+123.282+519.948+129.833C529.492+136.385+532.041+149.429+525.641+158.969C519.241+168.509+506.316+170.931+496.771+164.38C487.227+157.828+484.678+144.784+491.078+135.244Z" fill="#ffffff" stroke-linecap="butt" opacity="1" stroke-linejoin="miter"/>
<path stroke="#ffffff" stroke-width="2.44006" d="M980.477+149.092C981.079+147.39+970.855+142.372+963.222+143.958C958.537+144.932+954.946+152.658+950.481+152.863C938.743+153.4+932.772+143.9+936.658+151.27C937.943+153.328+949.246+162.739+955.622+161.096C958.621+160.323+962.012+153.314+967.058+151.027C972.738+148.452+979.963+150.546+980.477+149.092Z" fill="#ffffff" stroke-linecap="butt" opacity="1" stroke-linejoin="miter"/>
<path stroke="#ffffff" stroke-width="0.747993" d="M979.909+168.914C974.527+171.151+948.982+176.761+938.168+187.81C929.42+196.748+922.231+203.267+918.045+212.552C915.849+217.422+925.778+222.697+932.587+211.295C939.794+199.227+960.897+191.001+961.649+191.594C964.141+193.561+948+204.109+945.822+225.338C944.909+234.241+940.995+244.645+933.201+251.045C922.408+259.906+913.273+272.536+908.103+279.411C903.809+285.121+901.778+306.191+909.093+302.544C914.475+299.861+924.942+276.75+936.352+265.991C944.959+257.876+950.973+244.204+952.844+244.285C962.429+244.703+969.312+259.52+971.283+271.274C972.759+280.073+971.153+283.906+972.876+286.309C976.789+291.768+984.014+291.365+985.944+281.079C987.523+272.666+985.819+264.278+981.19+253.338C976.562+242.398+968.342+239.84+966.756+230.312C966.173+226.809+978.043+212.716+983.13+205.088C988.299+197.338+986.711+196.085+989.244+196.638C996.909+198.314+1019.16+200.061+1023.45+195.169C1025.64+192.681+1021+189.16+1014.3+186.645C1007.82+184.215+995.438+183.238+991.466+182.132C983.271+179.85+983.642+167.363+979.909+168.914Z" fill="#ffffff" stroke-linecap="butt" opacity="1" stroke-linejoin="miter"/>
<path stroke="#ffffff" stroke-width="0.747993" d="M982.283+137.544C989.032+127.449+1002.66+124.886+1012.73+131.818C1022.8+138.751+1025.48+152.555+1018.74+162.65C1011.99+172.745+998.353+175.309+988.287+168.376C978.221+161.443+975.533+147.639+982.283+137.544Z" fill="#ffffff" stroke-linecap="butt" opacity="1" stroke-linejoin="miter"/>
<path stroke="#ffffff" stroke-width="2.44006" d="M528.972+275.123C535.406+267.588+551.646+280.767+566.061+289.142C584.651+299.942+602.183+269.182+602.183+269.182C602.183+269.182+589.275+247.277+591.003+235.818C592.059+228.813+614.031+223.161+619.957+220.936C625.905+218.702+629.653+222.182+625.143+228.493C620.633+234.803+604.404+231.131+602.562+241.735C600.719+252.338+638.965+292.17+638.965+292.17C638.965+292.17+601.087+303.773+579.143+302.921C570.471+302.584+562.602+303.335+550.49+295.094C537.085+285.973+525.081+279.681+528.972+275.123Z" fill="#ffffff" stroke-linecap="butt" opacity="1" stroke-linejoin="round"/>
<path stroke="#ffffff" stroke-width="2.44006" d="M635.806+271.324C635.806+262.618+643.041+255.561+651.965+255.561C660.889+255.561+668.123+262.618+668.123+271.324C668.123+280.029+660.889+287.087+651.965+287.087C643.041+287.087+635.806+280.029+635.806+271.324Z" fill="#ffffff" stroke-linecap="butt" opacity="1" stroke-linejoin="miter"/>
<path stroke="#ffffff" stroke-width="0.747993" d="M302.17+244.686C305.51+256.554+295.822+264.811+296.384+272.434C296.678+276.421+301.191+279.829+304.418+275.18C311.181+265.436+316.825+252.176+316.663+238.95C316.501+225.724+302.487+229.448+303.77+222.278C304.425+218.617+307.98+217.54+312.49+214.557C316.814+211.698+322.05+206.864+324.819+206.471C327.497+206.091+327.991+210.052+329.983+213.225C332.199+216.755+345.827+220.638+350.047+219.406C357.148+217.333+358.125+214.001+354.404+211.767C350.684+209.533+345.772+213.512+338.89+207.376C332.008+201.24+339.669+185.761+327.276+186.23C314.883+186.699+291.21+209.816+287.045+212.742C284.496+214.532+277.804+223.561+279.27+226.659C283.052+234.645+298.829+232.819+302.17+244.686Z" fill="#ffffff" stroke-linecap="butt" opacity="1" stroke-linejoin="miter"/>
<path stroke="#ffffff" stroke-width="0.747993" d="M334.809+239.824C347.336+227.091+367.097+226.212+378.945+237.859C390.794+249.507+390.243+269.271+377.716+282.003C365.189+294.736+345.429+295.615+333.581+283.968C321.732+272.32+322.282+252.556+334.809+239.824Z" fill="#ffffff" stroke-linecap="butt" opacity="1" stroke-linejoin="miter"/>
<path stroke="#ffffff" stroke-width="0.747993" d="M235.84+250.63C248.367+237.897+268.127+237.018+279.976+248.665C291.824+260.313+291.274+280.077+278.747+292.81C266.22+305.542+246.46+306.422+234.611+294.774C222.763+283.126+223.313+263.362+235.84+250.63Z" fill="#ffffff" stroke-linecap="butt" opacity="1" stroke-linejoin="miter"/>
<path stroke="#ffffff" stroke-width="0.747993" d="M339.741+163.694C346.071+157.26+356.086+156.845+362.11+162.767C368.134+168.689+367.886+178.706+361.556+185.14C355.226+191.574+345.21+191.989+339.186+186.067C333.162+180.145+333.41+170.128+339.741+163.694Z" fill="#ffffff" stroke-linecap="butt" opacity="1" stroke-linejoin="miter"/>
<path stroke="#ffffff" stroke-width="2.44006" d="M338.109+173.147C338.618+171.726+329.977+167.537+323.526+168.861C319.567+169.674+316.532+176.123+312.759+176.294C302.839+176.743+297.793+168.812+301.077+174.965C302.163+176.683+311.715+184.538+317.103+183.167C319.638+182.522+322.504+176.671+326.769+174.762C331.569+172.612+337.674+174.361+338.109+173.147Z" fill="#ffffff" stroke-linecap="butt" opacity="1" stroke-linejoin="miter"/>
<path stroke="#ffffff" stroke-width="0.747993" d="M159.118+249.679C165.518+240.139+178.444+237.716+187.988+244.268C197.533+250.819+200.082+263.864+193.682+273.404C187.282+282.943+174.356+285.366+164.812+278.814C155.268+272.263+152.718+259.218+159.118+249.679Z" fill="#ffffff" stroke-linecap="butt" opacity="1" stroke-linejoin="miter"/>
</g>
</svg>
