<?xml version="1.0" encoding="UTF-8" standalone="no"?> <!-- Created with Vectornator for iOS (http://vectornator.io/) --><!DOCTYPE svg PUBLIC "-//W3C//DTD SVG 1.1//EN" "http://www.w3.org/Graphics/SVG/1.1/DTD/svg11.dtd">
<svg height="100%" style="fill-rule:evenodd;clip-rule:evenodd;stroke-linecap:round;stroke-linejoin:round;" xmlns:xlink="http://www.w3.org/1999/xlink" xmlns="http://www.w3.org/2000/svg" xml:space="preserve" width="100%" xmlns:vectornator="http://vectornator.io" version="1.1" viewBox="0 0 1024 400.262">
<metadata>
<vectornator:setting key="DimensionsVisible" value="1"/>
<vectornator:setting key="PencilOnly" value="0"/>
<vectornator:setting key="SnapToPoints" value="0"/>
<vectornator:setting key="OutlineMode" value="0"/>
<vectornator:setting key="CMYKEnabledKey" value="0"/>
<vectornator:setting key="RulersVisible" value="1"/>
<vectornator:setting key="SnapToEdges" value="0"/>
<vectornator:setting key="GuidesVisible" value="1"/>
<vectornator:setting key="DisplayWhiteBackground" value="0"/>
<vectornator:setting key="doHistoryDisabled" value="0"/>
<vectornator:setting key="SnapToGuides" value="1"/>
<vectornator:setting key="TimeLapseWatermarkDisabled" value="0"/>
<vectornator:setting key="Units" value="Pixels"/>
<vectornator:setting key="DynamicGuides" value="0"/>
<vectornator:setting key="IsolateActiveLayer" value="0"/>
<vectornator:setting key="SnapToGrid" value="0"/>
</metadata>
<defs/>
<g id="Ebene 1" vectornator:layerName="Ebene 1">
<path stroke="#020066" stroke-width="0.747993" d="M0.712548+0.153855L1034.31+0.153855C1034.7+0.153855+1035.02+0.52027+1035.02+0.972266L1035.02+400.155C1035.02+400.607+1034.7+400.974+1034.31+400.974L0.712548+400.974C0.319019+400.974+0+400.607+0+400.155L0+0.972266C0+0.52027+0.319019+0.153855+0.712548+0.153855Z" fill="#020066" stroke-linecap="butt" opacity="1" stroke-linejoin="miter"/>
<g opacity="1">
<path stroke="#ffffff" stroke-width="0.747993" d="M95.3363+228.174C99.5215+242.899+87.3842+253.143+88.0883+262.602C88.4564+267.548+94.1104+271.777+98.1527+266.009C106.626+253.919+113.697+237.466+113.494+221.057C113.291+204.647+95.7333+209.267+97.3411+200.37C98.1619+195.828+102.616+194.492+108.266+190.791C113.682+187.244+120.243+181.246+123.712+180.758C127.066+180.287+127.686+185.202+130.181+189.138C132.957+193.518+150.031+198.336+155.317+196.808C164.214+194.236+165.438+190.101+160.777+187.329C156.115+184.558+149.963+189.495+141.341+181.881C132.719+174.268+142.317+155.062+126.79+155.644C111.263+156.227+81.6054+184.909+76.3877+188.539C73.194+190.761+64.8096+201.963+66.6472+205.806C71.3844+215.715+91.1512+213.45+95.3363+228.174Z" fill="#ffffff" stroke-linecap="butt" opacity="1" stroke-linejoin="miter"/>
<g opacity="1">
<path stroke="#ffffff" stroke-width="0.747993" d="M136.228+222.141C151.922+206.343+176.678+205.252+191.522+219.703C206.366+234.155+205.677+258.677+189.983+274.475C174.289+290.272+149.532+291.364+134.688+276.912C119.844+262.46+120.534+237.938+136.228+222.141Z" fill="#ffffff" stroke-linecap="butt" opacity="1" stroke-linejoin="miter"/>
<path stroke="#ffffff" stroke-width="0.747993" d="M12.2367+235.548C27.9309+219.751+52.687+218.659+67.5311+233.111C82.3751+247.563+81.686+272.085+65.9918+287.883C50.2976+303.68+25.5415+304.772+10.6974+290.32C-4.14661+275.868-3.45746+251.346+12.2367+235.548Z" fill="#ffffff" stroke-linecap="butt" opacity="1" stroke-linejoin="miter"/>
<path stroke="#ffffff" stroke-width="0.747993" d="M142.406+127.684C150.336+119.701+162.884+119.186+170.431+126.533C177.978+133.881+177.667+146.309+169.737+154.292C161.806+162.275+149.259+162.79+141.711+155.442C134.164+148.095+134.475+135.667+142.406+127.684Z" fill="#ffffff" stroke-linecap="butt" opacity="1" stroke-linejoin="miter"/>
</g>
</g>
<g opacity="1">
<path stroke="#ffffff" stroke-width="2.44006" d="M656.896+259.854C666.133+248.858+689.449+268.091+710.145+280.311C736.836+296.072+762.007+251.185+762.007+251.185C762.007+251.185+743.475+219.219+745.955+202.497C747.472+192.275+779.018+184.027+787.526+180.78C796.066+177.521+801.447+182.598+794.972+191.807C788.496+201.017+765.197+195.658+762.551+211.131C759.905+226.605+814.816+284.729+814.816+284.729C814.816+284.729+760.433+301.662+728.927+300.418C716.477+299.927+705.179+301.023+687.79+288.997C668.543+275.686+651.31+266.505+656.896+259.854Z" fill="#ffffff" stroke-linecap="butt" opacity="1" stroke-linejoin="round"/>
<path stroke="#ffffff" stroke-width="2.44006" d="M818.074+254.31C818.074+241.606+826.716+231.308+837.377+231.308C848.038+231.308+856.68+241.606+856.68+254.31C856.68+267.014+848.038+277.312+837.377+277.312C826.716+277.312+818.074+267.014+818.074+254.31Z" fill="#ffffff" stroke-linecap="butt" opacity="1" stroke-linejoin="miter"/>
</g>
<g opacity="1">
<path stroke="#ffffff" stroke-width="0.747993" d="M278.255+165.076C273.151+167.336+248.93+173.002+238.677+184.163C230.382+193.192+223.566+199.776+219.597+209.155C217.514+214.075+226.929+219.403+233.385+207.886C240.218+195.696+260.228+187.386+260.941+187.985C263.304+189.972+248+200.627+245.935+222.071C245.069+231.064+241.358+241.573+233.967+248.038C223.734+256.989+215.072+269.746+210.17+276.691C206.098+282.458+204.173+303.742+211.109+300.058C216.212+297.347+226.136+274.003+236.955+263.135C245.116+254.938+250.819+241.127+252.592+241.21C261.681+241.631+268.207+256.599+270.076+268.471C271.475+277.359+269.953+281.231+271.586+283.659C275.296+289.172+282.147+288.765+283.977+278.375C285.474+269.878+283.858+261.405+279.47+250.354C275.081+239.304+267.288+236.719+265.783+227.095C265.23+223.556+276.485+209.321+281.309+201.615C286.21+193.788+284.704+192.521+287.106+193.081C294.374+194.773+315.475+196.538+319.544+191.597C321.613+189.083+317.219+185.526+310.861+182.986C304.718+180.531+292.979+179.544+289.213+178.427C281.442+176.123+281.794+163.509+278.255+165.076Z" fill="#ffffff" stroke-linecap="butt" opacity="1" stroke-linejoin="miter"/>
<path stroke="#ffffff" stroke-width="0.747993" d="M280.505+132.762C286.905+123.222+299.831+120.8+309.375+127.351C318.92+133.903+321.469+146.947+315.069+156.487C308.669+166.027+295.743+168.449+286.199+161.898C276.654+155.346+274.105+142.302+280.505+132.762Z" fill="#ffffff" stroke-linecap="butt" opacity="1" stroke-linejoin="miter"/>
<path stroke="#ffffff" stroke-width="2.44006" d="M280.619+141.305C281.221+139.604+270.997+134.585+263.364+136.171C258.679+137.145+255.088+144.871+250.623+145.076C238.885+145.613+232.914+136.113+236.8+143.483C238.085+145.541+249.387+154.952+255.764+153.309C258.763+152.536+262.154+145.528+267.2+143.24C272.88+140.665+280.105+142.76+280.619+141.305Z" fill="#ffffff" stroke-linecap="butt" opacity="1" stroke-linejoin="miter"/>
</g>
<g opacity="1">
<path stroke="#ffffff" stroke-width="0.747993" d="M957.052+166.432C951.67+168.669+926.125+174.279+915.311+185.328C906.563+194.266+899.374+200.785+895.188+210.07C892.992+214.94+902.921+220.215+909.73+208.813C916.937+196.745+938.04+188.519+938.792+189.112C941.284+191.079+925.143+201.627+922.965+222.856C922.052+231.759+918.138+242.163+910.344+248.563C899.551+257.424+890.416+270.054+885.246+276.929C880.951+282.639+878.921+303.709+886.236+300.062C891.618+297.379+902.084+274.268+913.495+263.509C922.102+255.394+928.116+241.722+929.987+241.803C939.572+242.221+946.455+257.038+948.426+268.792C949.901+277.591+948.296+281.424+950.019+283.827C953.932+289.286+961.157+288.883+963.087+278.597C964.666+270.184+962.961+261.796+958.333+250.856C953.705+239.916+945.485+237.358+943.899+227.83C943.315+224.327+955.185+210.234+960.273+202.606C965.442+194.856+963.854+193.603+966.387+194.156C974.052+195.832+996.306+197.579+1000.6+192.687C1002.78+190.199+998.146+186.678+991.44+184.163C984.961+181.733+972.581+180.756+968.609+179.65C960.414+177.368+960.785+164.881+957.052+166.432Z" fill="#ffffff" stroke-linecap="butt" opacity="1" stroke-linejoin="miter"/>
<path stroke="#ffffff" stroke-width="0.747993" d="M959.425+134.442C966.175+124.998+979.807+122.599+989.873+129.085C999.939+135.571+1002.63+148.485+995.878+157.929C989.128+167.373+975.496+169.772+965.43+163.286C955.364+156.8+952.676+143.886+959.425+134.442Z" fill="#ffffff" stroke-linecap="butt" opacity="1" stroke-linejoin="miter"/>
</g>
<g opacity="1">
<path stroke="#ffffff" stroke-width="2.44006" d="M322.22+272.641C328.654+265.106+344.894+278.285+359.309+286.66C377.899+297.46+395.431+266.7+395.431+266.7C395.431+266.7+382.523+244.795+384.251+233.336C385.307+226.331+407.279+220.679+413.205+218.454C419.153+216.22+422.901+219.7+418.391+226.011C413.881+232.321+397.652+228.649+395.809+239.253C393.967+249.856+432.213+289.688+432.213+289.688C432.213+289.688+394.334+301.291+372.391+300.439C363.719+300.102+355.85+300.853+343.738+292.612C330.332+283.491+318.329+277.199+322.22+272.641Z" fill="#ffffff" stroke-linecap="butt" opacity="1" stroke-linejoin="round"/>
<path stroke="#ffffff" stroke-width="2.44006" d="M434.482+268.842C434.482+260.136+440.501+253.079+447.927+253.079C455.352+253.079+461.371+260.136+461.371+268.842C461.371+277.547+455.352+284.605+447.927+284.605C440.501+284.605+434.482+277.547+434.482+268.842Z" fill="#ffffff" stroke-linecap="butt" opacity="1" stroke-linejoin="miter"/>
</g>
<g opacity="1">
<g opacity="1">
<path stroke="#ffffff" stroke-width="0.747993" d="M554.017+242.204C557.358+254.072+547.67+262.329+548.232+269.952C548.526+273.939+553.039+277.347+556.265+272.698C563.029+262.954+568.673+249.694+568.511+236.468C568.349+223.242+554.334+226.966+555.618+219.796C556.273+216.135+559.828+215.058+564.338+212.075C568.661+209.216+573.898+204.382+576.667+203.989C579.344+203.609+579.839+207.57+581.83+210.743C584.047+214.273+597.674+218.156+601.894+216.924C608.996+214.851+609.972+211.518+606.252+209.285C602.531+207.051+597.62+211.03+590.738+204.894C583.856+198.758+591.517+183.279+579.124+183.748C566.73+184.217+543.057+207.334+538.893+210.26C536.343+212.05+529.651+221.079+531.118+224.177C534.899+232.163+550.677+230.337+554.017+242.204Z" fill="#ffffff" stroke-linecap="butt" opacity="1" stroke-linejoin="miter"/>
<g opacity="1">
<path stroke="#ffffff" stroke-width="0.747993" d="M586.657+237.342C599.184+224.609+618.944+223.73+630.793+235.377C642.641+247.025+642.091+266.789+629.564+279.521C617.037+292.254+597.277+293.133+585.428+281.486C573.58+269.838+574.13+250.074+586.657+237.342Z" fill="#ffffff" stroke-linecap="butt" opacity="1" stroke-linejoin="miter"/>
<path stroke="#ffffff" stroke-width="0.747993" d="M487.688+248.148C500.215+235.415+519.975+234.536+531.823+246.183C543.672+257.831+543.122+277.595+530.595+290.328C518.068+303.06+498.307+303.94+486.459+292.292C474.61+280.644+475.16+260.88+487.688+248.148Z" fill="#ffffff" stroke-linecap="butt" opacity="1" stroke-linejoin="miter"/>
<path stroke="#ffffff" stroke-width="0.747993" d="M591.588+161.212C597.918+154.778+607.934+154.363+613.958+160.285C619.982+166.207+619.734+176.224+613.403+182.658C607.073+189.092+597.058+189.507+591.034+183.585C585.01+177.663+585.258+167.646+591.588+161.212Z" fill="#ffffff" stroke-linecap="butt" opacity="1" stroke-linejoin="miter"/>
</g>
</g>
<path stroke="#ffffff" stroke-width="2.44006" d="M589.957+170.665C590.466+169.244+581.824+165.055+575.374+166.379C571.415+167.192+568.38+173.641+564.607+173.812C554.687+174.261+549.641+166.33+552.925+172.482C554.011+174.201+563.563+182.056+568.951+180.685C571.486+180.04+574.351+174.189+578.616+172.28C583.417+170.13+589.522+171.879+589.957+170.665Z" fill="#ffffff" stroke-linecap="butt" opacity="1" stroke-linejoin="miter"/>
</g>
</g>
</svg>
