<svg version="1.1" viewBox="0.0 0.0 732.1837270341207 724.3228346456693" fill="none" stroke="none" stroke-linecap="square" stroke-miterlimit="10" xmlns:xlink="http://www.w3.org/1999/xlink" xmlns="http://www.w3.org/2000/svg"><clipPath id="p.0"><path d="m0 0l732.1837 0l0 724.3228l-732.1837 0l0 -724.3228z" clip-rule="nonzero"/></clipPath><g clip-path="url(#p.0)"><path fill="#000000" fill-opacity="0.0" d="m0 0l732.1837 0l0 724.3228l-732.1837 0z" fill-rule="evenodd"/><path fill="#000000" d="m7.774278 363.82416l0 0c0 -196.71774 159.47124 -356.189 356.18896 -356.189l0 0c94.46719 0 185.06525 37.526947 251.86365 104.32533c66.7984 66.79839 104.32532 157.39645 104.32532 251.86365l0 0c0 196.71771 -159.47125 356.18896 -356.18896 356.18896l0 0c-196.71774 0 -356.18896 -159.47125 -356.18896 -356.18896z" fill-rule="evenodd"/><path stroke="#000000" stroke-width="1.0" stroke-linejoin="round" stroke-linecap="butt" d="m7.774278 363.82416l0 0c0 -196.71774 159.47124 -356.189 356.18896 -356.189l0 0c94.46719 0 185.06525 37.526947 251.86365 104.32533c66.7984 66.79839 104.32532 157.39645 104.32532 251.86365l0 0c0 196.71771 -159.47125 356.18896 -356.18896 356.18896l0 0c-196.71774 0 -356.18896 -159.47125 -356.18896 -356.18896z" fill-rule="evenodd"/><path fill="#ffffff" d="m45.267162 382.56113l0 0c0 -186.35915 151.07393 -337.43307 337.43307 -337.43307l0 0c89.49283 0 175.32022 35.550884 238.60123 98.83186c63.280945 63.280975 98.83185 149.10838 98.83185 238.60121l0 0c0 186.35916 -151.07391 337.43307 -337.43307 337.43307l0 0c-186.35913 0 -337.43307 -151.07391 -337.43307 -337.43307z" fill-rule="evenodd"/><path stroke="#ffffff" stroke-width="2.0" stroke-linejoin="round" stroke-linecap="butt" d="m45.267162 382.56113l0 0c0 -186.35915 151.07393 -337.43307 337.43307 -337.43307l0 0c89.49283 0 175.32022 35.550884 238.60123 98.83186c63.280945 63.280975 98.83185 149.10838 98.83185 238.60121l0 0c0 186.35916 -151.07391 337.43307 -337.43307 337.43307l0 0c-186.35913 0 -337.43307 -151.07391 -337.43307 -337.43307z" fill-rule="evenodd"/><path fill="#000000" d="m600.67975 328.30707l0 0c0.8099365 77.05859 -42.30481 148.63095 -113.00961 187.60095c-70.7048 38.97003 -158.18393 39.376465 -229.29483 1.0653076c-71.1109 -38.311096 -114.97572 -109.47934 -114.97572 -186.54172l228.64568 0z" fill-rule="evenodd"/><path stroke="#000000" stroke-width="1.0" stroke-linejoin="round" stroke-linecap="butt" d="m600.67975 328.30707l0 0c0.8099365 77.05859 -42.30481 148.63095 -113.00961 187.60095c-70.7048 38.97003 -158.18393 39.376465 -229.29483 1.0653076c-71.1109 -38.311096 -114.97572 -109.47934 -114.97572 -186.54172l228.64568 0z" fill-rule="evenodd"/><path fill="#000000" d="m143.40895 331.47034l0 0c-0.32588196 -45.041077 20.633179 -86.83879 54.944336 -109.57298c34.311157 -22.734207 76.73195 -22.93129 111.206436 -0.51667786c34.474487 22.414597 55.73526 64.01614 55.73526 109.05875l-110.944885 0z" fill-rule="evenodd"/><path stroke="#000000" stroke-width="1.0" stroke-linejoin="round" stroke-linecap="butt" d="m143.40895 331.47034l0 0c-0.32588196 -45.041077 20.633179 -86.83879 54.944336 -109.57298c34.311157 -22.734207 76.73195 -22.93129 111.206436 -0.51667786c34.474487 22.414597 55.73526 64.01614 55.73526 109.05875l-110.944885 0z" fill-rule="evenodd"/><path fill="#000000" d="m554.8791 167.41081l0 0c36.660583 40.602707 42.667908 102.93672 15.743469 163.3592c-26.924438 60.422485 -82.65646 109.67807 -146.05728 129.08447c-63.40085 19.406403 -124.75891 5.991028 -160.80157 -35.157806l146.1575 -127.968506z" fill-rule="evenodd"/><path stroke="#000000" stroke-width="1.0" stroke-linejoin="round" stroke-linecap="butt" d="m554.8791 167.41081l0 0c36.660583 40.602707 42.667908 102.93672 15.743469 163.3592c-26.924438 60.422485 -82.65646 109.67807 -146.05728 129.08447c-63.40085 19.406403 -124.75891 5.991028 -160.80157 -35.157806l146.1575 -127.968506z" fill-rule="evenodd"/><path fill="#000000" d="m188.72522 312.95554l0 0c0.13536072 14.475494 -7.5099792 27.916473 -20.04042 35.2323c-12.530426 7.3158264 -28.029922 7.387848 -40.62822 0.18878174c-12.5982895 -7.1990967 -20.368965 -20.56845 -20.368965 -35.044556l40.519676 0z" fill-rule="evenodd"/><path stroke="#000000" stroke-width="1.0" stroke-linejoin="round" stroke-linecap="butt" d="m188.72522 312.95554l0 0c0.13536072 14.475494 -7.5099792 27.916473 -20.04042 35.2323c-12.530426 7.3158264 -28.029922 7.387848 -40.62822 0.18878174c-12.5982895 -7.1990967 -20.368965 -20.56845 -20.368965 -35.044556l40.519676 0z" fill-rule="evenodd"/><path fill="#000000" d="m635.127 324.4841l0 0c0.19024658 17.24527 -9.692688 33.26477 -25.904053 41.988464c-16.211365 8.723724 -36.270874 8.816925 -52.577698 0.24429321c-16.306763 -8.572632 -26.365967 -24.499481 -26.365967 -41.745636l52.42517 0z" fill-rule="evenodd"/><path stroke="#000000" stroke-width="1.0" stroke-linejoin="round" stroke-linecap="butt" d="m635.127 324.4841l0 0c0.19024658 17.24527 -9.692688 33.26477 -25.904053 41.988464c-16.211365 8.723724 -36.270874 8.816925 -52.577698 0.24429321c-16.306763 -8.572632 -26.365967 -24.499481 -26.365967 -41.745636l52.42517 0z" fill-rule="evenodd"/><path fill="#ffffff" d="m204.60672 276.65747l0 0c0 -6.1403503 5.774475 -11.118103 12.897644 -11.118103l0 0c7.123169 0 12.897629 4.9777527 12.897629 11.118103l0 0c0 6.1403503 -5.77446 11.118103 -12.897629 11.118103l0 0c-7.123169 0 -12.897644 -4.9777527 -12.897644 -11.118103z" fill-rule="evenodd"/><path stroke="#000000" stroke-width="1.0" stroke-linejoin="round" stroke-linecap="butt" d="m204.60672 276.65747l0 0c0 -6.1403503 5.774475 -11.118103 12.897644 -11.118103l0 0c7.123169 0 12.897629 4.9777527 12.897629 11.118103l0 0c0 6.1403503 -5.77446 11.118103 -12.897629 11.118103l0 0c-7.123169 0 -12.897644 -4.9777527 -12.897644 -11.118103z" fill-rule="evenodd"/><path fill="#000000" fill-opacity="0.0" d="m45.267715 565.03937l644.53546 0l0 108.22046l-644.53546 0z" fill-rule="evenodd"/><path fill="#000000" d="m208.66313 635.7294q-4.671875 0 -8.390625 -2.328125q-3.71875 -2.34375 -5.859375 -6.34375q-2.140625 -4.0 -2.140625 -9.046875q0 -5.0625 2.328125 -9.09375q2.34375 -4.03125 6.34375 -6.359375q4.0 -2.34375 8.984375 -2.34375q5.0 0 8.96875 2.34375q3.96875 2.328125 6.296875 6.359375q2.34375 4.03125 2.34375 9.09375l-2.5 0q0 5.046875 -2.140625 9.046875q-2.140625 4.0 -5.859375 6.34375q-3.703125 2.328125 -8.375 2.328125zm1.265625 -5.75q3.265625 0 5.828125 -1.5625q2.5625 -1.578125 4.03125 -4.296875q1.46875 -2.71875 1.46875 -6.109375q0 -3.453125 -1.46875 -6.171875q-1.46875 -2.734375 -4.03125 -4.296875q-2.5625 -1.5625 -5.828125 -1.5625q-3.1875 0 -5.78125 1.5625q-2.59375 1.5625 -4.109375 4.296875q-1.5 2.71875 -1.5 6.171875q0 3.390625 1.5 6.109375q1.515625 2.71875 4.109375 4.296875q2.59375 1.5625 5.78125 1.5625zm14.34375 5.5625q-1.40625 0 -2.34375 -0.921875q-0.921875 -0.9375 -0.921875 -2.34375l0 -9.78125l1.21875 -6.796875l5.3125 2.3125l0 14.265625q0 1.40625 -0.9375 2.34375q-0.921875 0.921875 -2.328125 0.921875zm58.949936 0q-1.421875 0 -2.34375 -0.921875q-0.921875 -0.9375 -0.921875 -2.34375l0 -18.296875q0 -4.03125 -1.984375 -5.984375q-1.984375 -1.953125 -5.1875 -1.953125q-3.328125 0 -5.484375 2.3125q-2.140625 2.296875 -2.140625 5.875l-5.296875 0q0 -4.15625 1.78125 -7.328125q1.796875 -3.171875 5.03125 -4.953125q3.234375 -1.796875 7.390625 -1.796875q3.640625 0 6.453125 1.609375q2.828125 1.59375 4.390625 4.703125q1.5625 3.09375 1.5625 7.515625l0 18.296875q0 1.40625 -0.890625 2.34375q-0.890625 0.921875 -2.359375 0.921875zm-42.687515 0q-1.421875 0 -2.34375 -0.921875q-0.921875 -0.9375 -0.921875 -2.34375l0 -28.484375q0 -1.46875 0.921875 -2.359375q0.921875 -0.890625 2.34375 -0.890625q1.46875 0 2.359375 0.890625q0.890625 0.890625 0.890625 2.359375l0 28.484375q0 1.40625 -0.890625 2.34375q-0.890625 0.921875 -2.359375 0.921875zm21.375015 0q-1.421875 0 -2.34375 -0.921875q-0.921875 -0.9375 -0.921875 -2.34375l0 -18.296875q0 -4.03125 -1.984375 -5.984375q-1.9843903 -1.953125 -5.1875153 -1.953125q-3.328125 0 -5.515625 2.3125q-2.171875 2.296875 -2.171875 5.875l-4.03125 0q0 -4.15625 1.65625 -7.328125q1.671875 -3.171875 4.609375 -4.953125q2.953125 -1.796875 6.734375 -1.796875q3.6406403 0 6.4531403 1.609375q2.828125 1.59375 4.390625 4.703125q1.5625 3.09375 1.5625 7.515625l0 18.296875q0 1.40625 -0.890625 2.34375q-0.890625 0.921875 -2.359375 0.921875zm48.12564 0.1875q-4.484375 0 -8.296875 -1.375q-3.796875 -1.375 -5.921875 -3.484375q-0.953125 -1.015625 -0.796875 -2.328125q0.15625 -1.3125 1.25 -2.15625q1.28125 -1.015625 2.53125 -0.859375q1.25 0.15625 2.140625 1.125q1.09375 1.21875 3.484375 2.28125q2.40625 1.046875 5.34375 1.046875q3.71875 0 5.671875 -1.21875q1.953125 -1.21875 2.015625 -3.140625q0.0625 -1.921875 -1.828125 -3.328125q-1.890625 -1.40625 -6.875 -2.296875q-6.46875 -1.28125 -9.390625 -3.84375q-2.90625 -2.5625 -2.90625 -6.265625q0 -3.265625 1.921875 -5.40625q1.921875 -2.15625 4.921875 -3.203125q3.015625 -1.0625 6.28125 -1.0625q4.21875 0 7.484375 1.34375q3.265625 1.34375 5.1875 3.71875q0.890625 1.015625 0.828125 2.140625q-0.0625 1.125 -1.078125 1.890625q-1.03125 0.703125 -2.4375 0.453125q-1.40625 -0.265625 -2.375 -1.15625q-1.59375 -1.546875 -3.453125 -2.109375q-1.84375 -0.578125 -4.28125 -0.578125q-2.8125 0 -4.765625 0.96875q-1.953125 0.953125 -1.953125 2.796875q0 1.15625 0.609375 2.09375q0.609375 0.921875 2.390625 1.65625q1.796875 0.734375 5.25 1.4375q4.796875 0.96875 7.578125 2.4375q2.796875 1.46875 4.0 3.421875q1.21875 1.953125 1.21875 4.515625q0 2.9375 -1.5625 5.3125q-1.5625 2.359375 -4.609375 3.765625q-3.03125 1.40625 -7.578125 1.40625zm38.455048 0q-5.3125 0 -9.4375 -2.265625q-4.125 -2.265625 -6.46875 -6.265625q-2.328125 -4.0 -2.328125 -9.1875q0 -5.25 2.203125 -9.25q2.21875 -4.0 6.109375 -6.265625q3.90625 -2.28125 8.96875 -2.28125q4.984375 0 8.5625 2.21875q3.59375 2.203125 5.484375 6.078125q1.890625 3.859375 1.890625 8.921875q0 1.21875 -0.84375 2.015625q-0.828125 0.796875 -2.109375 0.796875l-25.78125 0l0 -5.125l25.59375 0l-2.625 1.796875q-0.0625 -3.203125 -1.28125 -5.71875q-1.21875 -2.53125 -3.453125 -4.0q-2.234375 -1.484375 -5.4375 -1.484375q-3.65625 0 -6.25 1.609375q-2.578125 1.59375 -3.921875 4.390625q-1.34375 2.78125 -1.34375 6.296875q0 3.515625 1.59375 6.265625q1.59375 2.75 4.40625 4.359375q2.828125 1.59375 6.46875 1.59375q1.984375 0 4.0625 -0.734375q2.09375 -0.734375 3.359375 -1.703125q0.96875 -0.703125 2.078125 -0.734375q1.125 -0.03125 1.953125 0.671875q1.09375 0.96875 1.15625 2.125q0.0625 1.140625 -1.015625 1.984375q-2.1875 1.71875 -5.421875 2.8125q-3.21875 1.078125 -6.171875 1.078125zm31.618958 -0.25q-2.8125 0 -5.0 -1.53125q-2.171875 -1.546875 -3.390625 -4.203125q-1.203125 -2.65625 -1.203125 -6.109375l0 -34.9375q0 -1.40625 0.890625 -2.296875q0.890625 -0.90625 2.3125 -0.90625q1.40625 0 2.296875 0.90625q0.890625 0.890625 0.890625 2.296875l0 34.9375q0 2.375 0.890625 3.90625q0.90625 1.53125 2.3125 1.53125l1.609375 0q1.265625 0 2.0625 0.90625q0.8125 0.890625 0.8125 2.296875q0 1.40625 -1.21875 2.3125q-1.21875 0.890625 -3.140625 0.890625l-0.125 0zm12.731201 1.03125q-1.78125 0 -3.09375 -1.3125q-1.3125 -1.3125 -1.3125 -3.109375q0 -1.859375 1.3125 -3.171875q1.3125 -1.3125 3.09375 -1.3125q1.859375 0 3.140625 1.3125q1.28125 1.3125 1.28125 3.171875q0 1.796875 -1.28125 3.109375q-1.28125 1.3125 -3.140625 1.3125zm26.12262 -1.03125q-3.203125 0 -5.765625 -1.625q-2.5625 -1.640625 -4.03125 -4.453125q-1.46875 -2.8125 -1.46875 -6.34375l0 -30.515625q0 -1.421875 0.890625 -2.3125q0.90625 -0.890625 2.3125 -0.890625q1.40625 0 2.296875 0.890625q0.890625 0.890625 0.890625 2.3125l0 30.515625q0 2.5625 1.40625 4.296875q1.421875 1.71875 3.46875 1.71875l2.171875 0q1.15625 0 1.953125 0.90625q0.796875 0.890625 0.796875 2.296875q0 1.40625 -1.0625 2.3125q-1.046875 0.890625 -2.71875 0.890625l-1.140625 0zm-14.21875 -28.21875q-1.34375 0 -2.171875 -0.765625q-0.828125 -0.78125 -0.828125 -1.921875q0 -1.28125 0.828125 -2.046875q0.828125 -0.78125 2.171875 -0.78125l14.796875 0q1.34375 0 2.171875 0.78125q0.828125 0.765625 0.828125 2.046875q0 1.140625 -0.828125 1.921875q-0.828125 0.765625 -2.171875 0.765625l-14.796875 0zm43.585815 28.46875q-5.3125 0 -9.4375 -2.265625q-4.125 -2.265625 -6.46875 -6.265625q-2.328125 -4.0 -2.328125 -9.1875q0 -5.25 2.203125 -9.25q2.21875 -4.0 6.109375 -6.265625q3.90625 -2.28125 8.96875 -2.28125q4.984375 0 8.5625 2.21875q3.59375 2.203125 5.484375 6.078125q1.890625 3.859375 1.890625 8.921875q0 1.21875 -0.84375 2.015625q-0.828125 0.796875 -2.109375 0.796875l-25.78125 0l0 -5.125l25.59375 0l-2.625 1.796875q-0.0625 -3.203125 -1.28125 -5.71875q-1.21875 -2.53125 -3.453125 -4.0q-2.234375 -1.484375 -5.4375 -1.484375q-3.65625 0 -6.25 1.609375q-2.578125 1.59375 -3.921875 4.390625q-1.34375 2.78125 -1.34375 6.296875q0 3.515625 1.59375 6.265625q1.59375 2.75 4.40625 4.359375q2.828125 1.59375 6.46875 1.59375q1.984375 0 4.0625 -0.734375q2.09375 -0.734375 3.359375 -1.703125q0.96875 -0.703125 2.078125 -0.734375q1.125 -0.03125 1.953125 0.671875q1.09375 0.96875 1.15625 2.125q0.0625 1.140625 -1.015625 1.984375q-2.1875 1.71875 -5.421875 2.8125q-3.21875 1.078125 -6.171875 1.078125zm37.885803 0q-5.109375 0 -9.109375 -2.328125q-4.0 -2.34375 -6.28125 -6.34375q-2.265625 -4.0 -2.265625 -9.046875q0 -5.1875 2.234375 -9.21875q2.25 -4.03125 6.140625 -6.296875q3.90625 -2.28125 8.96875 -2.28125q3.78125 0 6.90625 1.4375q3.140625 1.4375 5.640625 4.328125q0.890625 1.015625 0.625 2.109375q-0.25 1.09375 -1.390625 1.921875q-0.90625 0.640625 -2.0 0.421875q-1.078125 -0.234375 -1.96875 -1.125q-3.140625 -3.328125 -7.8125 -3.328125q-3.265625 0 -5.765625 1.5q-2.484375 1.5 -3.90625 4.1875q-1.40625 2.6875 -1.40625 6.34375q0 3.453125 1.4375 6.140625q1.453125 2.6875 4.0 4.265625q2.5625 1.5625 5.953125 1.5625q2.25 0 3.9375 -0.546875q1.703125 -0.546875 3.109375 -1.703125q1.03125 -0.828125 2.109375 -0.921875q1.09375 -0.09375 1.921875 0.609375q1.09375 0.890625 1.21875 2.015625q0.125 1.125 -0.765625 2.015625q-4.609375 4.28125 -11.53125 4.28125zm52.167023 -0.1875q-1.40625 0 -2.34375 -0.921875q-0.921875 -0.9375 -0.921875 -2.34375l0 -15.734375q0 -3.65625 -1.34375 -5.953125q-1.34375 -2.3125 -3.625 -3.421875q-2.265625 -1.125 -5.203125 -1.125q-2.6875 0 -4.875 1.09375q-2.171875 1.078125 -3.453125 2.90625q-1.28125 1.828125 -1.28125 4.1875l-4.0312195 0q0 -4.03125 1.9530945 -7.1875q1.953125 -3.171875 5.34375 -5.03125q3.390625 -1.859375 7.625 -1.859375q4.40625 0 7.890625 1.890625q3.5 1.890625 5.515625 5.546875q2.015625 3.640625 2.015625 8.953125l0 15.734375q0 1.40625 -0.9375 2.34375q-0.921875 0.921875 -2.328125 0.921875zm-26.296875 0q-1.4218445 0 -2.3437195 -0.921875q-0.921875 -0.9375 -0.921875 -2.34375l0 -28.546875q0 -1.46875 0.921875 -2.359375q0.921875 -0.90625 2.3437195 -0.90625q1.46875 0 2.359375 0.90625q0.890625 0.890625 0.890625 2.359375l0 28.546875q0 1.40625 -0.890625 2.34375q-0.890625 0.921875 -2.359375 0.921875zm0 -12.796875q-1.4218445 0 -2.3437195 -0.921875q-0.921875 -0.9375 -0.921875 -2.34375l0 -30.71875q0 -1.46875 0.921875 -2.359375q0.921875 -0.90625 2.3437195 -0.90625q1.46875 0 2.359375 0.90625q0.890625 0.890625 0.890625 2.359375l0 30.71875q0 1.40625 -0.890625 2.34375q-0.890625 0.921875 -2.359375 0.921875z" fill-rule="nonzero"/></g></svg>