<svg width="150" height="39" viewBox="0 0 150 39" xmlns="http://www.w3.org/2000/svg"><title>Group</title><g fill="none" fill-rule="evenodd" opacity=".9"><path d="M27.608 23.92c-1.365.006-2.153.552-2.574 1.01-.87.944-.86 2.177-.843 2.463v6.13c0 1.558-1.265 2.825-2.822 2.825H17.4c-1.557 0-2.824-1.267-2.824-2.824v-4.237c0-.516-.42-.936-.936-.936-.517 0-.936.42-.936.937v4.237c0 2.59 2.107 4.696 4.697 4.696h3.968c2.59 0 4.696-2.107 4.696-4.696v-6.16l-.003-.078c0-.007-.03-.675.352-1.09.247-.267.658-.403 1.22-.403.036 0 .07-.002.103-.006h6.132c2.59 0 4.695-2.107 4.695-4.695v-3.968c0-2.59-2.106-4.698-4.695-4.698h-3.98c-5.63 0-8.424 3.076-11.125 6.05-2.54 2.798-4.936 5.44-9.738 5.44h-3.98c-1.557 0-2.824-1.268-2.824-2.824v-3.968c0-1.558 1.267-2.825 2.824-2.825h6.162c1.33 0 2.115-.534 2.54-.98.952-1.006.908-2.36.9-2.463V4.695c0-1.556 1.268-2.822 2.826-2.822h3.967c1.556 0 2.822 1.266 2.822 2.822v4.23c0 .517.42.937.937.937.516 0 .935-.42.935-.937v-4.23C26.135 2.105 24.03 0 21.44 0H17.47c-2.59 0-4.697 2.106-4.697 4.695l.002 6.213c0 .006.01.7-.39 1.123-.253.267-.64.396-1.18.396H5.043c-2.59 0-4.697 2.108-4.697 4.698v3.968c0 2.588 2.107 4.695 4.697 4.695h3.98c5.63 0 8.424-3.076 11.125-6.05 2.538-2.797 4.936-5.438 9.737-5.438h3.98c1.556 0 2.822 1.266 2.822 2.824v3.968c0 1.556-1.267 2.823-2.823 2.823h-6.163c-.032 0-.065 0-.096.004z" fill="#6A2EA2"/><path d="M53.774 23.024c-.613 0-3.677-.19-3.775-3.907-.03-1.202.372-2.324 1.108-3.078.662-.68 1.585-1.04 2.666-1.04 1.072 0 1.983.352 2.64 1.018.73.743 1.137 1.868 1.118 3.084-.066 3.733-3.143 3.922-3.758 3.922m0-9.993c-1.857 0-3.405.675-4.48 1.952-.92 1.093-1.427 2.55-1.427 4.104 0 1.52.47 2.927 1.318 3.968 1.048 1.28 2.634 1.956 4.59 1.956 1.93 0 3.502-.68 4.546-1.964.85-1.043 1.327-2.456 1.344-3.977.02-1.695-.597-3.3-1.692-4.408-1.054-1.067-2.507-1.63-4.198-1.63M69.442 18.91c-.262.288-.746.633-1.557.633h-3.248v-4.07h3.248c1.426 0 2.074 1.056 2.074 2.04 0 .532-.185 1.028-.518 1.396m-1.557-5.505c-.902 0-1.806.004-2.707.01h-.32l-1.93.006c-.253 0-.458.207-.458.46v10.57c0 .253.205.458.458.458h1.25c.253 0 .46-.205.46-.458v-2.922h3.247c1.304 0 2.397-.44 3.163-1.268.68-.735 1.053-1.726 1.053-2.79 0-1.957-1.318-4.065-4.215-4.065M83.714 13.405h-7.68c-.253 0-.46.205-.46.46v10.57c0 .252.207.456.46.456h7.68c.254 0 .46-.203.46-.456v-1.216c0-.254-.206-.458-.46-.458h-5.99v-2.593h5.76c.255 0 .46-.206.46-.46v-1.1c0-.254-.205-.46-.46-.46h-5.76v-2.64h5.99c.254 0 .46-.207.46-.46v-1.183c0-.254-.206-.46-.46-.46M97.024 13.405h-1.25c-.254 0-.46.205-.46.46v6.678l-5.49-6.948c-.088-.11-.22-.174-.36-.174H88.39c-.253 0-.46.206-.46.46v10.57c0 .252.207.458.46.458h1.248c.254 0 .46-.206.46-.46v-7.285l5.886 7.568c.087.112.22.178.363.178h.677c.253 0 .457-.206.457-.46V13.865c0-.254-.203-.46-.456-.46M109.943 22.12c-.09-.092-.208-.137-.327-.137-.1 0-.2.032-.283.098-.71.56-1.677.896-2.584.896-2.89 0-3.94-2.01-3.955-3.89-.01-1.127.395-2.187 1.11-2.908.7-.707 1.683-1.08 2.844-1.08.932 0 1.79.285 2.474.822.083.066.183.098.284.098.114 0 .23-.044.316-.13l.79-.762c.095-.09.146-.215.142-.345-.005-.13-.063-.25-.163-.334-1.096-.925-2.425-1.415-3.844-1.415-1.787 0-3.304.578-4.39 1.67-1.088 1.095-1.707 2.693-1.698 4.386.007 1.564.5 2.992 1.382 4.022 1.068 1.244 2.695 1.902 4.705 1.902 1.533 0 2.914-.475 3.995-1.37.1-.084.16-.203.165-.332.005-.128-.04-.253-.133-.345l-.834-.844zM116.97 20.707l2.133-4.89 2.132 4.89h-4.265zm3.435-7.03c-.072-.166-.237-.272-.417-.272h-1.77c-.18 0-.344.106-.418.27l-4.74 10.57c-.065.142-.054.306.032.437.085.13.23.21.385.21h1.343c.18 0 .343-.106.418-.27l.862-1.897h6.006l.847 1.895c.074.165.237.27.42.27h1.355c.156 0 .3-.078.385-.208.085-.13.097-.295.034-.437l-4.742-10.57zM133.46 19.116h-3.298V15.44h3.298c1.36 0 1.97.922 1.97 1.838 0 .847-.516 1.838-1.97 1.838zm1.23 1.723c1.873-.382 2.905-1.664 2.905-3.61 0-2.6-2.14-3.797-4.132-3.81-.913 0-1.823-.003-2.736-.006l-.324-.002c-.648-.003-1.298-.006-1.947-.007-.122 0-.24.05-.325.135-.085.085-.134.202-.134.324V24.45c0 .253.205.458.46.458h1.25c.25 0 .456-.205.456-.458v-3.382h2.085l3.21 3.683c.087.1.214.158.346.158h1.478c.18 0 .345-.106.42-.27.073-.165.045-.358-.076-.494l-2.934-3.305zM149.24 15.506c.254 0 .46-.206.46-.46v-1.182c0-.254-.206-.46-.46-.46h-7.68c-.255 0-.46.206-.46.46v10.57c0 .253.205.458.46.458h7.68c.254 0 .46-.205.46-.458v-1.216c0-.254-.206-.458-.46-.458h-5.99v-2.593h5.76c.255 0 .46-.206.46-.46v-1.1c0-.253-.205-.46-.46-.46h-5.76v-2.64h5.99z" fill="#423C44"/></g></svg>