<svg width="302" height="302" viewBox="0 0 302 302" fill="none" xmlns="http://www.w3.org/2000/svg">
<path d="M56.6101 47.3901H48.7401V70.9101H43.1601V47.3901H35.3301V43.0901H56.6101V47.3901Z" fill="#191919"/>
<path d="M63.7303 71.3501C62.4029 71.4084 61.0783 71.1826 59.8452 70.6876C58.6122 70.1926 57.499 69.44 56.5803 68.4801C54.7723 66.4961 53.8137 63.8826 53.9103 61.2001V60.4401C53.8008 57.6864 54.7004 54.9874 56.4403 52.8501C57.2681 51.865 58.3104 51.0825 59.4873 50.5625C60.6643 50.0425 61.9446 49.7988 63.2303 49.8501C64.4312 49.779 65.6332 49.9673 66.7548 50.4021C67.8764 50.8369 68.8912 51.5081 69.7303 52.3701C71.3413 54.2796 72.1543 56.7366 72.0003 59.2301V62.2301H59.7003V62.3501C59.7369 63.5828 60.1958 64.7654 61.0003 65.7001C61.4231 66.1411 61.9355 66.4862 62.5031 66.7122C63.0707 66.9382 63.6801 67.0398 64.2903 67.0101C65.3364 67.0542 66.3835 66.9499 67.4003 66.7001C68.3327 66.4021 69.231 66.0066 70.0803 65.5201L71.5803 68.9701C70.5932 69.7403 69.4753 70.3264 68.2803 70.7001C66.8079 71.1575 65.2719 71.3769 63.7303 71.3501ZM63.2303 54.1901C62.7584 54.1741 62.2896 54.2731 61.8646 54.4787C61.4395 54.6843 61.0708 54.9902 60.7903 55.3701C60.1429 56.2895 59.7591 57.3684 59.6803 58.4901V58.5801H66.5303V58.0901C66.5828 57.0753 66.2864 56.0731 65.6903 55.2501C65.3904 54.8949 65.0121 54.6143 64.5852 54.4303C64.1583 54.2463 63.6945 54.1641 63.2303 54.1901Z" fill="#191919"/>
<path d="M80.3899 50.27L80.6399 53.27C81.2796 52.2603 82.1503 51.4171 83.1799 50.81C84.2058 50.2152 85.3743 49.911 86.5599 49.93C87.4719 49.884 88.3827 50.0394 89.2278 50.385C90.073 50.7307 90.8316 51.2582 91.4499 51.93C92.6233 53.2633 93.2099 55.32 93.2099 58.1V70.95H87.6099V58.02C87.7239 56.9494 87.4232 55.8758 86.7699 55.02C86.4284 54.7092 86.0269 54.4716 85.59 54.322C85.1532 54.1724 84.6903 54.1138 84.2299 54.15C83.5368 54.1374 82.8508 54.2917 82.2299 54.6C81.6451 54.8991 81.1408 55.3348 80.7599 55.87V70.87H75.1899V50.27H80.3899Z" fill="#191919"/>
<path d="M56.6904 86.79H48.8204V110.31H43.2404V86.79H35.4004V82.49H56.6904V86.79Z" fill="#191919"/>
<path d="M63.6 92.24C64.2201 91.3292 65.0412 90.573 66 90.03C66.9567 89.4984 68.0357 89.2261 69.13 89.24C70.0838 89.194 71.0358 89.3634 71.9152 89.7356C72.7947 90.1078 73.579 90.6732 74.21 91.39C75.43 92.83 76.05 95.04 76.05 98.03V110.3H70.46V97.96C70.5727 96.7597 70.2729 95.5569 69.61 94.55C69.2907 94.2037 68.8974 93.9339 68.4593 93.7608C68.0213 93.5876 67.5498 93.5156 67.08 93.55C66.3917 93.542 65.7097 93.6818 65.08 93.96C64.5109 94.2253 64.0137 94.623 63.63 95.12V110.3H58V80.49H63.6V92.24Z" fill="#191919"/>
<path d="M78.2204 99.82C78.1083 97.0605 79.0281 94.3582 80.8004 92.24C82.708 90.3537 85.2825 89.2957 87.9654 89.2957C90.6482 89.2957 93.2227 90.3537 95.1304 92.24C96.9217 94.3525 97.8502 97.0629 97.7304 99.83V100.23C97.8505 102.999 96.9261 105.711 95.1404 107.83C93.2277 109.707 90.655 110.758 87.9754 110.758C85.2957 110.758 82.723 109.707 80.8104 107.83C79.0246 105.711 78.1002 102.999 78.2204 100.23V99.83V99.82ZM83.7804 100.21C83.7069 101.782 84.052 103.345 84.7804 104.74C85.1013 105.297 85.5725 105.753 86.14 106.056C86.7076 106.358 87.3488 106.495 87.9904 106.45C88.6254 106.489 89.2585 106.348 89.8174 106.044C90.3762 105.74 90.8381 105.284 91.1504 104.73C91.8775 103.338 92.2225 101.779 92.1504 100.21V99.81C92.2221 98.2543 91.8769 96.7076 91.1504 95.33C90.8358 94.7696 90.3698 94.3091 89.8056 94.0013C89.2414 93.6936 88.6019 93.551 87.9604 93.59C87.3231 93.552 86.6881 93.6953 86.1288 94.0032C85.5696 94.3112 85.109 94.7712 84.8004 95.33C84.0819 96.7106 83.7372 98.255 83.8004 99.81L83.7804 100.21Z" fill="#191919"/>
<path d="M112.62 107.38C112.043 108.411 111.209 109.276 110.2 109.89C108.843 110.635 107.28 110.918 105.747 110.698C104.214 110.478 102.794 109.767 101.7 108.67C100.48 107.28 99.8604 105.11 99.8604 102.17V89.7002H105.42V102.24C105.325 103.378 105.595 104.516 106.19 105.49C106.456 105.827 106.8 106.093 107.192 106.267C107.584 106.442 108.012 106.518 108.44 106.49C109.226 106.513 110.007 106.366 110.73 106.06C111.358 105.785 111.9 105.347 112.3 104.79V89.7002H117.88V110.38H113.12L112.62 107.38Z" fill="#191919"/>
<path d="M132.08 104.7C132.073 104.384 131.989 104.074 131.833 103.798C131.678 103.523 131.457 103.29 131.19 103.12C130.181 102.513 129.064 102.109 127.9 101.93C125.911 101.625 124.017 100.873 122.36 99.7302C121.754 99.2596 121.269 98.6512 120.946 97.9554C120.622 97.2597 120.469 96.4968 120.5 95.7302C120.5 94.8513 120.704 93.9844 121.094 93.1969C121.484 92.4095 122.051 91.7227 122.75 91.1902C124.466 89.8784 126.593 89.2192 128.75 89.3302C130.996 89.2137 133.215 89.8663 135.04 91.1802C135.772 91.7146 136.36 92.4215 136.752 93.2379C137.145 94.0544 137.329 94.9551 137.29 95.8602V95.9802H131.9C131.91 95.6108 131.845 95.2431 131.709 94.8994C131.574 94.5557 131.37 94.243 131.11 93.9802C130.475 93.4962 129.703 93.2242 128.904 93.2027C128.106 93.1811 127.321 93.4111 126.66 93.8602C126.413 94.0573 126.214 94.3085 126.078 94.5946C125.943 94.8806 125.875 95.1938 125.88 95.5102C125.877 95.818 125.949 96.122 126.09 96.3956C126.232 96.6693 126.437 96.9042 126.69 97.0802C127.709 97.6544 128.83 98.0247 129.99 98.1702C132.03 98.4729 133.973 99.2392 135.67 100.41C136.275 100.9 136.756 101.523 137.078 102.231C137.399 102.94 137.55 103.713 137.52 104.49C137.528 105.388 137.314 106.275 136.897 107.07C136.481 107.866 135.873 108.546 135.13 109.05C133.278 110.308 131.067 110.929 128.83 110.82C126.47 110.95 124.146 110.206 122.3 108.73C121.572 108.17 120.987 107.446 120.591 106.617C120.194 105.789 119.999 104.878 120.02 103.96V103.84H125.13C125.106 104.3 125.192 104.758 125.382 105.178C125.572 105.597 125.859 105.965 126.22 106.25C127.013 106.783 127.956 107.046 128.91 107C129.743 107.054 130.571 106.837 131.27 106.38C131.531 106.187 131.742 105.933 131.883 105.64C132.024 105.348 132.092 105.025 132.08 104.7Z" fill="#191919"/>
<path d="M152.44 110.35C152.233 109.866 152.059 109.368 151.92 108.86C151.772 108.332 151.665 107.794 151.6 107.25C151.04 108.242 150.269 109.099 149.34 109.76C148.353 110.438 147.177 110.788 145.98 110.76C144.16 110.876 142.366 110.277 140.98 109.09C140.383 108.496 139.918 107.783 139.615 106.997C139.312 106.212 139.177 105.371 139.22 104.53C139.18 103.611 139.374 102.697 139.783 101.874C140.192 101.05 140.804 100.343 141.56 99.8201C143.12 98.7001 145.4 98.1501 148.39 98.1501H151.51V96.5001C151.559 95.6564 151.276 94.8271 150.72 94.1901C150.104 93.6881 149.341 93.4009 148.547 93.372C147.753 93.3431 146.971 93.5742 146.32 94.0301C146.072 94.2613 145.877 94.5439 145.749 94.8583C145.621 95.1727 145.564 95.5112 145.58 95.8501H140.19V95.7401C140.158 94.8555 140.349 93.9769 140.748 93.1865C141.147 92.3961 141.739 91.7196 142.47 91.2201C144.297 89.8804 146.528 89.2095 148.79 89.3201C150.948 89.2278 153.071 89.8928 154.79 91.2001C155.564 91.8537 156.175 92.678 156.576 93.6081C156.977 94.5383 157.157 95.5488 157.1 96.5601V105.11C157.1 106.025 157.174 106.938 157.32 107.84C157.473 108.707 157.707 109.557 158.02 110.38L152.44 110.35ZM147.34 106.62C148.265 106.636 149.174 106.386 149.96 105.9C150.636 105.507 151.177 104.917 151.51 104.21V101.29H148.39C147.411 101.221 146.445 101.541 145.7 102.18C145.406 102.455 145.172 102.788 145.013 103.158C144.855 103.528 144.775 103.927 144.78 104.33C144.768 104.64 144.823 104.949 144.943 105.236C145.062 105.523 145.242 105.78 145.47 105.99C145.99 106.432 146.659 106.658 147.34 106.62Z" fill="#191919"/>
<path d="M164.4 89.7002L164.65 92.7002C165.293 91.6928 166.163 90.8503 167.19 90.2402C168.217 89.6468 169.385 89.3427 170.57 89.3602C171.482 89.3142 172.393 89.4696 173.238 89.8152C174.083 90.1609 174.842 90.6883 175.46 91.3602C176.627 92.6935 177.214 94.7502 177.22 97.5302V110.45H171.62V97.4202C171.734 96.3496 171.434 95.276 170.78 94.4202C170.439 94.1094 170.037 93.8718 169.6 93.7222C169.163 93.5725 168.701 93.514 168.24 93.5502C167.547 93.5375 166.861 93.6919 166.24 94.0002C165.656 94.3054 165.153 94.7439 164.77 95.2802V110.28H159.2V89.7002H164.4Z" fill="#191919"/>
<path d="M178.2 100.13C178.066 97.3446 178.804 94.5866 180.31 92.24C180.965 91.2755 181.855 90.4939 182.896 89.969C183.937 89.4441 185.095 89.1932 186.26 89.24C187.232 89.2231 188.192 89.4537 189.05 89.91C189.908 90.3794 190.652 91.0315 191.23 91.82V80.49H196.83V110.3H192L191.54 107.78C190.952 108.675 190.16 109.419 189.23 109.95C188.312 110.455 187.278 110.714 186.23 110.7C185.091 110.752 183.956 110.526 182.924 110.039C181.892 109.553 180.995 108.822 180.31 107.91C178.812 105.75 178.07 103.155 178.2 100.53V100.13ZM183.76 100.54C183.686 102.026 184.003 103.505 184.68 104.83C184.981 105.348 185.422 105.771 185.953 106.049C186.484 106.327 187.083 106.449 187.68 106.4C188.41 106.418 189.133 106.249 189.78 105.91C190.392 105.577 190.9 105.082 191.25 104.48V95.62C190.901 94.9943 190.399 94.4678 189.79 94.09C189.167 93.7125 188.448 93.5216 187.72 93.54C187.095 93.5111 186.475 93.6699 185.94 93.996C185.406 94.3221 184.981 94.8006 184.72 95.37C184.013 96.8547 183.671 98.4864 183.72 100.13L183.76 100.54Z" fill="#191919"/>
<path d="M57.1502 140.64V140.75C57.2401 142.066 57.0415 143.386 56.5683 144.618C56.095 145.849 55.3585 146.963 54.4102 147.88C52.5302 149.64 49.9202 150.52 46.5802 150.52C45.0703 150.578 43.5649 150.32 42.16 149.764C40.7551 149.208 39.4814 148.365 38.4202 147.29C37.3709 146.183 36.5535 144.878 36.016 143.451C35.4784 142.024 35.2317 140.504 35.2902 138.98V133.45C35.1739 130.387 36.2697 127.401 38.3402 125.14C39.3578 124.064 40.5934 123.217 41.9644 122.657C43.3353 122.096 44.8101 121.835 46.2902 121.89C49.7302 121.89 52.4202 122.773 54.3602 124.54C55.3371 125.456 56.0972 126.579 56.585 127.826C57.0729 129.074 57.2762 130.414 57.1802 131.75V131.87H51.7602C51.8508 130.365 51.3805 128.879 50.4402 127.7C49.9009 127.178 49.2559 126.777 48.5486 126.525C47.8413 126.273 47.0882 126.176 46.3402 126.24C45.5593 126.212 44.784 126.381 44.0852 126.73C43.3864 127.079 42.7864 127.599 42.3402 128.24C41.3101 129.769 40.7951 131.588 40.8702 133.43V138.98C40.7906 140.844 41.3361 142.681 42.4202 144.2C42.9038 144.846 43.5366 145.365 44.2645 145.713C44.9924 146.062 45.7937 146.229 46.6002 146.2C47.3089 146.26 48.0222 146.165 48.6905 145.921C49.3588 145.678 49.9661 145.292 50.4702 144.79C51.3889 143.603 51.8344 142.117 51.7202 140.62L57.1502 140.64Z" fill="#191919"/>
<path d="M58.6701 139.62C58.558 136.86 59.4778 134.158 61.2501 132.04C62.1429 131.039 63.2483 130.25 64.4854 129.731C65.7225 129.211 67.06 128.976 68.4001 129.04C69.7396 128.97 71.0781 129.197 72.3195 129.705C73.5609 130.214 74.6744 130.991 75.5801 131.98C77.3714 134.092 78.2999 136.803 78.1801 139.57V139.97C78.2953 142.738 77.3715 145.449 75.5901 147.57C74.6865 148.556 73.576 149.33 72.3381 149.837C71.1003 150.343 69.7657 150.57 68.4301 150.5C67.0928 150.571 65.7566 150.344 64.517 149.838C63.2774 149.331 62.1652 148.557 61.2601 147.57C59.4743 145.451 58.5499 142.738 58.6701 139.97V139.57V139.62ZM64.2301 140.01C64.1618 141.581 64.5066 143.143 65.2301 144.54C65.5528 145.096 66.0243 145.55 66.5914 145.852C67.1586 146.154 67.7989 146.292 68.4401 146.25C69.0766 146.289 69.7114 146.149 70.2719 145.845C70.8325 145.541 71.2962 145.085 71.6101 144.53C72.3372 143.138 72.6822 141.579 72.6101 140.01V139.61C72.6755 138.052 72.3307 136.503 71.6101 135.12C71.2924 134.563 70.8254 134.106 70.2618 133.8C69.6981 133.494 69.0602 133.352 68.4201 133.39C67.7815 133.352 67.1453 133.496 66.5846 133.804C66.0238 134.111 65.5613 134.571 65.2501 135.13C64.5316 136.511 64.1869 138.055 64.2501 139.61L64.2301 140.01Z" fill="#191919"/>
<path d="M99.8104 124.99C100.082 124.729 100.406 124.528 100.761 124.4C101.116 124.273 101.494 124.222 101.87 124.25C102.203 124.233 102.537 124.233 102.87 124.25L103.76 124.39L104.24 120.24C103.654 120.113 103.114 120.013 102.62 119.94C102.143 119.873 101.662 119.839 101.18 119.84C99.1287 119.719 97.1091 120.392 95.5404 121.72C94.8484 122.422 94.3125 123.263 93.9678 124.186C93.6232 125.11 93.4775 126.096 93.5404 127.08V129.38H86.3004V127.08C86.247 126.303 86.4981 125.535 87.0004 124.94C87.2738 124.681 87.5981 124.481 87.9527 124.354C88.3073 124.226 88.6845 124.174 89.0604 124.2C89.3947 124.197 89.7288 124.217 90.0604 124.26C90.3504 124.26 90.6404 124.34 90.9504 124.39L91.4304 120.24C90.8404 120.12 90.3004 120.02 89.8104 119.95C89.3336 119.879 88.8524 119.843 88.3704 119.84C86.3187 119.719 84.2991 120.392 82.7304 121.72C82.0384 122.422 81.5025 123.263 81.1578 124.186C80.8132 125.11 80.6675 126.096 80.7304 127.08V129.38H77.6504V133.29H80.7204V150.1H86.3004V133.34H93.5404V150.1H99.1204V133.34H103.23V129.42H99.1204V127.13C99.0643 126.354 99.3117 125.587 99.8104 124.99Z" fill="#191919"/>
<path d="M113.27 150.55C111.943 150.608 110.618 150.383 109.385 149.888C108.152 149.393 107.039 148.64 106.12 147.68C104.312 145.696 103.354 143.083 103.45 140.4V139.64C103.341 136.886 104.24 134.187 105.98 132.05C107.689 130.238 110.045 129.175 112.535 129.093C115.024 129.011 117.445 129.915 119.27 131.61C120.886 133.503 121.713 135.945 121.58 138.43V141.43H109.24V141.55C109.291 142.791 109.772 143.975 110.6 144.9C111.025 145.341 111.539 145.687 112.108 145.913C112.678 146.139 113.289 146.24 113.9 146.21C114.94 146.237 115.977 146.112 116.98 145.84C117.909 145.54 118.803 145.145 119.65 144.66L121.16 148.11C120.175 148.881 119.056 149.464 117.86 149.83C116.379 150.315 114.829 150.559 113.27 150.55ZM112.77 133.39C112.298 133.371 111.828 133.469 111.403 133.675C110.977 133.881 110.609 134.188 110.33 134.57C109.683 135.49 109.299 136.568 109.22 137.69V137.78H116.07V137.29C116.123 136.275 115.826 135.273 115.23 134.45C114.93 134.095 114.552 133.814 114.125 133.63C113.698 133.446 113.234 133.364 112.77 133.39Z" fill="#191919"/>
<path d="M132.81 150.55C131.483 150.608 130.158 150.383 128.925 149.888C127.692 149.393 126.579 148.64 125.66 147.68C123.856 145.695 122.901 143.081 123 140.4V139.64C122.891 136.886 123.79 134.187 125.53 132.05C127.239 130.238 129.595 129.175 132.085 129.093C134.574 129.011 136.995 129.915 138.82 131.61C140.436 133.503 141.263 135.945 141.13 138.43V141.43H128.78V141.54C128.832 142.782 129.317 143.967 130.15 144.89C130.571 145.335 131.083 145.683 131.651 145.91C132.219 146.138 132.829 146.241 133.44 146.21C134.479 146.232 135.516 146.107 136.52 145.84C137.452 145.542 138.351 145.147 139.2 144.66L140.7 148.11C139.712 148.877 138.594 149.459 137.4 149.83C135.919 150.315 134.369 150.559 132.81 150.55ZM132.31 133.39C131.838 133.371 131.368 133.469 130.943 133.675C130.517 133.881 130.149 134.188 129.87 134.57C129.223 135.49 128.839 136.568 128.76 137.69L128.81 137.78H135.66V137.29C135.713 136.275 135.416 135.273 134.82 134.45C134.515 134.088 134.129 133.803 133.692 133.619C133.256 133.435 132.783 133.356 132.31 133.39Z" fill="#191919"/>
<path d="M154 144.45C153.992 144.134 153.906 143.825 153.751 143.55C153.596 143.274 153.376 143.041 153.11 142.87C152.099 142.261 150.978 141.856 149.81 141.68C147.822 141.377 145.93 140.621 144.28 139.47C143.672 139.002 143.185 138.394 142.861 137.697C142.537 137.001 142.386 136.237 142.42 135.47C142.42 134.592 142.622 133.726 143.011 132.939C143.399 132.151 143.963 131.464 144.66 130.93C146.377 129.62 148.503 128.961 150.66 129.07C152.91 128.952 155.132 129.605 156.96 130.92C157.692 131.453 158.281 132.16 158.672 132.977C159.063 133.794 159.244 134.695 159.2 135.6V135.72H153.81C153.818 135.351 153.753 134.984 153.617 134.64C153.482 134.297 153.279 133.984 153.02 133.72C152.383 133.235 151.61 132.963 150.81 132.941C150.009 132.92 149.222 133.15 148.56 133.6C148.316 133.799 148.119 134.051 147.986 134.337C147.853 134.622 147.786 134.935 147.79 135.25C147.787 135.558 147.859 135.862 148 136.135C148.142 136.409 148.348 136.644 148.6 136.82C149.617 137.398 150.739 137.768 151.9 137.91C153.937 138.211 155.878 138.977 157.57 140.15C158.18 140.635 158.667 141.258 158.99 141.967C159.313 142.676 159.464 143.451 159.43 144.23C159.438 145.128 159.225 146.014 158.808 146.81C158.391 147.606 157.783 148.286 157.04 148.79C155.184 150.048 152.97 150.669 150.73 150.56C148.374 150.688 146.053 149.944 144.21 148.47C143.481 147.91 142.894 147.187 142.496 146.358C142.098 145.53 141.901 144.619 141.92 143.7V143.58H147C146.979 144.039 147.066 144.497 147.256 144.916C147.445 145.335 147.731 145.703 148.09 145.99C148.888 146.518 149.834 146.777 150.79 146.73C151.622 146.785 152.449 146.572 153.15 146.12C153.417 145.932 153.635 145.682 153.783 145.391C153.931 145.1 154.006 144.777 154 144.45Z" fill="#191919"/>
<path d="M301.05 301.1H0V1.90735e-07H301.05V301.1ZM4 297.1H297.05V4H4V297.1Z" fill="#191919"/>
</svg>
