<?xml version="1.0" encoding="UTF-8"?>
<svg id="Ebene_1" data-name="Ebene 1" xmlns="http://www.w3.org/2000/svg" xmlns:xlink="http://www.w3.org/1999/xlink" version="1.1" viewBox="0 0 425.2 283.46">
  <defs>
    <style>
      .cls-1 {
        clip-path: url(#clippath);
      }

      .cls-2, .cls-3, .cls-4 {
        stroke-width: 0px;
      }

      .cls-2, .cls-5, .cls-6 {
        fill: none;
      }

      .cls-3 {
        fill: #de0a1e;
      }

      .cls-4 {
        fill: #cd1719;
      }

      .cls-5 {
        stroke: #de0a1e;
        stroke-miterlimit: 3.03;
        stroke-width: .8px;
      }

      .cls-6 {
        stroke: #cd1719;
        stroke-miterlimit: 11.44;
        stroke-width: .2px;
      }
    </style>
    <clipPath id="clippath">
      <rect class="cls-2" x="51.27" y="100.16" width="322.66" height="83.14"/>
    </clipPath>
  </defs>
  <g class="cls-1">
    <path class="cls-3" d="M373.53,123.82v-3.08h-8.63v-7.01h6.28v-2.82h-6.28v-6.88h8.63v-3.08h-11.5v22.87h11.5ZM341.15,123.82v-10.16h1.91l5.61,10.16h3.38l-6.55-11.58,6.55-11.29h-3.38l-5.61,9.8h-1.91v-9.8h-2.87v22.87h2.87ZM327.56,123.82v-3.08h-8.63v-7.01h6.28v-2.82h-6.28v-6.88h8.63v-3.08h-11.5v22.87h11.5ZM294.12,123.82v-10.09h7.61v10.09h2.87v-22.87h-2.87v9.99h-7.61v-9.99h-2.87v22.87h2.87ZM276.1,123.82v-19.79h5.02v-3.08h-12.88v3.08h4.99v19.79h2.87ZM252.35,121.06c-2.26,0-4.02-1.62-4.02-4.77v-7.95c0-3.31,2-4.74,4.02-4.74,2.26,0,4.02,1.62,4.02,4.77v7.95c0,3.31-2,4.74-4.02,4.74M252.35,124.11c4.05,0,6.93-3.24,6.93-7.91v-7.69c0-4.67-2.87-7.95-6.93-7.95s-6.9,3.27-6.9,7.95v7.69c0,4.67,2.82,7.91,6.9,7.91M225.34,104.03h3.05c2.26,0,4.38,1.01,4.38,4.97v.84c0,3.44-1.91,4.9-4.38,4.9h-3.05v-10.71ZM225.34,123.82v-6.03h3.2c4.05,0,7.07-2.72,7.07-7.91v-.88c0-5.19-3.02-8.04-7.07-8.04h-6.07v22.87h2.87ZM204.68,104.45l3.08,11.46h-6.25l3.17-11.46ZM199.34,123.82l1.44-5.16h7.69l1.41,5.16h3.02l-6.6-22.87h-3.23l-6.72,22.87h3ZM167.53,123.82v-16.74l8.34,16.74h2.7v-22.87h-2.9v16.8l-8.34-16.8h-2.67v22.87h2.87ZM153.94,123.82v-3.08h-8.63v-7.01h6.28v-2.82h-6.28v-6.88h8.63v-3.08h-11.5v22.87h11.5ZM130.98,100.95h-2.87v22.87h2.87v-22.87ZM107.41,104.03h3.06c2.5,0,4.38,1.17,4.38,4.74v.78c0,3.28-1.91,4.64-4.38,4.64h-3.06v-10.16ZM107.41,123.82v-6.59h3.06l3.82,6.59h3.31l-4.4-7.27c2.7-.81,4.49-3.18,4.49-6.97v-.65c0-5.13-2.7-7.98-6.9-7.98h-6.25v22.87h2.87ZM86.74,104.45l3.08,11.46h-6.25l3.17-11.46ZM81.4,123.82l1.44-5.16h7.69l1.41,5.16h3.02l-6.6-22.87h-3.23l-6.72,22.87h2.99ZM54.54,123.82v-15.83l4.67,11.87h2.06l4.7-11.94v15.9h2.87v-22.87h-2.81l-5.78,14.76-5.76-14.76h-2.81v22.87h2.87Z"/>
    <path class="cls-5" d="M373.53,123.82v-3.08h-8.63v-7.01h6.28v-2.82h-6.28v-6.88h8.63v-3.08h-11.5v22.87h11.5ZM341.15,123.82v-10.16h1.91l5.61,10.16h3.38l-6.55-11.58,6.55-11.29h-3.38l-5.61,9.8h-1.91v-9.8h-2.87v22.87h2.87ZM327.56,123.82v-3.08h-8.63v-7.01h6.28v-2.82h-6.28v-6.88h8.63v-3.08h-11.5v22.87h11.5ZM294.12,123.82v-10.09h7.61v10.09h2.87v-22.87h-2.87v9.99h-7.61v-9.99h-2.87v22.87h2.87ZM276.1,123.82v-19.79h5.02v-3.08h-12.88v3.08h4.99v19.79h2.87ZM252.35,121.06c-2.26,0-4.02-1.62-4.02-4.77v-7.95c0-3.31,2-4.74,4.02-4.74,2.26,0,4.02,1.62,4.02,4.77v7.95c0,3.31-2,4.74-4.02,4.74ZM252.35,124.11c4.05,0,6.93-3.24,6.93-7.91v-7.69c0-4.67-2.87-7.95-6.93-7.95s-6.9,3.27-6.9,7.95v7.69c0,4.67,2.82,7.91,6.9,7.91ZM225.34,104.03h3.05c2.26,0,4.38,1.01,4.38,4.97v.84c0,3.44-1.91,4.9-4.38,4.9h-3.05v-10.71ZM225.34,123.82v-6.03h3.2c4.05,0,7.07-2.72,7.07-7.91v-.88c0-5.19-3.02-8.04-7.07-8.04h-6.07v22.87h2.87ZM204.68,104.45l3.08,11.46h-6.25l3.17-11.46ZM199.34,123.82l1.44-5.16h7.69l1.41,5.16h3.02l-6.6-22.87h-3.23l-6.72,22.87h3ZM167.53,123.82v-16.74l8.34,16.74h2.7v-22.87h-2.9v16.8l-8.34-16.8h-2.67v22.87h2.87ZM153.94,123.82v-3.08h-8.63v-7.01h6.28v-2.82h-6.28v-6.88h8.63v-3.08h-11.5v22.87h11.5ZM130.98,100.95h-2.87v22.87h2.87v-22.87ZM107.41,104.03h3.06c2.5,0,4.38,1.17,4.38,4.74v.78c0,3.28-1.91,4.64-4.38,4.64h-3.06v-10.16ZM107.41,123.82v-6.59h3.06l3.82,6.59h3.31l-4.4-7.27c2.7-.81,4.49-3.18,4.49-6.97v-.65c0-5.13-2.7-7.98-6.9-7.98h-6.25v22.87h2.87ZM86.74,104.45l3.08,11.46h-6.25l3.17-11.46ZM81.4,123.82l1.44-5.16h7.69l1.41,5.16h3.02l-6.6-22.87h-3.23l-6.72,22.87h2.99ZM54.54,123.82v-15.83l4.67,11.87h2.06l4.7-11.94v15.9h2.87v-22.87h-2.81l-5.78,14.76-5.76-14.76h-2.81v22.87h2.87Z"/>
    <path class="cls-6" d="M114.62,162.62c-1.16,2.95-1.83,4.63-2,5.05-.04.07-.11.1-.2.1-.25,0-.5-.14-.77-.42-.13-.16-.21-.3-.22-.42,0-.04,0-.08.02-.1.45-1.06,1.19-2.91,2.23-5.55,1.99-4.98,3.37-8.3,4.14-9.94-2.01,1.83-3.88,3.95-5.6,6.34-2.46,3.44-3.69,6.25-3.71,8.43v.23c.07,1.48.96,2.36,2.68,2.65.39.07.82.1,1.27.1,1.91,0,3.99-.49,6.24-1.48,2.13-.94,3.67-2.02,4.61-3.24.29-.38.5-.75.62-1.11.17-.5.25-.94.25-1.32-.01-1.65-1.44-2.48-4.29-2.48h-.5c-.28,0-.55-.16-.82-.49-.1-.15-.16-.27-.17-.37.01-.08.06-.13.13-.17,4.64-1.54,8.02-3.11,10.14-4.69,1.36-1.03,2.23-2.2,2.6-3.52.1-.38.15-.75.15-1.12,0-.21-.02-.42-.05-.62-.26-1.46-1.27-2.48-3.05-3.03-.96-.29-2.08-.44-3.37-.44-2.92,0-6.12.67-9.62,2.01-1.98.76-3.74,1.63-5.28,2.62-1.89,1.21-3.15,2.4-3.79,3.57-.26.48-.39.94-.39,1.37,0,.08.01.2.03.37.17.77.88,1.42,2.15,1.94.36.15.59.36.69.65.02.06.03.11.03.15-.02.11-.09.17-.2.18-.09-.01-.18-.03-.27-.07-2.11-.88-3.31-2.02-3.59-3.42-.03-.17-.05-.32-.05-.47,0-1.52,1.25-3.14,3.74-4.86.19-.15.39-.28.59-.4,2.53-1.61,5.45-2.86,8.78-3.74,2.37-.63,4.54-.94,6.5-.94,1.35,0,2.55.16,3.6.47,1.68.5,2.94,1.35,3.81,2.55.47.64.76,1.32.87,2.05.04.31.07.55.07.72,0,1.53-.69,2.96-2.08,4.28-.26.23-.53.46-.8.67-1.86,1.37-4.6,2.72-8.23,4.04,1.52.39,2.61,1.04,3.27,1.94.47.65.7,1.31.7,2,0,1.51-1.07,3-3.22,4.46-1.25.86-2.55,1.52-3.89,1.98-1.83.61-3.54.92-5.11.92-1.01,0-1.91-.13-2.72-.4-2.16-.76-3.24-2.15-3.25-4.17,0-2.47,1.51-5.69,4.54-9.66,1.49-1.94,2.96-3.61,4.41-5,.85-.82,1.55-1.41,2.1-1.78.41-.29.82-.44,1.21-.44.49,0,.85.21,1.07.62.07.12.1.24.1.35-.02.18-.11.27-.25.29-.03,0-.09-.01-.17-.03-.69.6-2.59,4.86-5.7,12.77h0ZM129.81,162.2c0-1.18.55-2.92,1.64-5.21.04-.07.11-.11.18-.12.25,0,.51.15.79.45.13.16.21.29.22.4,0,.03-.01.07-.03.1-.97,2.06-1.51,3.65-1.61,4.79-.01.1-.02.2-.02.29,0,.16.02.32.07.49h.03c.93,0,2.3-.93,4.12-2.8.47-.49.87-.94,1.21-1.34.03-.04.08-.07.13-.07.19,0,.39.17.6.5.11.18.17.34.17.47-.01.06-.03.12-.07.18-2.26,2.68-4.07,4.05-5.45,4.09-.12,0-.28-.02-.47-.07-.54-.16-.95-.47-1.24-.96-.19-.31-.29-.72-.29-1.21h0ZM133.32,156.23c-.04.06-.11.09-.18.1-.25,0-.5-.15-.77-.44-.13-.17-.21-.31-.22-.42,0-.03.01-.07.03-.12l1.39-2.23c.04-.06.11-.08.2-.08.26,0,.52.15.79.45.12.15.19.27.2.39,0,.03-.01.07-.03.12l-1.41,2.23ZM136.02,158.33c.02-.99.79-1.94,2.31-2.83.04-.02.09-.03.13-.03.26,0,.53.16.8.47.11.16.17.29.18.39-.01.08-.04.13-.08.15-1.11.65-1.76,1.27-1.96,1.86-.07.19-.1.39-.1.59.01.49.22,1.15.64,1.98,1.6-.68,3.27-1.22,5.01-1.63h.08c.28,0,.55.17.82.5.1.15.16.27.17.37-.02.09-.07.15-.15.17-2.05.47-3.86,1.07-5.43,1.79.06.21.08.4.08.55,0,.83-.69,1.56-2.08,2.2-.01.01-.02.02-.03.02-.5.22-.87.34-1.09.34-.45-.02-.83-.3-1.14-.84-.08-.15-.12-.3-.12-.45.01-.79,1.04-1.68,3.08-2.67-.55-1.05-.87-1.7-.96-1.96-.12-.36-.18-.68-.18-.96h0ZM136.93,162.91c-.37.23-.71.48-1.02.74.45-.25.79-.49,1.02-.74h0ZM142.68,158.33c.02-.99.79-1.94,2.31-2.83.04-.02.09-.03.13-.03.26,0,.53.16.8.47.11.16.17.29.18.39-.01.08-.04.13-.08.15-1.11.65-1.76,1.27-1.96,1.86-.07.19-.1.39-.1.59.01.49.22,1.15.64,1.98,1.6-.68,3.27-1.22,5.01-1.63h.08c.28,0,.55.17.82.5.1.15.16.27.17.37-.02.09-.07.15-.15.17-2.05.47-3.86,1.07-5.43,1.79.06.21.08.4.08.55,0,.83-.69,1.56-2.08,2.2-.01.01-.02.02-.03.02-.5.22-.87.34-1.09.34-.45-.02-.83-.3-1.14-.84-.08-.15-.12-.3-.12-.45.01-.79,1.04-1.68,3.08-2.67-.55-1.05-.87-1.7-.96-1.96-.12-.36-.18-.68-.18-.96h0ZM143.59,162.91c-.37.23-.71.48-1.02.74.45-.25.79-.49,1.02-.74h0ZM149.01,162.2c0-1.18.55-2.92,1.64-5.21.04-.07.11-.11.18-.12.25,0,.51.15.79.45.13.16.21.29.22.4,0,.03-.01.07-.03.1-.97,2.06-1.51,3.65-1.61,4.79-.01.1-.02.2-.02.29,0,.16.02.32.07.49h.03c.93,0,2.3-.93,4.12-2.8.47-.49.87-.94,1.21-1.34.03-.04.08-.07.13-.07.19,0,.39.17.6.5.11.18.17.34.17.47-.01.06-.03.12-.07.18-2.26,2.68-4.07,4.05-5.45,4.09-.12,0-.28-.02-.47-.07-.54-.16-.95-.47-1.24-.96-.19-.31-.29-.72-.29-1.21h0ZM152.51,156.23c-.04.06-.11.09-.18.1-.25,0-.5-.15-.77-.44-.13-.17-.21-.31-.22-.42,0-.03.01-.07.03-.12l1.39-2.23c.04-.06.11-.08.2-.08.26,0,.52.15.79.45.12.15.19.27.2.39,0,.03-.01.07-.03.12l-1.41,2.23ZM153.27,163.78c0-.23,1.11-2.48,3.32-6.74.04-.06.11-.09.18-.1.25,0,.51.15.79.45.13.16.21.29.22.4,0,.03-.01.07-.03.1-.01.02-.59,1.16-1.74,3.42,2.16-2.09,3.62-3.3,4.39-3.62.09-.03.17-.06.23-.08.15-.03.27-.05.39-.05.53.01.97.23,1.32.65.29.35.44.93.44,1.74,0,.26-.06.95-.18,2.08-.01.12-.02.21-.02.27,0,.07.01.11.03.13.02.01.04.02.05.02.39,0,1.77-.89,4.14-2.67.31-.23.51-.39.6-.47.03-.02.07-.03.12-.03.2,0,.41.18.64.54.11.19.17.35.17.49-.01.08-.04.15-.08.2-1.12.92-1.9,1.52-2.35,1.81-1.04.67-1.91,1.01-2.6,1.01-.4-.01-.75-.12-1.06-.34-.53-.42-.79-1.08-.79-1.98,0-.26.02-.64.07-1.16.04-.48.07-.83.07-1.04v-.18c-.66.17-1.96,1.19-3.91,3.07-1.52,1.46-2.4,2.3-2.63,2.5-.38.31-.64.48-.77.49-.64-.06-.97-.36-1.01-.91h0ZM171.03,157.09c.35-.01.67,0,.97.05.18.04.37.15.57.3.16-.21.34-.47.54-.79.22-.34.57-.28,1.04.15.13.13.24.26.32.37.28.44.1,1.83-.54,4.17-.04.16-.09.31-.13.45,1.03-.64,2.07-1.26,3.12-1.88.48-.28.82-.48,1.02-.6.17-.1.41-.03.74.22.03.03.06.06.08.08.28.27.37.48.29.64-.02.02-.04.04-.05.05-.25.16-.59.36-1.02.6-2.01,1.18-3.62,2.17-4.81,2.95-1.32,3.98-2.73,7.14-4.22,9.49-.5.8-.99,1.46-1.48,1.96-1.23,1.27-2.4,1.4-3.52.37-3.24-2.82-.75-6.93,7.48-12.36.12-.09.32-.22.6-.4.55-1.63.94-2.93,1.17-3.89-1.51,2.01-2.77,3.19-3.77,3.54-.99.34-1.7.09-2.13-.74-.09-.2-.16-.42-.22-.65-.25-1.07.09-2.03,1.02-2.87.82-.74,1.79-1.15,2.93-1.22h0ZM165.96,174.78c.13-.12.27-.25.4-.39,1.44-1.52,2.98-4.38,4.63-8.58.09-.22.17-.44.25-.65-3.81,2.68-6.19,4.98-7.14,6.91-.65,1.34-.53,2.4.37,3.19l.07.07c.35.17.82-.01,1.43-.54h0ZM171.42,158.87c.38-.42.6-.68.67-.75-.91-.04-1.77.25-2.6.89-.85.67-1.27,1.43-1.27,2.26,0,.16.02.31.05.45.08.31,1.13-.64,3.15-2.85h0ZM178.19,162c-.18.09-.27.34-.27.75.01.39.12.63.34.7.21.07.44.1.69.1,1.41,0,3.39-.93,5.93-2.8.66-.48,1.24-.94,1.74-1.39.04-.03.09-.05.13-.05.22,0,.45.17.69.5.12.18.18.33.18.45-.01.07-.03.12-.07.17-.27.27-.86.73-1.78,1.39-2.54,1.82-4.58,2.74-6.14,2.75-.2,0-.35,0-.44-.02-1.42-.19-2.21-.84-2.36-1.94-.02-.12-.03-.25-.03-.37,0-1.02.44-2.1,1.31-3.24.79-1.04,1.62-1.7,2.48-1.98.19-.06.37-.09.54-.1h.07c.53,0,.97.23,1.34.69.23.3.35.61.35.92-.01.22-.07.43-.17.62-.11.2-.28.41-.51.62-.23.21-.48.41-.75.59-.27.18-.56.35-.87.52-.31.17-.6.32-.88.45-.28.13-.53.25-.76.35-.23.1-.41.17-.54.22l-.22.08ZM179.46,159.74c-.12.13-.23.27-.34.4,1.51-.77,2.36-1.48,2.55-2.11-.66.2-1.4.77-2.21,1.71h0ZM184.45,163.78c0-.23,1.11-2.48,3.32-6.74.04-.06.11-.09.18-.1.25,0,.51.15.79.45.13.16.21.29.22.4,0,.03-.01.07-.03.1-.01.02-.59,1.16-1.74,3.42,2.16-2.09,3.62-3.3,4.39-3.62.09-.03.17-.06.23-.08.15-.03.27-.05.39-.05.53.01.97.23,1.32.65.29.35.44.93.44,1.74,0,.26-.06.95-.18,2.08-.01.12-.02.21-.02.27,0,.07.01.11.03.13.02.01.04.02.05.02.39,0,1.77-.89,4.14-2.67.31-.23.51-.39.6-.47.03-.02.07-.03.12-.03.2,0,.41.18.64.54.11.19.17.35.17.49-.01.08-.04.15-.08.2-1.12.92-1.9,1.52-2.35,1.81-1.04.67-1.91,1.01-2.6,1.01-.4-.01-.75-.12-1.06-.34-.53-.42-.79-1.08-.79-1.98,0-.26.02-.64.07-1.16.04-.48.07-.83.07-1.04v-.18c-.66.17-1.96,1.19-3.91,3.07-1.52,1.46-2.4,2.3-2.63,2.5-.38.31-.64.48-.77.49-.64-.06-.97-.36-1.01-.91h0ZM211.56,157.71c.2.27.25.53.15.79-.09.21-.35.17-.77-.13-.04-.04-.08-.08-.12-.1-.8.23-1.56.68-2.26,1.34-.67.66-1.01,1.3-1.02,1.93,0,.18.02.34.07.47h.07c.26,0,.61-.16,1.07-.47.46-.31.94-.72,1.46-1.22.51-.5.89-.86,1.11-1.1.23-.23.44-.46.65-.67l.02-.02c.11-.13.33-.09.65.12.04.03.09.07.13.1.26.21.38.41.37.6,0,.07-.06.37-.17.91-.03.18-.05.33-.05.45.01.21.06.37.15.47.1.09.21.13.32.13.34-.01.96-.3,1.86-.86,1.11-.68,2.62-1.83,4.54-3.45.03-.03.08-.05.15-.05.25,0,.51.15.79.45.13.16.21.29.22.4,0,.04,0,.07-.02.08,0,.01-.05.11-.15.3-.65,1.25-1.18,2.29-1.61,3.12.1-.1.29-.29.55-.55,1.32-1.35,2.36-2.25,3.12-2.68.55-.31,1.03-.47,1.46-.47.35.01.65.12.92.32.49.4.74,1.02.74,1.86,0,.22-.02.57-.07,1.04-.03.44-.05.75-.05.96,0,.26.01.45.03.57.88-.16,2.43-1.15,4.63-2.97.02-.03.04-.06.07-.07.06-.03.11-.05.17-.05.25,0,.5.16.75.47.11.15.17.27.18.39-.01.07-.03.11-.07.13-1.25,1.04-2.17,1.74-2.75,2.11-1.02.66-1.84.99-2.46.99-.2,0-.37-.03-.52-.1-.84-.36-1.26-1.16-1.26-2.41,0-.21.06-.82.17-1.81.01-.11.02-.2.02-.25-.01-.09-.03-.14-.05-.15-.7,0-2.07,1.02-4.09,3.07-.22.23-.56.58-1.01,1.04-1.16,1.21-1.85,1.85-2.06,1.93-.01.01-.02.02-.03.02h-.07c-.31,0-.6-.12-.87-.35-.13-.12-.21-.25-.22-.37,0-.03.01-.08.03-.13-.02-.18.56-1.42,1.76-3.72-.67.51-1.31.96-1.91,1.32-.98.59-1.79.89-2.41.89-.28,0-.53-.06-.75-.17-.64-.34-1.03-.84-1.19-1.53-1.62,1.49-2.91,2.24-3.87,2.25-.25-.01-.48-.07-.69-.18-.49-.31-.81-.72-.96-1.22-.04-.15-.07-.31-.07-.49,0-.82.43-1.64,1.29-2.46.8-.78,1.63-1.22,2.46-1.32.1-.01.19-.02.27-.02.5.01.9.19,1.19.54h0ZM244.83,159.03c.12-.34.25-.69.39-1.06-.01-.01-.03-.03-.07-.05-.02-.01-.04-.02-.05-.03-.04.09-.13.26-.27.5-1.27,2.36-2.35,3.92-3.24,4.68-.51.44-.98.65-1.41.65-.29-.01-.55-.09-.77-.25-.63-.5-.94-1.26-.96-2.28,0-.53.11-1.08.32-1.66.53-1.39,1.31-2.34,2.35-2.87.49-.25,1.01-.37,1.54-.37.49,0,.99.11,1.51.32,1.64-2.96,3.35-6.43,5.13-10.39l.03-.05c.04-.07.11-.11.2-.12.25,0,.51.13.79.4.18.18.25.33.2.45-1.72,4.29-3.35,8.76-4.88,13.41-1.56,4.77-2.35,7.87-2.35,9.3,0,.07.01.15.03.25.01.09.02.16.02.2-.02.1-.09.16-.2.17-.26,0-.52-.13-.79-.4-.12-.13-.2-.26-.22-.39-.02-.11-.03-.29-.03-.54,0-1.51.91-4.81,2.72-9.89h0ZM239.64,162.74c.85-.26,2.22-2.05,4.12-5.36-.13-.02-.23-.03-.3-.03-.97,0-1.88.56-2.72,1.69-.69.94-1.09,1.87-1.19,2.8-.01.11-.02.21-.02.3,0,.23.03.44.1.6h0ZM249.57,162c-.18.09-.27.34-.27.75.01.39.12.63.34.7.21.07.44.1.69.1,1.41,0,3.39-.93,5.93-2.8.66-.48,1.24-.94,1.74-1.39.04-.03.09-.05.13-.05.22,0,.45.17.69.5.12.18.18.33.18.45-.01.07-.03.12-.07.17-.27.27-.86.73-1.78,1.39-2.54,1.82-4.58,2.74-6.14,2.75-.2,0-.35,0-.44-.02-1.42-.19-2.21-.84-2.36-1.94-.02-.12-.03-.25-.03-.37,0-1.02.44-2.1,1.31-3.24.79-1.04,1.62-1.7,2.48-1.98.19-.06.37-.09.54-.1h.07c.53,0,.97.23,1.34.69.23.3.35.61.35.92-.01.22-.07.43-.17.62-.11.2-.28.41-.51.62-.23.21-.48.41-.75.59-.27.18-.56.35-.87.52-.31.17-.6.32-.88.45-.28.13-.53.25-.76.35-.23.1-.41.17-.54.22l-.22.08ZM250.85,159.74c-.12.13-.23.27-.34.4,1.51-.77,2.36-1.48,2.55-2.11-.66.2-1.4.77-2.21,1.71h0ZM263.87,162.1c1.44-1.58,2.27-2.48,2.5-2.7.16-.15.38-.07.67.23.29.3.38.54.27.7-.02.01-.03.02-.03.03-.09.08-.84.89-2.25,2.45-2.46,2.69-4.16,4.17-5.1,4.43-.21.04-.39.04-.54,0-.37-.13-.67-.37-.91-.7-.42-.64.05-2.21,1.43-4.71.1-.19.26-.47.47-.84.28-.5.46-.84.55-1.02-1.37.41-2.44.36-3.19-.15-.7-.48-.97-1.17-.8-2.08.12-.7.44-1.25.96-1.63.17-.12.34-.21.5-.25.46-.13.9.02,1.32.47.23.26.39.53.45.8.09.5-.04,1.13-.4,1.88.09-.02.25-.08.49-.17.56-.2.92-.3,1.07-.3.53.04.89.32,1.11.82.12.34-.27,1.34-1.17,3.02-.93,1.73-1.48,2.81-1.64,3.22-.09.25-.15.45-.18.6.75-.35,2.22-1.72,4.43-4.11h0ZM258.04,158.93c-.01.12,0,.2.02.23.53-.8.84-1.5.94-2.08-.26.21-.48.53-.67.94-.12.25-.22.55-.29.91h0ZM286.01,145.14c.04-.07.11-.11.2-.12.25,0,.5.15.77.44.13.17.21.31.22.42,0,.04,0,.07-.02.08l-.02.03c5.93-.66,10.26-.99,12.98-.99,1.41,0,2.41.09,3.02.27.34.1.59.3.75.6.04.09.07.17.07.23-.02.11-.09.17-.2.18-.03,0-.09-.01-.17-.03-.55-.16-1.47-.23-2.77-.23-2.87,0-7.6.39-14.18,1.16-4.05,9.47-6.66,16.22-7.85,20.25-.38,1.3-.57,2.21-.57,2.73v.07s.02.04.02.05c-.02.11-.09.17-.2.18-.29,0-.56-.15-.8-.45-.13-.17-.2-.34-.2-.5,0-1.94,2.27-8.38,6.81-19.31.4-.96.8-1.91,1.19-2.83-1.58.19-3.23.4-4.95.63-1.73.23-3.25.44-4.58.63-1.32.19-2.53.37-3.63.53-1.1.16-1.94.29-2.55.38l-.91.13h-.07c-.28,0-.55-.17-.82-.5-.1-.15-.16-.27-.17-.37.02-.09.08-.15.17-.17l.5-.07c6.49-.98,12.33-1.78,17.5-2.38l.45-1.04ZM286.62,162c-.18.09-.27.34-.27.75.01.39.12.63.34.7.21.07.44.1.69.1,1.41,0,3.39-.93,5.93-2.8.66-.48,1.24-.94,1.74-1.39.04-.03.09-.05.13-.05.22,0,.45.17.69.5.12.18.18.33.18.45-.01.07-.03.12-.07.17-.27.27-.86.73-1.78,1.39-2.54,1.82-4.58,2.74-6.14,2.75-.2,0-.35,0-.44-.02-1.42-.19-2.21-.84-2.36-1.94-.02-.12-.03-.25-.03-.37,0-1.02.44-2.1,1.31-3.24.79-1.04,1.62-1.7,2.48-1.98.19-.06.37-.09.54-.1h.07c.53,0,.97.23,1.34.69.23.3.35.61.35.92-.01.22-.07.43-.17.62-.11.2-.28.41-.51.62-.23.21-.48.41-.75.59-.27.18-.56.35-.87.52-.31.17-.6.32-.88.45-.28.13-.53.25-.76.35-.23.1-.41.17-.54.22l-.22.08ZM287.89,159.74c-.12.13-.23.27-.34.4,1.51-.77,2.36-1.48,2.55-2.11-.66.2-1.4.77-2.21,1.71h0ZM300.02,159.19c-.02.06-.04.1-.05.13-.06.11-.13.17-.23.18-.25,0-.5-.17-.77-.5-.16-.2-.22-.36-.18-.49l.23-.69c-.64.12-1.38.65-2.23,1.59-.96,1.05-1.53,2.03-1.69,2.95-.03.16-.05.3-.05.44.01.28.08.52.2.72.15.03.29.05.42.05,1.08,0,2.97-.88,5.65-2.65.23-.15.58-.37,1.02-.67.73-.49,1.22-.82,1.49-.97.06-.03.1-.05.13-.05.26,0,.53.16.8.49.11.16.17.28.18.39-.01.08-.04.13-.08.15-.29.18-.81.52-1.56,1.02-2.15,1.43-3.75,2.37-4.81,2.82-.84.35-1.55.52-2.15.52-.11,0-.25-.01-.42-.03-.73-.12-1.29-.51-1.69-1.17-.19-.31-.31-.64-.35-.99-.01-.07-.02-.15-.02-.25,0-.94.44-1.98,1.32-3.14.85-1.08,1.74-1.8,2.68-2.15.3-.1.58-.15.84-.15.6.01,1.08.28,1.43.8.11.18.17.37.17.57,0,.17-.1.53-.29,1.07h0ZM308.92,145.97c.04-.07.11-.11.2-.12.25,0,.51.15.79.44.18.2.25.37.2.5l-2.77,6.94c-1.46,3.78-2.53,6.68-3.19,8.72,1.34-2.05,2.05-3.11,2.11-3.2,1.15-1.65,1.98-2.61,2.48-2.87.1-.06.22-.08.35-.08.37,0,.69.18.96.55.1.13.15.25.15.34-.01.06-.03.1-.07.12-.03.01-.07.01-.12,0-.17-.01-.4.12-.69.4-.49.47-1.25,1.46-2.28,2.98v.08c-.01.09-.02.16-.02.22.01.84.16,1.36.44,1.56.16.1.34.15.54.15.88,0,2.19-.65,3.92-1.94.79-.59,1.36-1.08,1.69-1.46.03-.04.08-.07.13-.07.21,0,.44.17.67.5.12.19.18.35.18.47-.01.07-.03.12-.05.17-.95,1.06-2.03,1.91-3.24,2.55-.94.5-1.78.75-2.53.75-.58-.01-1.1-.17-1.56-.47-.44-.3-.78-.72-1.02-1.26-1.21,1.83-2,2.96-2.36,3.39-.3.34-.53.51-.67.52-.59,0-.94-.25-1.04-.75-.01-.09-.02-.17-.02-.25,0-1.32,2.24-7.55,6.72-18.69l.07-.18Z"/>
  </g>
  <path class="cls-4" d="M114.62,162.62c-1.16,2.95-1.83,4.63-2,5.05-.04.07-.11.1-.2.1-.25,0-.5-.14-.77-.42-.13-.16-.21-.3-.22-.42,0-.04,0-.08.02-.1.45-1.06,1.19-2.91,2.23-5.55,1.99-4.98,3.37-8.3,4.14-9.94-2.01,1.83-3.88,3.95-5.6,6.34-2.46,3.44-3.69,6.25-3.71,8.43v.23c.07,1.48.96,2.36,2.68,2.65.39.07.82.1,1.27.1,1.91,0,3.99-.49,6.24-1.48,2.13-.94,3.67-2.02,4.61-3.24.29-.38.5-.75.62-1.11.17-.5.25-.94.25-1.32-.01-1.65-1.44-2.48-4.29-2.48h-.5c-.28,0-.55-.16-.82-.49-.1-.15-.16-.27-.17-.37.01-.08.06-.13.13-.17,4.64-1.54,8.02-3.11,10.14-4.69,1.36-1.03,2.23-2.2,2.6-3.52.1-.38.15-.75.15-1.12,0-.21-.02-.42-.05-.62-.26-1.46-1.27-2.48-3.05-3.03-.96-.29-2.08-.44-3.37-.44-2.92,0-6.12.67-9.62,2.01-1.98.76-3.74,1.63-5.28,2.62-1.89,1.21-3.15,2.4-3.79,3.57-.26.48-.39.94-.39,1.37,0,.08.01.2.03.37.17.77.88,1.42,2.15,1.94.36.15.59.36.69.65.02.06.03.11.03.15-.02.11-.09.17-.2.18-.09-.01-.18-.03-.27-.07-2.11-.88-3.31-2.02-3.59-3.42-.03-.17-.05-.32-.05-.47,0-1.52,1.25-3.14,3.74-4.86.19-.15.39-.28.59-.4,2.53-1.61,5.45-2.86,8.78-3.74,2.37-.63,4.54-.94,6.5-.94,1.35,0,2.55.16,3.6.47,1.68.5,2.94,1.35,3.81,2.55.47.64.76,1.32.87,2.05.04.31.07.55.07.72,0,1.53-.69,2.96-2.08,4.28-.26.23-.53.46-.8.67-1.86,1.37-4.6,2.72-8.23,4.04,1.52.39,2.61,1.04,3.27,1.94.47.65.7,1.31.7,2,0,1.51-1.07,3-3.22,4.46-1.25.86-2.55,1.52-3.89,1.98-1.83.61-3.54.92-5.11.92-1.01,0-1.91-.13-2.72-.4-2.16-.76-3.24-2.15-3.25-4.17,0-2.47,1.51-5.69,4.54-9.66,1.49-1.94,2.96-3.61,4.41-5,.85-.82,1.55-1.41,2.1-1.78.41-.29.82-.44,1.21-.44.49,0,.85.21,1.07.62.07.12.1.24.1.35-.02.18-.11.27-.25.29-.03,0-.09-.01-.17-.03-.69.6-2.59,4.86-5.7,12.77h0ZM129.81,162.2c0-1.18.55-2.92,1.64-5.21.04-.07.11-.11.18-.12.25,0,.51.15.79.45.13.16.21.29.22.4,0,.03-.01.07-.03.1-.97,2.06-1.51,3.65-1.61,4.79-.01.1-.02.2-.02.29,0,.16.02.32.07.49h.03c.93,0,2.3-.93,4.12-2.8.47-.49.87-.94,1.21-1.34.03-.04.08-.07.13-.07.19,0,.39.17.6.5.11.18.17.34.17.47-.01.06-.03.12-.07.18-2.26,2.68-4.07,4.05-5.45,4.09-.12,0-.28-.02-.47-.07-.54-.16-.95-.47-1.24-.96-.19-.31-.29-.72-.29-1.21h0ZM133.32,156.23c-.04.06-.11.09-.18.1-.25,0-.5-.15-.77-.44-.13-.17-.21-.31-.22-.42,0-.03.01-.07.03-.12l1.39-2.23c.04-.06.11-.08.2-.08.26,0,.52.15.79.45.12.15.19.27.2.39,0,.03-.01.07-.03.12l-1.41,2.23ZM136.02,158.33c.02-.99.79-1.94,2.31-2.83.04-.02.09-.03.13-.03.26,0,.53.16.8.47.11.16.17.29.18.39-.01.08-.04.13-.08.15-1.11.65-1.76,1.27-1.96,1.86-.07.19-.1.39-.1.59.01.49.22,1.15.64,1.98,1.6-.68,3.27-1.22,5.01-1.63h.08c.28,0,.55.17.82.5.1.15.16.27.17.37-.02.09-.07.15-.15.17-2.05.47-3.86,1.07-5.43,1.79.06.21.08.4.08.55,0,.83-.69,1.56-2.08,2.2-.01.01-.02.02-.03.02-.5.22-.87.34-1.09.34-.45-.02-.83-.3-1.14-.84-.08-.15-.12-.3-.12-.45.01-.79,1.04-1.68,3.08-2.67-.55-1.05-.87-1.7-.96-1.96-.12-.36-.18-.68-.18-.96h0ZM136.93,162.91c-.37.23-.71.48-1.02.74.45-.25.79-.49,1.02-.74h0ZM142.68,158.33c.02-.99.79-1.94,2.31-2.83.04-.02.09-.03.13-.03.26,0,.53.16.8.47.11.16.17.29.18.39-.01.08-.04.13-.08.15-1.11.65-1.76,1.27-1.96,1.86-.07.19-.1.39-.1.59.01.49.22,1.15.64,1.98,1.6-.68,3.27-1.22,5.01-1.63h.08c.28,0,.55.17.82.5.1.15.16.27.17.37-.02.09-.07.15-.15.17-2.05.47-3.86,1.07-5.43,1.79.06.21.08.4.08.55,0,.83-.69,1.56-2.08,2.2-.01.01-.02.02-.03.02-.5.22-.87.34-1.09.34-.45-.02-.83-.3-1.14-.84-.08-.15-.12-.3-.12-.45.01-.79,1.04-1.68,3.08-2.67-.55-1.05-.87-1.7-.96-1.96-.12-.36-.18-.68-.18-.96h0ZM143.59,162.91c-.37.23-.71.48-1.02.74.45-.25.79-.49,1.02-.74h0ZM149.01,162.2c0-1.18.55-2.92,1.64-5.21.04-.07.11-.11.18-.12.25,0,.51.15.79.45.13.16.21.29.22.4,0,.03-.01.07-.03.1-.97,2.06-1.51,3.65-1.61,4.79-.01.1-.02.2-.02.29,0,.16.02.32.07.49h.03c.93,0,2.3-.93,4.12-2.8.47-.49.87-.94,1.21-1.34.03-.04.08-.07.13-.07.19,0,.39.17.6.5.11.18.17.34.17.47-.01.06-.03.12-.07.18-2.26,2.68-4.07,4.05-5.45,4.09-.12,0-.28-.02-.47-.07-.54-.16-.95-.47-1.24-.96-.19-.31-.29-.72-.29-1.21h0ZM152.51,156.23c-.04.06-.11.09-.18.1-.25,0-.5-.15-.77-.44-.13-.17-.21-.31-.22-.42,0-.03.01-.07.03-.12l1.39-2.23c.04-.06.11-.08.2-.08.26,0,.52.15.79.45.12.15.19.27.2.39,0,.03-.01.07-.03.12l-1.41,2.23ZM153.27,163.78c0-.23,1.11-2.48,3.32-6.74.04-.06.11-.09.18-.1.25,0,.51.15.79.45.13.16.21.29.22.4,0,.03-.01.07-.03.1-.01.02-.59,1.16-1.74,3.42,2.16-2.09,3.62-3.3,4.39-3.62.09-.03.17-.06.23-.08.15-.03.27-.05.39-.05.53.01.97.23,1.32.65.29.35.44.93.44,1.74,0,.26-.06.95-.18,2.08-.01.12-.02.21-.02.27,0,.07.01.11.03.13.02.01.04.02.05.02.39,0,1.77-.89,4.14-2.67.31-.23.51-.39.6-.47.03-.02.07-.03.12-.03.2,0,.41.18.64.54.11.19.17.35.17.49-.01.08-.04.15-.08.2-1.12.92-1.9,1.52-2.35,1.81-1.04.67-1.91,1.01-2.6,1.01-.4-.01-.75-.12-1.06-.34-.53-.42-.79-1.08-.79-1.98,0-.26.02-.64.07-1.16.04-.48.07-.83.07-1.04v-.18c-.66.17-1.96,1.19-3.91,3.07-1.52,1.46-2.4,2.3-2.63,2.5-.38.31-.64.48-.77.49-.64-.06-.97-.36-1.01-.91h0ZM171.03,157.09c.35-.01.67,0,.97.05.18.04.37.15.57.3.16-.21.34-.47.54-.79.22-.34.57-.28,1.04.15.13.13.24.26.32.37.28.44.1,1.83-.54,4.17-.04.16-.09.31-.13.45,1.03-.64,2.07-1.26,3.12-1.88.48-.28.82-.48,1.02-.6.17-.1.41-.03.74.22.03.03.06.06.08.08.28.27.37.48.29.64-.02.02-.04.04-.05.05-.25.16-.59.36-1.02.6-2.01,1.18-3.62,2.17-4.81,2.95-1.32,3.98-2.73,7.14-4.22,9.49-.5.8-.99,1.46-1.48,1.96-1.23,1.27-2.4,1.4-3.52.37-3.24-2.82-.75-6.93,7.48-12.36.12-.09.32-.22.6-.4.55-1.63.94-2.93,1.17-3.89-1.51,2.01-2.77,3.19-3.77,3.54-.99.34-1.7.09-2.13-.74-.09-.2-.16-.42-.22-.65-.25-1.07.09-2.03,1.02-2.87.82-.74,1.79-1.15,2.93-1.22h0ZM165.96,174.78c.13-.12.27-.25.4-.39,1.44-1.52,2.98-4.38,4.63-8.58.09-.22.17-.44.25-.65-3.81,2.68-6.19,4.98-7.14,6.91-.65,1.34-.53,2.4.37,3.19l.07.07c.35.17.82-.01,1.43-.54h0ZM171.42,158.87c.38-.42.6-.68.67-.75-.91-.04-1.77.25-2.6.89-.85.67-1.27,1.43-1.27,2.26,0,.16.02.31.05.45.08.31,1.13-.64,3.15-2.85h0ZM178.19,162c-.18.09-.27.34-.27.75.01.39.12.63.34.7.21.07.44.1.69.1,1.41,0,3.39-.93,5.93-2.8.66-.48,1.24-.94,1.74-1.39.04-.03.09-.05.13-.05.22,0,.45.17.69.5.12.18.18.33.18.45-.01.07-.03.12-.07.17-.27.27-.86.73-1.78,1.39-2.54,1.82-4.58,2.74-6.14,2.75-.2,0-.35,0-.44-.02-1.42-.19-2.21-.84-2.36-1.94-.02-.12-.03-.25-.03-.37,0-1.02.44-2.1,1.31-3.24.79-1.04,1.62-1.7,2.48-1.98.19-.06.37-.09.54-.1h.07c.53,0,.97.23,1.34.69.23.3.35.61.35.92-.01.22-.07.43-.17.62-.11.2-.28.41-.51.62-.23.21-.48.41-.75.59-.27.18-.56.35-.87.52-.31.17-.6.32-.88.45-.28.13-.53.25-.76.35-.23.1-.41.17-.54.22l-.22.08ZM179.46,159.74c-.12.13-.23.27-.34.4,1.51-.77,2.36-1.48,2.55-2.11-.66.2-1.4.77-2.21,1.71h0ZM184.45,163.78c0-.23,1.11-2.48,3.32-6.74.04-.06.11-.09.18-.1.25,0,.51.15.79.45.13.16.21.29.22.4,0,.03-.01.07-.03.1-.01.02-.59,1.16-1.74,3.42,2.16-2.09,3.62-3.3,4.39-3.62.09-.03.17-.06.23-.08.15-.03.27-.05.39-.05.53.01.97.23,1.32.65.29.35.44.93.44,1.74,0,.26-.06.95-.18,2.08-.01.12-.02.21-.02.27,0,.07.01.11.03.13.02.01.04.02.05.02.39,0,1.77-.89,4.14-2.67.31-.23.51-.39.6-.47.03-.02.07-.03.12-.03.2,0,.41.18.64.54.11.19.17.35.17.49-.01.08-.04.15-.08.2-1.12.92-1.9,1.52-2.35,1.81-1.04.67-1.91,1.01-2.6,1.01-.4-.01-.75-.12-1.06-.34-.53-.42-.79-1.08-.79-1.98,0-.26.02-.64.07-1.16.04-.48.07-.83.07-1.04v-.18c-.66.17-1.96,1.19-3.91,3.07-1.52,1.46-2.4,2.3-2.63,2.5-.38.31-.64.48-.77.49-.64-.06-.97-.36-1.01-.91h0ZM211.56,157.71c.2.27.25.53.15.79-.09.21-.35.17-.77-.13-.04-.04-.08-.08-.12-.1-.8.23-1.56.68-2.26,1.34-.67.66-1.01,1.3-1.02,1.93,0,.18.02.34.07.47h.07c.26,0,.61-.16,1.07-.47.46-.31.94-.72,1.46-1.22.51-.5.89-.86,1.11-1.1.23-.23.44-.46.65-.67l.02-.02c.11-.13.33-.09.65.12.04.03.09.07.13.1.26.21.38.41.37.6,0,.07-.06.37-.17.91-.03.18-.05.33-.05.45.01.21.06.37.15.47.1.09.21.13.32.13.34-.01.96-.3,1.86-.86,1.11-.68,2.62-1.83,4.54-3.45.03-.03.08-.05.15-.05.25,0,.51.15.79.45.13.16.21.29.22.4,0,.04,0,.07-.02.08,0,.01-.05.11-.15.3-.65,1.25-1.18,2.29-1.61,3.12.1-.1.29-.29.55-.55,1.32-1.35,2.36-2.25,3.12-2.68.55-.31,1.03-.47,1.46-.47.35.01.65.12.92.32.49.4.74,1.02.74,1.86,0,.22-.02.57-.07,1.04-.03.44-.05.75-.05.96,0,.26.01.45.03.57.88-.16,2.43-1.15,4.63-2.97.02-.03.04-.06.07-.07.06-.03.11-.05.17-.05.25,0,.5.16.75.47.11.15.17.27.18.39-.01.07-.03.11-.07.13-1.25,1.04-2.17,1.74-2.75,2.11-1.02.66-1.84.99-2.46.99-.2,0-.37-.03-.52-.1-.84-.36-1.26-1.16-1.26-2.41,0-.21.06-.82.17-1.81.01-.11.02-.2.02-.25-.01-.09-.03-.14-.05-.15-.7,0-2.07,1.02-4.09,3.07-.22.23-.56.58-1.01,1.04-1.16,1.21-1.85,1.85-2.06,1.93-.01.01-.02.02-.03.02h-.07c-.31,0-.6-.12-.87-.35-.13-.12-.21-.25-.22-.37,0-.03.01-.08.03-.13-.02-.18.56-1.42,1.76-3.72-.67.51-1.31.96-1.91,1.32-.98.59-1.79.89-2.41.89-.28,0-.53-.06-.75-.17-.64-.34-1.03-.84-1.19-1.53-1.62,1.49-2.91,2.24-3.87,2.25-.25-.01-.48-.07-.69-.18-.49-.31-.81-.72-.96-1.22-.04-.15-.07-.31-.07-.49,0-.82.43-1.64,1.29-2.46.8-.78,1.63-1.22,2.46-1.32.1-.01.19-.02.27-.02.5.01.9.19,1.19.54h0ZM244.83,159.03c.12-.34.25-.69.39-1.06-.01-.01-.03-.03-.07-.05-.02-.01-.04-.02-.05-.03-.04.09-.13.26-.27.5-1.27,2.36-2.35,3.92-3.24,4.68-.51.44-.98.65-1.41.65-.29-.01-.55-.09-.77-.25-.63-.5-.94-1.26-.96-2.28,0-.53.11-1.08.32-1.66.53-1.39,1.31-2.34,2.35-2.87.49-.25,1.01-.37,1.54-.37.49,0,.99.11,1.51.32,1.64-2.96,3.35-6.43,5.13-10.39l.03-.05c.04-.07.11-.11.2-.12.25,0,.51.13.79.4.18.18.25.33.2.45-1.72,4.29-3.35,8.76-4.88,13.41-1.56,4.77-2.35,7.87-2.35,9.3,0,.07.01.15.03.25.01.09.02.16.02.2-.02.1-.09.16-.2.17-.26,0-.52-.13-.79-.4-.12-.13-.2-.26-.22-.39-.02-.11-.03-.29-.03-.54,0-1.51.91-4.81,2.72-9.89h0ZM239.64,162.74c.85-.26,2.22-2.05,4.12-5.36-.13-.02-.23-.03-.3-.03-.97,0-1.88.56-2.72,1.69-.69.94-1.09,1.87-1.19,2.8-.01.11-.02.21-.02.3,0,.23.03.44.1.6h0ZM249.57,162c-.18.09-.27.34-.27.75.01.39.12.63.34.7.21.07.44.1.69.1,1.41,0,3.39-.93,5.93-2.8.66-.48,1.24-.94,1.74-1.39.04-.03.09-.05.13-.05.22,0,.45.17.69.5.12.18.18.33.18.45-.01.07-.03.12-.07.17-.27.27-.86.73-1.78,1.39-2.54,1.82-4.58,2.74-6.14,2.75-.2,0-.35,0-.44-.02-1.42-.19-2.21-.84-2.36-1.94-.02-.12-.03-.25-.03-.37,0-1.02.44-2.1,1.31-3.24.79-1.04,1.62-1.7,2.48-1.98.19-.06.37-.09.54-.1h.07c.53,0,.97.23,1.34.69.23.3.35.61.35.92-.01.22-.07.43-.17.62-.11.2-.28.41-.51.62-.23.21-.48.41-.75.59-.27.18-.56.35-.87.52-.31.17-.6.32-.88.45-.28.13-.53.25-.76.35-.23.1-.41.17-.54.22l-.22.08ZM250.85,159.74c-.12.13-.23.27-.34.4,1.51-.77,2.36-1.48,2.55-2.11-.66.2-1.4.77-2.21,1.71h0ZM263.87,162.1c1.44-1.58,2.27-2.48,2.5-2.7.16-.15.38-.07.67.23.29.3.38.54.27.7-.02.01-.03.02-.03.03-.09.08-.84.89-2.25,2.45-2.46,2.69-4.16,4.17-5.1,4.43-.21.04-.39.04-.54,0-.37-.13-.67-.37-.91-.7-.42-.64.05-2.21,1.43-4.71.1-.19.26-.47.47-.84.28-.5.46-.84.55-1.02-1.37.41-2.44.36-3.19-.15-.7-.48-.97-1.17-.8-2.08.12-.7.44-1.25.96-1.63.17-.12.34-.21.5-.25.46-.13.9.02,1.32.47.23.26.39.53.45.8.09.5-.04,1.13-.4,1.88.09-.02.25-.08.49-.17.56-.2.92-.3,1.07-.3.53.04.89.32,1.11.82.12.34-.27,1.34-1.17,3.02-.93,1.73-1.48,2.81-1.64,3.22-.09.25-.15.45-.18.6.75-.35,2.22-1.72,4.43-4.11h0ZM258.04,158.93c-.01.12,0,.2.02.23.53-.8.84-1.5.94-2.08-.26.21-.48.53-.67.94-.12.25-.22.55-.29.91h0ZM286.01,145.14c.04-.07.11-.11.2-.12.25,0,.5.15.77.44.13.17.21.31.22.42,0,.04,0,.07-.02.08l-.02.03c5.93-.66,10.26-.99,12.98-.99,1.41,0,2.41.09,3.02.27.34.1.59.3.75.6.04.09.07.17.07.23-.02.11-.09.17-.2.18-.03,0-.09-.01-.17-.03-.55-.16-1.47-.23-2.77-.23-2.87,0-7.6.39-14.18,1.16-4.05,9.47-6.66,16.22-7.85,20.25-.38,1.3-.57,2.21-.57,2.73v.07s.02.04.02.05c-.02.11-.09.17-.2.18-.29,0-.56-.15-.8-.45-.13-.17-.2-.34-.2-.5,0-1.94,2.27-8.38,6.81-19.31.4-.96.8-1.91,1.19-2.83-1.58.19-3.23.4-4.95.63-1.73.23-3.25.44-4.58.63-1.32.19-2.53.37-3.63.53-1.1.16-1.94.29-2.55.38l-.91.13h-.07c-.28,0-.55-.17-.82-.5-.1-.15-.16-.27-.17-.37.02-.09.08-.15.17-.17l.5-.07c6.49-.98,12.33-1.78,17.5-2.38l.45-1.04ZM286.62,162c-.18.09-.27.34-.27.75.01.39.12.63.34.7.21.07.44.1.69.1,1.41,0,3.39-.93,5.93-2.8.66-.48,1.24-.94,1.74-1.39.04-.03.09-.05.13-.05.22,0,.45.17.69.5.12.18.18.33.18.45-.01.07-.03.12-.07.17-.27.27-.86.73-1.78,1.39-2.54,1.82-4.58,2.74-6.14,2.75-.2,0-.35,0-.44-.02-1.42-.19-2.21-.84-2.36-1.94-.02-.12-.03-.25-.03-.37,0-1.02.44-2.1,1.31-3.24.79-1.04,1.62-1.7,2.48-1.98.19-.06.37-.09.54-.1h.07c.53,0,.97.23,1.34.69.23.3.35.61.35.92-.01.22-.07.43-.17.62-.11.2-.28.41-.51.62-.23.21-.48.41-.75.59-.27.18-.56.35-.87.52-.31.17-.6.32-.88.45-.28.13-.53.25-.76.35-.23.1-.41.17-.54.22l-.22.08ZM287.89,159.74c-.12.13-.23.27-.34.4,1.51-.77,2.36-1.48,2.55-2.11-.66.2-1.4.77-2.21,1.71h0ZM300.02,159.19c-.02.06-.04.1-.05.13-.06.11-.13.17-.23.18-.25,0-.5-.17-.77-.5-.16-.2-.22-.36-.18-.49l.23-.69c-.64.12-1.38.65-2.23,1.59-.96,1.05-1.53,2.03-1.69,2.95-.03.16-.05.3-.05.44.01.28.08.52.2.72.15.03.29.05.42.05,1.08,0,2.97-.88,5.65-2.65.23-.15.58-.37,1.02-.67.73-.49,1.22-.82,1.49-.97.06-.03.1-.05.13-.05.26,0,.53.16.8.49.11.16.17.28.18.39-.01.08-.04.13-.08.15-.29.18-.81.52-1.56,1.02-2.15,1.43-3.75,2.37-4.81,2.82-.84.35-1.55.52-2.15.52-.11,0-.25-.01-.42-.03-.73-.12-1.29-.51-1.69-1.17-.19-.31-.31-.64-.35-.99-.01-.07-.02-.15-.02-.25,0-.94.44-1.98,1.32-3.14.85-1.08,1.74-1.8,2.68-2.15.3-.1.58-.15.84-.15.6.01,1.08.28,1.43.8.11.18.17.37.17.57,0,.17-.1.53-.29,1.07h0ZM308.92,145.97c.04-.07.11-.11.2-.12.25,0,.51.15.79.44.18.2.25.37.2.5l-2.77,6.94c-1.46,3.78-2.53,6.68-3.19,8.72,1.34-2.05,2.05-3.11,2.11-3.2,1.15-1.65,1.98-2.61,2.48-2.87.1-.06.22-.08.35-.08.37,0,.69.18.96.55.1.13.15.25.15.34-.01.06-.03.1-.07.12-.03.01-.07.01-.12,0-.17-.01-.4.12-.69.4-.49.47-1.25,1.46-2.28,2.98v.08c-.01.09-.02.16-.02.22.01.84.16,1.36.44,1.56.16.1.34.15.54.15.88,0,2.19-.65,3.92-1.94.79-.59,1.36-1.08,1.69-1.46.03-.04.08-.07.13-.07.21,0,.44.17.67.5.12.19.18.35.18.47-.01.07-.03.12-.05.17-.95,1.06-2.03,1.91-3.24,2.55-.94.5-1.78.75-2.53.75-.58-.01-1.1-.17-1.56-.47-.44-.3-.78-.72-1.02-1.26-1.21,1.83-2,2.96-2.36,3.39-.3.34-.53.51-.67.52-.59,0-.94-.25-1.04-.75-.01-.09-.02-.17-.02-.25,0-1.32,2.24-7.55,6.72-18.69l.07-.18Z"/>
</svg>