<?xml version="1.0" encoding="UTF-8" standalone="no"?> <!-- Created with Vectornator for iOS (http://vectornator.io/) --><!DOCTYPE svg PUBLIC "-//W3C//DTD SVG 1.1//EN" "http://www.w3.org/Graphics/SVG/1.1/DTD/svg11.dtd">
<svg height="100%" style="fill-rule:evenodd;clip-rule:evenodd;stroke-linecap:round;stroke-linejoin:round;" xmlns:xlink="http://www.w3.org/1999/xlink" xmlns="http://www.w3.org/2000/svg" xml:space="preserve" width="100%" xmlns:vectornator="http://vectornator.io" version="1.1" viewBox="0 0 1024 1024">
<metadata>
<vectornator:setting key="DimensionsVisible" value="1"/>
<vectornator:setting key="PencilOnly" value="0"/>
<vectornator:setting key="SnapToPoints" value="0"/>
<vectornator:setting key="OutlineMode" value="0"/>
<vectornator:setting key="CMYKEnabledKey" value="0"/>
<vectornator:setting key="RulersVisible" value="1"/>
<vectornator:setting key="SnapToEdges" value="0"/>
<vectornator:setting key="GuidesVisible" value="1"/>
<vectornator:setting key="DisplayWhiteBackground" value="0"/>
<vectornator:setting key="doHistoryDisabled" value="0"/>
<vectornator:setting key="SnapToGuides" value="1"/>
<vectornator:setting key="TimeLapseWatermarkDisabled" value="0"/>
<vectornator:setting key="Units" value="Pixels"/>
<vectornator:setting key="DynamicGuides" value="0"/>
<vectornator:setting key="IsolateActiveLayer" value="0"/>
<vectornator:setting key="SnapToGrid" value="0"/>
</metadata>
<defs/>
<g id="Ebene 1" vectornator:layerName="Ebene 1">
<path stroke="#ffffff" stroke-width="7" d="M194.129+1063.25C173.234+1029.9+321.939+947.101+348.32+896.525C359.751+874.61+334.299+860.166+334.299+860.166C334.299+860.166+316.389+827.995+305.951+815.965C287.532+794.735+272.408+813.085+260.388+810.744C248.369+808.402+248.82+795.828+237.893+793.486C226.966+791.145+224.437+799.107+214.915+796.142C205.393+793.176+206.829+786.618+199.805+781.623C192.78+776.628+188.254+783.965+180.449+777.877C172.644+771.789+176.702+761.799+168.585+757.272C160.468+752.745+162.178+767.167+147.98+759.769C133.783+752.372+146.434+746.32+110.219+731.022C74.0046+715.725+7.94644+728.541-27.0194+671.721C-61.9853+614.902-42.4897+492.714+4.37073+510.638C51.2312+528.561+177.163+641.034+182.322+598.052C187.481+555.071+261.381+480.008+270.361+471.301C279.341+462.594+257.717+451.789+256+437.584C254.283+423.379+264.429+428.53+263.493+414.482C262.556+400.433+251.785+397.311+252.254+381.389C252.722+365.467+262.712+364.686+265.366+350.794C268.02+336.901+260.839+337.369+262.868+325.818C264.898+314.267+270.517+315.984+273.483+304.589C276.449+293.194+271.454+292.101+274.732+280.238C278.01+268.374+277.854+268.218+286.595+257.135C295.337+246.052+296.571+233.205+307.45+169.621C318.33+106.036+298.975+18.5482+334.846-38.8242C351.4-65.3+368.071-41.9125+389.548-41.938C414.611-41.9678+461.635-56.1553+475.29-30.1241C500.648+18.2136+432.136+157.441+431.542+196.148C430.949+234.854+437.122+163.024+450.806+161.242C464.067+159.517+464.792+165.169+470.491+157.033C476.19+148.897+468.074+140.209+473.601+128.7C479.129+117.191+481.915+115.988+492.601+110.997C503.288+106.007+509.901+115.224+516.348+108.739C522.795+102.254+512.691+93.1937+518.39+85.058C521.09+81.2036+528.61+74.784+536.65+74.1708C545.581+73.4896+555.071+78.6665+557.527+74.6943C562.194+67.1461+547.659+56.2081+557.81+46.0029C567.96+35.7977+581.054+44.8775+598.128+33.8737C615.202+22.8698+682.077-69.9129+743.931-77.7706C805.786-85.6282+825.03-38.619+845.546+2.44312C855.958+23.2823+789.511+63.8937+774.678+80.7451C759.844+97.5965+721.114+117.562+706.352+139.505C695.904+155.036+718.244+137.415+726.167+140.872C752.091+152.183+727.621+176.478+735.041+171.566C747.204+163.514+746.174+165.524+756.913+168.885C767.652+172.247+761.877+192.624+768.607+194.111C775.337+195.597+778.31+182.137+788.312+184.567C798.314+186.998+801.387+205.269+807.516+215.561C813.645+225.854+823.106+205.066+835.84+228.771C849.508+254.216+1041.6+219.876+1082.83+207.831C1105.05+201.336+1142.38+390.158+1091.03+427.157C1039.67+464.155+891.028+348.522+830.022+371.813C810.704+379.188+822.757+401.592+821.139+429.206C818.905+467.355+820.861+459.472+805.808+494.831C790.756+530.191+771.751+551.174+775.594+555.34C780.548+560.712+787.553+557.018+798.436+568.199C807.88+577.904+788.299+595.979+790.116+603.653C793.264+616.942+809.922+614.008+819.713+626.946C829.504+639.885+823.337+642.294+829.281+655.407C831.629+660.586+839.993+664.078+843.352+671.817C848.498+683.673+847.586+700.231+839.812+706.895C837.196+709.138+1055.46+1000.11+1052.11+1057.85C1047.57+1136.18+845.123+1096.34+822.987+1019.78C804.432+955.604+794.935+912.318+766.785+864.061C738.635+815.804+704.171+825.621+704.171+825.621C687.668+830.46+649.708+860.18+632.84+865.646C615.575+871.24+589.01+864.283+579.918+878.97C570.826+893.656+591.755+901.362+571.361+917.853C564.429+923.459+555.302+912.777+546.734+919.071C538.167+925.365+547.958+937.954+537.643+946.347C527.327+954.739+517.32+938.528+509.802+946.396C502.283+954.264+519.971+955.627+507.569+977.818C502.305+987.238+486.199+979.199+477.496+985.511C461.795+996.9+430.148+1061.18+360.881+1069.37C327.461+1073.32+204.942+1080.51+194.129+1063.25Z" fill="#020066" stroke-linecap="butt" opacity="1" stroke-linejoin="miter"/>
<path stroke="#ffffff" stroke-width="7" d="M431.807+207.564C431.807+207.564+492.956+240.692+527.638+274.855C562.321+309.019+575.212+344.562+575.212+344.562" fill="#020066" stroke-linecap="butt" opacity="1" stroke-linejoin="miter"/>
<path stroke="#ffffff" stroke-width="7" d="M733.466+171.394C733.466+171.394+722.423+200.102+709.033+234.316C695.644+268.53+681.234+303.262+683.321+322.109" fill="#ffffff" stroke-linecap="round" fill-opacity="0" opacity="1" stroke-linejoin="miter"/>
<path stroke="#ffffff" stroke-width="7" d="M834.796+228.567C834.796+228.567+834.923+274.75+831.098+313.739C827.273+352.728+822.774+377.39+822.774+377.39" fill="#020066" stroke-linecap="round" fill-opacity="0" opacity="1" stroke-linejoin="miter"/>
<path stroke="#ffffff" stroke-width="7" d="M178.978+606.275C178.978+606.275+156.612+642.357+147.566+679.697C138.519+717.038+142.793+755.636+142.793+755.636" fill="#020066" stroke-linecap="round" fill-opacity="0" opacity="1" stroke-linejoin="miter"/>
<path stroke="#ffffff" stroke-width="7" d="M401.244+467.386C401.244+467.386+360.995+475.178+329.604+475.033C298.214+474.888+272.507+468.38+272.507+468.38" fill="#020066" stroke-linecap="round" fill-opacity="0" opacity="1" stroke-linejoin="miter"/>
<path stroke="#ffffff" stroke-width="7" d="M264.191+416.634C264.191+416.634+280.603+413.736+290.952+414.016C301.302+414.297+330.008+405.791+342.46+406.857C368.078+409.052+366.662+425.412+366.662+425.412" fill="#ffffff" stroke-linecap="round" fill-opacity="0" opacity="1" stroke-linejoin="miter"/>
<path stroke="#ffffff" stroke-width="7" d="M264.518+356.015C264.518+356.015+271.628+349.526+288.757+345.75C305.886+341.974+334.226+341.565+334.226+341.565" fill="#ffffff" stroke-linecap="round" fill-opacity="0" opacity="1" stroke-linejoin="miter"/>
<path stroke="#ffffff" stroke-width="7" d="M274.364+302.101C274.364+302.101+287.134+292.973+303.692+287.95C320.25+282.926+343.898+282.981+343.898+282.981" fill="#ffffff" stroke-linecap="round" fill-opacity="0" opacity="1" stroke-linejoin="miter"/>
<path stroke="#ffffff" stroke-width="7" d="M768.423+193.936C768.423+193.936+745.082+255.5+736.651+293.087C728.221+330.674+731.214+344.431+731.214+344.431" fill="#ffffff" stroke-linecap="round" fill-opacity="0" opacity="1" stroke-linejoin="miter"/>
<path stroke="#ffffff" stroke-width="7" d="M809.391+217.738C809.391+217.738+785.833+286.952+777.459+326.302C769.084+365.652+773.146+375.928+773.146+375.928" fill="#ffffff" stroke-linecap="round" fill-opacity="0" opacity="1" stroke-linejoin="miter"/>
<path stroke="#ffffff" stroke-width="7" d="M291.77+248.132C291.77+248.132+349.618+216.085+385.058+204.717C420.499+193.349+431.938+207.564+431.938+207.564" fill="#020066" stroke-linecap="round" fill-opacity="0" opacity="1" stroke-linejoin="miter"/>
<path stroke="#ffffff" stroke-width="7" d="M466.249+161.439C466.249+161.439+478.31+157.419+495.039+169.476C511.767+181.533+533.163+209.666+533.163+209.666" fill="#ffffff" stroke-linecap="round" fill-opacity="0" opacity="1" stroke-linejoin="miter"/>
<path stroke="#ffffff" stroke-width="7" d="M517.148+109.367L561.192+152.397" fill="#ffffff" stroke-linecap="round" fill-opacity="0" opacity="1" stroke-linejoin="miter"/>
<path stroke="#ffffff" stroke-width="7" d="M578.389+880.611C578.389+880.611+562.18+858.257+546.974+822.882C531.767+787.508+504.424+760.602+504.424+760.602" fill="#020066" stroke-linecap="round" fill-opacity="0" opacity="1" stroke-linejoin="miter"/>
<path stroke="#ffffff" stroke-width="7" d="M724.151+826.928C735.278+816.555+784.606+802.621+804.671+785.619C833.033+761.585+837.864+730.83+831.573+726.778C823.448+721.545+820.303+725.608+808.578+734.751C795.662+744.823+780.209+754.156+778.534+755.746C768.445+765.321+721.759+778.173+722.691+775.846C723.754+773.19+747.934+772.958+778.183+756.093C799.601+744.151+827.907+714.317+839.945+707.351" fill="#020066" stroke-linecap="round" fill-opacity="0" opacity="1" stroke-linejoin="miter"/>
<path stroke="#ffffff" stroke-width="7" d="M713.783+718.947C713.783+718.947+747.404+711.069+776.673+695.666C805.942+680.263+830.012+658.13+830.012+658.13" fill="#020066" stroke-linecap="round" fill-opacity="0" opacity="1" stroke-linejoin="miter"/>
<path stroke="#ffffff" stroke-width="7" d="M791.581+607.986C791.581+607.986+784.709+610.707+762.485+625.358C740.26+640.01+701.571+657.068+701.571+657.068L757.782+630.969L792.756+610.04" fill="#020066" stroke-linecap="round" fill-opacity="0" opacity="1" stroke-linejoin="miter"/>
<path stroke="#ffffff" stroke-width="7" d="M775.432+553.678C775.432+553.678+724.262+572.593+695.479+591.836C666.695+611.079+642.028+623.162+642.028+623.162" fill="#020066" stroke-linecap="round" fill-opacity="0" opacity="1" stroke-linejoin="miter"/>
<path stroke="#ffffff" stroke-width="7" d="M167.074+755.803C167.074+755.803+173.182+725.237+185.932+685.467C191.504+668.089+193.789+662.759+211.537+634.81C229.285+606.861+223.642+595.379+226.697+586.403" fill="#020066" stroke-linecap="round" fill-opacity="0" opacity="1" stroke-linejoin="miter"/>
<path stroke="#ffffff" stroke-width="7" d="M200.03+782.034C200.03+782.034+207.955+747.179+221.061+712.136C230.112+687.933+245.143+662.279+247.411+653.52C252.961+632.078+256.785+624.482+256.785+624.482" fill="#020066" stroke-linecap="round" fill-opacity="0" opacity="1" stroke-linejoin="miter"/>
<path stroke="#ffffff" stroke-width="7" d="M372.59+657.505C346.014+721.148+491.484+713.455+500.576+749.823C509.668+786.19+500.401+725.344+534.845+695.971C569.289+666.597+620.343+672.542+638.352+632.328C656.361+592.114+614.049+597.534+606.881+535.115C599.712+472.696+620.169+424.614+609.678+382.651C599.187+340.689+591.145+330.198+552.329+346.983C513.514+363.768+492.183+419.543+454.417+449.791C416.651+480.039+396.369+462.38+401.265+467.975C406.16+473.57+399.167+593.862+372.59+657.505Z" fill="#ffffff" stroke-linecap="butt" fill-opacity="0.982323" opacity="1" stroke-linejoin="miter"/>
<path stroke="#ffffff" stroke-width="7" d="M240.026+793.779C240.026+793.779+249.273+775.844+262.378+740.801C271.43+716.599+292.521+658.157+294.788+649.398" fill="#020066" stroke-linecap="round" fill-opacity="0" opacity="1" stroke-linejoin="miter"/>
<path stroke="#ffffff" stroke-width="7" d="M281.546+805.977C281.546+805.977+308.781+771.657+321.887+736.614C330.938+712.412+348.183+658.393+348.183+658.393" fill="#020066" stroke-linecap="round" fill-opacity="0" opacity="1" stroke-linejoin="miter"/>
<path stroke="#ffffff" stroke-width="7" d="M546.418+918.943C546.418+918.943+540.404+896.44+522.776+863.44C510.602+840.649+492.981+821.66+487.908+814.168C475.49+795.828+475.39+782.331+475.39+782.331" fill="#020066" stroke-linecap="round" fill-opacity="0" opacity="1" stroke-linejoin="miter"/>
<path stroke="#ffffff" stroke-width="7" d="M507.408+950.13C507.408+950.13+502.117+930.992+486.683+900.178C476.023+878.896+460.596+861.164+456.154+854.168C445.282+837.043+445.195+824.44+445.195+824.44" fill="#020066" stroke-linecap="round" fill-opacity="0" opacity="1" stroke-linejoin="miter"/>
<path stroke="#ffffff" stroke-width="7" d="M480.204+982.644C480.204+982.644+473.525+962.158+455.896+929.157C443.722+906.366+426.101+887.377+421.028+879.885C408.61+861.545+393.863+854.314+393.863+854.314" fill="#020066" stroke-linecap="round" fill-opacity="0" opacity="1" stroke-linejoin="miter"/>
<path stroke="#ffffff" stroke-width="7" d="M474.137+987.863C474.137+987.863+444.841+991.918+427.213+958.918C415.039+936.126+357.433+891.104+352.36+883.612" fill="#020066" stroke-linecap="round" fill-opacity="0" opacity="1" stroke-linejoin="miter"/>
<path stroke="#ffffff" stroke-width="7" d="M553.036+76.5011C553.036+76.5011+568.707+84.0403+580.172+93.9423C591.638+103.844+598.803+114.466+598.803+114.466" fill="#ffffff" stroke-linecap="round" fill-opacity="0" opacity="1" stroke-linejoin="miter"/>
<path stroke="#ffffff" stroke-width="7" d="M597.183+34.1817C597.183+34.1817+632.092+57.5801+658.326+85.0898C684.56+112.6+703.853+145.66+703.853+145.66C703.853+145.66+680.3+167.217+656.837+226.563C633.373+285.91+608.691+379.325+608.691+379.325" fill="#ffffff" stroke-linecap="round" fill-opacity="0" opacity="1" stroke-linejoin="miter"/>
<path stroke="#ffffff" stroke-width="7" d="M348.817+659.444C348.817+659.444+355.551+671.952+375.102+681.868" fill="#020066" stroke-linecap="butt" opacity="1" stroke-linejoin="miter"/>
</g>
</svg>
