<?xml version="1.0" encoding="UTF-8" standalone="no"?> <!-- Created with Vectornator for iOS (http://vectornator.io/) --><!DOCTYPE svg PUBLIC "-//W3C//DTD SVG 1.1//EN" "http://www.w3.org/Graphics/SVG/1.1/DTD/svg11.dtd">
<svg height="100%" style="fill-rule:evenodd;clip-rule:evenodd;stroke-linecap:round;stroke-linejoin:round;" xmlns:xlink="http://www.w3.org/1999/xlink" xmlns="http://www.w3.org/2000/svg" xml:space="preserve" width="100%" xmlns:vectornator="http://vectornator.io" version="1.1" viewBox="0 0 1024 1024">
<metadata>
<vectornator:setting key="DimensionsVisible" value="1"/>
<vectornator:setting key="PencilOnly" value="0"/>
<vectornator:setting key="SnapToPoints" value="0"/>
<vectornator:setting key="OutlineMode" value="0"/>
<vectornator:setting key="CMYKEnabledKey" value="0"/>
<vectornator:setting key="RulersVisible" value="1"/>
<vectornator:setting key="SnapToEdges" value="0"/>
<vectornator:setting key="GuidesVisible" value="1"/>
<vectornator:setting key="DisplayWhiteBackground" value="0"/>
<vectornator:setting key="doHistoryDisabled" value="0"/>
<vectornator:setting key="SnapToGuides" value="1"/>
<vectornator:setting key="TimeLapseWatermarkDisabled" value="0"/>
<vectornator:setting key="Units" value="Pixels"/>
<vectornator:setting key="DynamicGuides" value="0"/>
<vectornator:setting key="IsolateActiveLayer" value="0"/>
<vectornator:setting key="SnapToGrid" value="0"/>
</metadata>
<defs/>
<g id="Ebene 1" vectornator:layerName="Ebene 1">
<path stroke="#ffffff" stroke-width="7" d="M330.97+976.041C371.49+922.608+432.031+858.342+438.403+849.933C441.79+845.463+445.516+846.252+450.85+841.878C456.184+837.504+454.461+830.435+455.437+830.57C473.743+833.092+472.823+836.265+484.331+829.348C496.1+822.273+500.189+799.676+500.189+799.676C500.189+799.676+512.388+807.451+530.325+793.414C534.825+789.891+538.78+765.448+538.78+765.448C538.78+765.448+560.152+764.424+566.885+745.058C573.619+725.692+567.538+711.923+565.193+707.518C561.323+700.247+570.089+695.646+571.87+694.902C593.999+685.663+626.892+652.257+639.269+631.472C653.286+607.932+667.103+565.996+673.952+551.439C675.805+547.501+692.821+557.843+701.404+566.677C741.38+607.825+802.99+654.953+872.701+699.781C931.94+648.498+1028.5+581.118+1005.39+527.534C997.557+509.356+841.35+461.936+732.557+408.19C708.901+396.503+733.493+396.642+717.882+379.786C702.27+362.931+691.096+371.017+691.096+371.017C691.096+371.017+689.7+360.043+676.254+353.729C662.809+347.414+648.772+347.379+648.772+347.379C648.772+347.379+640.122+330.482+618.829+324.81C612.236+323.054+593.341+331.102+593.341+331.102C593.341+331.102+580.256+312.171+556.366+309.791C547.445+308.903+531.623+317.804+531.623+317.804C531.623+317.804+468.741+299.228+429.436+291.612C390.706+284.107+340.121+288.236+324.701+286.679C308.427+285.037+338.999+38.0052+309.251+35.7601C243.67+30.8106+192.374+16.403+140.994+65.5554C94.2416+110.282+156.128+302.151+154.246+317.255C153.521+323.068+142.795+327.621+140.502+331.027C134.645+339.725+129.874+349.027+130.715+355.594C131.735+363.561+143.849+372.201+143.849+372.201C143.849+372.201+135.631+384.964+137.66+392.581C139.688+400.198+152.532+410.91+152.532+410.91C152.532+410.91+142.655+417.822+142.655+433.133C142.655+448.443+158.481+455.019+158.481+455.019C158.481+455.019+143.431+469.993+152.869+486.109C154.946+489.657+173.193+498.74+184.06+499.344C195.114+499.958+185+499.499+190.292+545.344C195.585+591.188+204.147+629.563+233.824+666.237C262.612+701.813+289.925+724.99+305.11+733.749C308.778+735.864+282.849+758.01+262.244+780.488C241.639+802.966+93.1816+929.046+53.6009+962.997C5.75914+1004.04+300.672+1015.99+330.97+976.041Z" fill="#020066" stroke-linecap="round" opacity="1" stroke-linejoin="miter"/>
<path stroke="#ffffff" stroke-width="7" d="M356.496+495.28C366.889+493.451+444.376+490.516+447.601+494.42C451.237+498.821+447.174+527.889+446.851+550.237C446.579+569.008+451.414+575.189+451.414+579.575C451.414+580.553+414.577+543.093+410.015+537.85C402.159+528.821+352.069+496.059+356.496+495.28Z" fill="#ffffff" stroke-linecap="butt" fill-opacity="0.982323" opacity="1" stroke-linejoin="miter"/>
<path stroke="#ffffff" stroke-width="7" d="M142.266+370.948C142.266+370.948+189.868+356.163+224.492+347.643C259.117+339.122+265.708+338.063+294.417+327.767" fill="#ffffff" stroke-linecap="round" fill-opacity="0.0169059" opacity="1" stroke-linejoin="miter"/>
<path stroke="#ffffff" stroke-width="7" d="M141.201+329.647C141.201+329.647+167.677+314.07+213.918+297.228C260.158+280.386+326.381+286.83+326.381+286.83" fill="#ffffff" stroke-linecap="round" fill-opacity="0.0169059" opacity="1" stroke-linejoin="miter"/>
<path stroke="#ffffff" stroke-width="7" d="M305.565+733.906C305.565+733.906+339.006+751.647+361.134+773.426C380.29+792.279+409.876+820.805+415.326+825.703C428.395+837.448+430.9+845.186+444.129+845.399" fill="#ffffff" stroke-linecap="round" fill-opacity="0.0169059" opacity="1" stroke-linejoin="miter"/>
<path stroke="#ffffff" stroke-width="7" d="M454.854+831.267C455.01+815.741+430.959+773.035+407.212+750.639C371.574+717.03+343.326+700.183+343.326+700.183" fill="#ffffff" stroke-linecap="round" fill-opacity="0.0169059" opacity="1" stroke-linejoin="miter"/>
<path stroke="#ffffff" stroke-width="7" d="M500.662+804.209C500.662+804.209+491.59+776.795+465.465+744.334C439.341+711.873+390.24+669.64+390.24+669.64" fill="#ffffff" stroke-linecap="round" fill-opacity="0.0169059" opacity="1" stroke-linejoin="miter"/>
<path stroke="#ffffff" stroke-width="7" d="M538.559+773.844C538.559+773.844+537.304+747.432+514.859+722.56C492.413+697.688+434.362+641.682+434.362+641.682" fill="#ffffff" stroke-linecap="round" fill-opacity="0.0169059" opacity="1" stroke-linejoin="miter"/>
<path stroke="#ffffff" stroke-width="7" d="M567.504+710.872C567.504+710.872+547.364+679.837+508.888+644.417C485.917+623.271+449.132+577.946+449.132+577.946" fill="#ffffff" stroke-linecap="round" fill-opacity="0.0169059" opacity="1" stroke-linejoin="miter"/>
<path stroke="#ffffff" stroke-width="7" d="M672.601+554.755C672.601+554.755+712.111+434.937+722.026+397.609" fill="#ffffff" stroke-linecap="round" fill-opacity="0.0169059" opacity="1" stroke-linejoin="miter"/>
<path stroke="#ffffff" stroke-width="7" d="M634.607+478.046C642.356+444.467+692.737+369.425+692.737+369.425" fill="#ffffff" stroke-linecap="round" fill-opacity="0.0169059" opacity="1" stroke-linejoin="miter"/>
<path stroke="#ffffff" stroke-width="7" d="M583.037+434.929L648.941+346.905" fill="#ffffff" stroke-linecap="round" fill-opacity="0.0169059" opacity="1" stroke-linejoin="miter"/>
<path stroke="#ffffff" stroke-width="7" d="M522.825+416.674C522.825+416.674+546.931+387.523+563.568+366.067C580.205+344.61+597.472+328.785+597.472+328.785" fill="#ffffff" stroke-linecap="round" fill-opacity="0.0169059" opacity="1" stroke-linejoin="miter"/>
<path stroke="#ffffff" stroke-width="7" d="M446.466+513.089C446.466+513.089+449.265+509.644+449.034+498.781C448.54+475.547+459.276+428.19+471.56+396.662C489.589+350.394+536.034+315.554+536.034+315.554" fill="#ffffff" stroke-linecap="round" fill-opacity="0.0169059" opacity="1" stroke-linejoin="miter"/>
<path stroke="#ffffff" stroke-width="7" d="M366.265+497.534C354.807+495.532+332.224+487.428+308.107+489.05C278.12+491.067+188.833+499.625+188.833+499.625" fill="#ffffff" stroke-linecap="round" fill-opacity="0.0169059" opacity="1" stroke-linejoin="miter"/>
<path stroke="#ffffff" stroke-width="7" d="M309.091+433.963C309.091+433.963+240.957+445.246+214.901+448.964C188.846+452.683+158.339+456.682+158.339+456.682" fill="#ffffff" stroke-linecap="round" fill-opacity="0.0169059" opacity="1" stroke-linejoin="miter"/>
<path stroke="#ffffff" stroke-width="7" d="M303.435+382.318C303.435+382.318+267.927+389.693+229.551+399.006C191.175+408.319+153.38+410.154+153.38+410.154" fill="#ffffff" stroke-linecap="round" fill-opacity="0.0169059" opacity="1" stroke-linejoin="miter"/>
</g>
</svg>
