<svg version="1.1" viewBox="0.0 0.0 380.1758530183727 382.9133858267717" fill="none" stroke="none" stroke-linecap="square" stroke-miterlimit="10" xmlns:xlink="http://www.w3.org/1999/xlink" xmlns="http://www.w3.org/2000/svg"><clipPath id="p.0"><path d="m0 0l380.17584 0l0 382.9134l-380.17584 0l0 -382.9134z" clip-rule="nonzero"/></clipPath><g clip-path="url(#p.0)"><path fill="#000000" fill-opacity="0.0" d="m0 0l380.17584 0l0 382.9134l-380.17584 0z" fill-rule="evenodd"/><path fill="#ffffff" d="m278.61658 188.51183l0 0c-0.11975098 31.015549 -17.890808 59.5692 -46.580353 74.843c-28.68956 15.273773 -63.90895 14.931305 -92.31485 -0.8977356c-28.405891 -15.82901 -45.653023 -44.72319 -45.207085 -75.73558l92.04725 1.3228302z" fill-rule="evenodd"/><path stroke="#000000" stroke-width="1.0" stroke-linejoin="round" stroke-linecap="butt" d="m278.61658 188.51183l0 0c-0.11975098 31.015549 -17.890808 59.5692 -46.580353 74.843c-28.68956 15.273773 -63.90895 14.931305 -92.31485 -0.8977356c-28.405891 -15.82901 -45.653023 -44.72319 -45.207085 -75.73558l92.04725 1.3228302z" fill-rule="evenodd"/><path fill="#ffffff" d="m94.48133 187.16187l0 0c0.13392639 -18.1277 8.817131 -34.83235 22.763092 -43.79135c13.945961 -8.959015 31.023842 -8.803528 44.769783 0.4076233c13.745941 9.211151 22.059692 26.070557 21.794525 44.197067l-44.661407 -0.61416626z" fill-rule="evenodd"/><path stroke="#000000" stroke-width="1.0" stroke-linejoin="round" stroke-linecap="butt" d="m94.48133 187.16187l0 0c0.13392639 -18.1277 8.817131 -34.83235 22.763092 -43.79135c13.945961 -8.959015 31.023842 -8.803528 44.769783 0.4076233c13.745941 9.211151 22.059692 26.070557 21.794525 44.197067l-44.661407 -0.61416626z" fill-rule="evenodd"/><path fill="#ffffff" d="m261.08 123.46881l0 0c14.525452 16.55397 16.585785 41.67743 5.399536 65.84122c-11.186279 24.163803 -33.90567 43.66661 -59.540894 51.111145c-25.635223 7.4445343 -50.259537 1.6904755 -64.53311 -15.079727l59.5748 -50.661407z" fill-rule="evenodd"/><path stroke="#000000" stroke-width="1.0" stroke-linejoin="round" stroke-linecap="butt" d="m261.08 123.46881l0 0c14.525452 16.55397 16.585785 41.67743 5.399536 65.84122c-11.186279 24.163803 -33.90567 43.66661 -59.540894 51.111145c-25.635223 7.4445343 -50.259537 1.6904755 -64.53311 -15.079727l59.5748 -50.661407z" fill-rule="evenodd"/><path fill="#ffffff" d="m112.86764 179.92772l0 0c-0.030166626 5.83049 -3.1871185 11.198975 -8.275192 14.07222c-5.088066 2.87323 -11.3292465 2.8118744 -16.359756 -0.16085815c-5.0305023 -2.9727173 -8.081123 -8.402252 -7.9964676 -14.232193l16.314957 0.23622131z" fill-rule="evenodd"/><path stroke="#000000" stroke-width="1.0" stroke-linejoin="round" stroke-linecap="butt" d="m112.86764 179.92772l0 0c-0.030166626 5.83049 -3.1871185 11.198975 -8.275192 14.07222c-5.088066 2.87323 -11.3292465 2.8118744 -16.359756 -0.16085815c-5.0305023 -2.9727173 -8.081123 -8.402252 -7.9964676 -14.232193l16.314957 0.23622131z" fill-rule="evenodd"/><path fill="#ffffff" d="m292.52435 187.13197l0 0c-0.019134521 6.9443817 -4.092285 13.337814 -10.676025 16.757675c-6.58374 3.4198608 -14.670776 3.3429413 -21.196777 -0.20161438c-6.5259857 -3.5445557 -10.492508 -10.014435 -10.39653 -16.9581l21.133865 0.29922485z" fill-rule="evenodd"/><path stroke="#000000" stroke-width="1.0" stroke-linejoin="round" stroke-linecap="butt" d="m292.52435 187.13197l0 0c-0.019134521 6.9443817 -4.092285 13.337814 -10.676025 16.757675c-6.58374 3.4198608 -14.670776 3.3429413 -21.196777 -0.20161438c-6.5259857 -3.5445557 -10.492508 -10.014435 -10.39653 -16.9581l21.133865 0.29922485z" fill-rule="evenodd"/><path fill="#000000" d="m119.456276 165.42499l0 0c0.03479004 -2.4787598 2.3826523 -4.459976 5.244095 -4.425186l0 0c2.8614502 0.03479004 5.1529007 2.0724182 5.1181107 4.551178l0 0c-0.03479004 2.4787598 -2.3826447 4.4599915 -5.244095 4.4252014l0 0c-2.8614426 -0.03479004 -5.152893 -2.0724335 -5.1181107 -4.551193z" fill-rule="evenodd"/><path stroke="#000000" stroke-width="1.0" stroke-linejoin="round" stroke-linecap="butt" d="m119.456276 165.42499l0 0c0.03479004 -2.4787598 2.3826523 -4.459976 5.244095 -4.425186l0 0c2.8614502 0.03479004 5.1529007 2.0724182 5.1181107 4.551178l0 0c-0.03479004 2.4787598 -2.3826447 4.4599915 -5.244095 4.4252014l0 0c-2.8614426 -0.03479004 -5.152893 -2.0724335 -5.1181107 -4.551193z" fill-rule="evenodd"/></g></svg>