<svg version="1.1" viewBox="0.0 0.0 752.6876640419947 174.23884514435696" fill="none" stroke="none" stroke-linecap="square" stroke-miterlimit="10" xmlns:xlink="http://www.w3.org/1999/xlink" xmlns="http://www.w3.org/2000/svg"><clipPath id="p.0"><path d="m0 0l752.6877 0l0 174.23885l-752.6877 0l0 -174.23885z" clip-rule="nonzero"/></clipPath><g clip-path="url(#p.0)"><path fill="#000000" fill-opacity="0.0" d="m0 0l752.6877 0l0 174.23885l-752.6877 0z" fill-rule="evenodd"/><path fill="#000000" fill-opacity="0.0" d="m-12.328084 0.80446196l752.6929 0l0 172.62993l-752.6929 0z" fill-rule="evenodd"/><path fill="#000000" d="m39.937542 62.153217q9.859375 0 17.859375 4.671871q7.999996 4.671875 12.671871 12.8125q4.671875 8.125 4.671875 18.109375l0 28.53125q0 2.828125 -1.859375 4.6875q-1.859375 1.84375 -4.671875 1.84375q-2.8125 0 -4.671871 -1.84375q-1.859375 -1.859375 -1.859375 -4.6875l0 -4.734375q-4.484375 5.515625 -10.890625 8.59375q-6.390625 3.0625 -13.8125 3.0625q-9.21875 0 -16.703125 -4.609375q-7.484376 -4.609375 -11.781251 -12.734375q-4.28125 -8.125 -4.28125 -18.109375q0 -9.984375 4.609375 -18.109375q4.609375 -8.140625 12.734376 -12.8125q8.125 -4.671871 17.984375 -4.671871zm0 59.51562q6.390625 0 11.578125 -3.125q5.1875 -3.140625 8.125 -8.578125q2.953125 -5.4375 2.953125 -12.21875q0 -6.796875 -2.953125 -12.296875q-2.9375 -5.5 -8.125 -8.640625q-5.1875 -3.140625 -11.578125 -3.140625q-6.40625 0 -11.59375 3.140625q-5.171875 3.140625 -8.1875 8.640625q-3.0 5.5 -3.0 12.296875q0 6.78125 3.0 12.21875q3.015625 5.4375 8.1875 8.578125q5.1875 3.125 11.59375 3.125zm128.25938 -59.64062q11.125 0 17.96875 7.296871q6.859375 7.296875 6.859375 20.34375l0 36.609375q0 2.828125 -1.796875 4.6875q-1.78125 1.84375 -4.734375 1.84375q-2.8125 0 -4.671875 -1.84375q-1.859375 -1.859375 -1.859375 -4.6875l0 -36.609375q0 -7.796875 -3.90625 -11.828125q-3.890625 -4.03125 -10.421875 -4.03125q-6.65625 0 -10.953125 4.609375q-4.28125 4.609375 -4.28125 11.765625l0 36.09375q0 2.828125 -1.796875 4.6875q-1.78125 1.84375 -4.734375 1.84375q-2.8125 0 -4.671875 -1.84375q-1.859375 -1.859375 -1.859375 -4.6875l0 -36.609375q0 -7.796875 -3.90625 -11.828125q-3.890625 -4.03125 -10.421883 -4.03125q-6.78125 0 -11.078125 4.609375q-4.28125 4.609375 -4.28125 11.765625l0 36.09375q0 2.828125 -1.796875 4.6875q-1.796875 1.84375 -4.734375 1.84375q-2.8125 0 -4.671875 -1.84375q-1.859375 -1.859375 -1.859375 -4.6875l0 -56.953125q0 -2.9375 1.859375 -4.734375q1.859375 -1.7968712 4.671875 -1.7968712q2.8125 0 4.609375 1.7343712q1.796875 1.71875 1.921875 4.546875q3.328125 -3.328125 7.9375 -5.187496q4.609375 -1.859375 9.984375 -1.859375q6.5312576 0 11.703133 2.6249962q5.1875 2.625 8.515625 7.484375q3.84375 -4.734375 9.59375 -7.421875q5.765625 -2.6874962 12.8125 -2.6874962zm71.032776 0.125q8.32814 0 14.906265 2.6874962q6.5937347 2.6875 10.437485 7.421875q1.671875 2.046875 1.671875 4.109375q0 2.171875 -2.1875 3.953125q-1.40625 1.03125 -3.578125 1.03125q-3.328125 0 -6.0156097 -2.4375q-3.203125 -2.9375 -6.796875 -4.15625q-3.578125 -1.21875 -8.687515 -1.21875q-5.890625 0 -9.671875 1.984375q-3.765625 1.984375 -3.765625 5.578125q0 2.546875 1.265625 4.28125q1.28125 1.734375 4.859375 3.203125q3.59375 1.46875 10.375 2.875q13.95314 2.8125 19.78125 7.8125q5.828125 4.984375 5.828125 12.921875q0 5.890625 -3.203125 10.703125q-3.203125 4.796875 -9.406235 7.546875q-6.203125 2.75 -14.92189 2.75q-8.703125 0 -16.390625 -2.6875q-7.671875 -2.6875 -12.015625 -7.046875q-1.671875 -1.65625 -1.671875 -3.96875q0 -3.0625 2.5625 -4.984375q2.4375 -1.796875 4.484375 -1.796875q2.5625 0 4.859375 2.3125q2.4375 2.6875 7.296875 4.671875q4.859375 1.96875 10.375 1.96875q7.2968903 0 11.32814 -2.421875q4.03125 -2.4375 4.03125 -6.53125q0 -3.96875 -3.96875 -6.59375q-3.96875 -2.625 -13.437515 -4.40625q-24.578125 -4.75 -24.578125 -20.234375q0 -6.265625 3.703125 -10.609375q3.71875 -4.359375 9.734375 -6.53125q6.015625 -2.1874962 12.796875 -2.1874962zm107.78525 34.437496q0 2.4375 -1.671875 4.03125q-1.65625 1.59375 -4.21875 1.59375l-48.640625 0q1.40625 8.96875 8.125 14.46875q6.71875 5.5 16.453125 5.5q3.828125 0 7.984375 -1.40625q4.171875 -1.40625 6.859375 -3.453125q1.796875 -1.40625 4.21875 -1.40625q2.4375 0 3.84375 1.28125q2.296875 1.921875 2.296875 4.34375q0 2.3125 -2.046875 3.84375q-4.34375 3.453125 -10.8125 5.640625q-6.46875 2.171875 -12.34375 2.171875q-10.5 0 -18.828125 -4.546875q-8.3125 -4.546875 -12.984375 -12.609375q-4.671875 -8.0625 -4.671875 -18.296875q0 -10.25 4.40625 -18.375q4.421875 -8.125 12.296875 -12.671875q7.875 -4.546871 17.859375 -4.546871q9.859375 0 17.015625 4.359371q7.171875 4.34375 11.015625 12.15625q3.84375 7.8125 3.84375 17.921875zm-31.875 -23.421875q-9.34375 0 -15.171875 5.125q-5.828125 5.109375 -7.359375 13.6875l42.625 0q-1.15625 -8.578125 -6.40625 -13.6875q-5.25 -5.125 -13.6875 -5.125zm45.94113 -34.04687q0 -2.828125 1.796875 -4.609375q1.796875 -1.796875 4.609375 -1.796875q2.8125 0 4.609375 1.796875q1.796875 1.78125 1.796875 4.609375l0 69.875q0 4.75 1.78125 7.828125q1.796875 3.0625 4.609375 3.0625l3.203125 0q2.5625 0 4.15625 1.796875q1.609375 1.78125 1.609375 4.59375q0 2.828125 -2.4375 4.625q-2.4375 1.78125 -6.265625 1.78125l-0.265625 0q-5.5 0 -9.921875 -3.0q-4.40625 -3.015625 -6.84375 -8.453125q-2.4375 -5.4375 -2.4375 -12.234375l0 -69.875zm44.681274 77.8125q3.578125 0 6.203125 2.625q2.625 2.625 2.625 6.34375q0 3.578125 -2.5625 6.203125q-2.5625 2.625 -6.265625 2.625q-3.59375 0 -6.21875 -2.625q-2.609375 -2.625 -2.609375 -6.203125q0 -3.71875 2.609375 -6.34375q2.625 -2.625 6.21875 -2.625zm56.573364 2.953125q2.296875 0 3.890625 1.796875q1.609375 1.78125 1.609375 4.59375q0 2.828125 -2.109375 4.625q-2.109375 1.78125 -5.4375 1.78125l-2.3125 0q-6.265625 0 -11.453125 -3.265625q-5.171875 -3.265625 -8.125 -8.890625q-2.9375 -5.640625 -2.9375 -12.671875l0 -31.625l-5.890625 0q-2.6875 0 -4.359375 -1.53125q-1.65625 -1.53125 -1.65625 -3.84375q0 -2.5625 1.65625 -4.09375q1.671875 -1.53125 4.359375 -1.53125l5.890625 0l0 -18.437496q0 -2.8125 1.78125 -4.59375q1.796875 -1.796875 4.609375 -1.796875q2.828125 0 4.609375 1.796875q1.796875 1.78125 1.796875 4.59375l0 18.437496l10.875 0q2.6875 0 4.34375 1.53125q1.671875 1.53125 1.671875 4.09375q0 2.3125 -1.671875 3.84375q-1.65625 1.53125 -4.34375 1.53125l-10.875 0l0 31.625q0 5.109375 2.8125 8.578125q2.8125 3.453125 6.90625 3.453125l4.359375 0zm84.35928 -23.296875q0 2.4375 -1.671875 4.03125q-1.65625 1.59375 -4.21875 1.59375l-48.640656 0q1.40625 8.96875 8.125 14.46875q6.71875 5.5 16.453156 5.5q3.828125 0 7.984375 -1.40625q4.171875 -1.40625 6.859375 -3.453125q1.796875 -1.40625 4.21875 -1.40625q2.4375 0 3.84375 1.28125q2.296875 1.921875 2.296875 4.34375q0 2.3125 -2.046875 3.84375q-4.34375 3.453125 -10.8125 5.640625q-6.46875 2.171875 -12.34375 2.171875q-10.5000305 0 -18.828156 -4.546875q-8.3125 -4.546875 -12.984375 -12.609375q-4.671875 -8.0625 -4.671875 -18.296875q0 -10.25 4.40625 -18.375q4.421875 -8.125 12.296875 -12.671875q7.875 -4.546871 17.859406 -4.546871q9.859375 0 17.015625 4.359371q7.171875 4.34375 11.015625 12.15625q3.84375 7.8125 3.84375 17.921875zm-31.875 -23.421875q-9.3437805 0 -15.1719055 5.125q-5.828125 5.109375 -7.359375 13.6875l42.62503 0q-1.15625 -8.578125 -6.40625 -13.6875q-5.25 -5.125 -13.6875 -5.125zm79.61304 -11.015621q15.109375 0 25.09375 11.515621q1.265625 1.421875 1.265625 3.328125q0 2.828125 -2.8125 4.75q-1.28125 0.890625 -2.9375 0.890625q-2.953125 0 -5.0 -2.3125q-3.1875 -3.453125 -6.96875 -5.046875q-3.78125 -1.609375 -8.640625 -1.609375q-9.859375 0 -16.0 6.59375q-6.140625 6.59375 -6.140625 17.484375q0 6.90625 2.875 12.34375q2.875 5.4375 8.0625 8.515625q5.1875 3.0625 11.84375 3.0625q8.703125 0 14.078125 -4.46875q2.4375 -1.796875 4.734375 -1.796875q1.796875 0 3.328125 1.15625q2.4375 2.046875 2.4375 4.609375q0 1.921875 -1.546875 3.453125q-9.203125 8.578125 -23.03125 8.578125q-10.109375 0 -18.171875 -4.609375q-8.0625 -4.609375 -12.609375 -12.734375q-4.546875 -8.125 -4.546875 -18.109375q0 -10.25 4.40625 -18.375q4.421875 -8.125 12.359375 -12.671875q7.9375 -4.546871 17.921875 -4.546871zm80.64673 -0.125q8.828125 0 15.859375 3.8437462q7.046875 3.84375 11.015625 11.203125q3.96875 7.359375 3.96875 17.71875l0 31.484375q0 2.828125 -1.859375 4.6875q-1.859375 1.84375 -4.671875 1.84375q-2.8125 0 -4.671875 -1.84375q-1.859375 -1.859375 -1.859375 -4.6875l0 -31.484375q0 -10.359375 -5.578125 -15.671875q-5.5625 -5.3125 -14.765625 -5.3125q-5.375 0 -9.796875 2.171875q-4.421875 2.171875 -6.921875 5.890625q-2.484375 3.703125 -2.484375 8.3125l0 36.09375q0 2.828125 -1.796875 4.6875q-1.796875 1.84375 -4.734375 1.84375q-2.8125 0 -4.671875 -1.84375q-1.859375 -1.859375 -1.859375 -4.6875l0 -87.03125q0 -2.953125 1.859375 -4.734375q1.859375 -1.796875 4.671875 -1.796875q2.9375 0 4.734375 1.796875q1.796875 1.78125 1.796875 4.734375l0 31.359371q4.09375 -4.09375 9.71875 -6.328125q5.640625 -2.2499962 12.046875 -2.2499962z" fill-rule="nonzero"/></g></svg>