<svg version="1.1" viewBox="0.0 0.0 379.7007874015748 383.28608923884514" fill="none" stroke="none" stroke-linecap="square" stroke-miterlimit="10" xmlns:xlink="http://www.w3.org/1999/xlink" xmlns="http://www.w3.org/2000/svg"><clipPath id="p.0"><path d="m0 0l379.70078 0l0 383.2861l-379.70078 0l0 -383.2861z" clip-rule="nonzero"/></clipPath><g clip-path="url(#p.0)"><path fill="#000000" fill-opacity="0.0" d="m0 0l379.70078 0l0 383.2861l-379.70078 0z" fill-rule="evenodd"/><path fill="#ffffff" d="m341.47247 189.82332l0 0c-0.20083618 52.823547 -30.464966 101.45433 -79.32645 127.46791c-48.86148 26.01358 -108.8459 25.430664 -157.22739 -1.5279236c-48.381477 -26.958588 -77.75906 -76.16896 -77.00266 -128.9871l156.77167 2.2519684z" fill-rule="evenodd"/><path stroke="#ffffff" stroke-width="1.0" stroke-linejoin="round" stroke-linecap="butt" d="m341.47247 189.82332l0 0c-0.20083618 52.823547 -30.464966 101.45433 -79.32645 127.46791c-48.86148 26.01358 -108.8459 25.430664 -157.22739 -1.5279236c-48.381477 -26.958588 -77.75906 -76.16896 -77.00266 -128.9871l156.77167 2.2519684z" fill-rule="evenodd"/><path fill="#ffffff" d="m27.871881 187.51819l0 0c0.22786331 -30.878601 15.016043 -59.33145 38.76732 -74.58937c23.751274 -15.257919 52.836647 -14.989609 76.24752 0.70337677c23.410873 15.692986 37.57025 44.41288 37.118927 75.28942l-76.062996 -1.0551147z" fill-rule="evenodd"/><path stroke="#ffffff" stroke-width="1.0" stroke-linejoin="round" stroke-linecap="butt" d="m27.871881 187.51819l0 0c0.22786331 -30.878601 15.016043 -59.33145 38.76732 -74.58937c23.751274 -15.257919 52.836647 -14.989609 76.24752 0.70337677c23.410873 15.692986 37.57025 44.41288 37.118927 75.28942l-76.062996 -1.0551147z" fill-rule="evenodd"/><path fill="#ffffff" d="m311.57532 79.04134l0 0c24.739685 28.195892 28.252441 70.986626 9.205872 112.14199c-19.0466 41.15538 -57.734985 74.37135 -101.39101 87.04933c-43.656006 12.6779785 -85.59253 2.8760376 -109.903366 -25.688065l101.44882 -86.28346z" fill-rule="evenodd"/><path stroke="#ffffff" stroke-width="1.0" stroke-linejoin="round" stroke-linecap="butt" d="m311.57532 79.04134l0 0c24.739685 28.195892 28.252441 70.986626 9.205872 112.14199c-19.0466 41.15538 -57.734985 74.37135 -101.39101 87.04933c-43.656006 12.6779785 -85.59253 2.8760376 -109.903366 -25.688065l101.44882 -86.28346z" fill-rule="evenodd"/><path fill="#ffffff" d="m59.16006 175.19185c-0.048316956 9.928162 -5.4208336 19.071274 -14.0827675 23.966492c-8.66193 4.8952026 -19.288784 4.793976 -27.855757 -0.26535034c-8.566973 -5.059326 -13.764087 -14.303116 -13.622993 -24.230408l27.779528 0.39370728z" fill-rule="evenodd"/><path stroke="#ffffff" stroke-width="1.0" stroke-linejoin="round" stroke-linecap="butt" d="m59.16006 175.19185c-0.048316956 9.928162 -5.4208336 19.071274 -14.0827675 23.966492c-8.66193 4.8952026 -19.288784 4.793976 -27.855757 -0.26535034c-8.566973 -5.059326 -13.764087 -14.303116 -13.622993 -24.230408l27.779528 0.39370728z" fill-rule="evenodd"/><path fill="#ffffff" d="m365.17523 187.49153l0 0c-0.032836914 11.828079 -6.971344 22.715805 -18.186401 28.537598c-11.215027 5.8217926 -24.990692 5.6869507 -36.107178 -0.3534546c-11.116455 -6.04039 -17.872894 -17.062164 -17.709198 -28.888962l36.0 0.51968384z" fill-rule="evenodd"/><path stroke="#ffffff" stroke-width="1.0" stroke-linejoin="round" stroke-linecap="butt" d="m365.17523 187.49153l0 0c-0.032836914 11.828079 -6.971344 22.715805 -18.186401 28.537598c-11.215027 5.8217926 -24.990692 5.6869507 -36.107178 -0.3534546c-11.116455 -6.04039 -17.872894 -17.062164 -17.709198 -28.888962l36.0 0.51968384z" fill-rule="evenodd"/><path fill="#000000" d="m70.416916 150.51251l0 0c0.05218506 -4.226944 4.0428467 -7.611252 8.913391 -7.559067l0 0c4.870537 0.05218506 8.776588 3.521103 8.724403 7.7480316l0 0c-0.05218506 4.226944 -4.042839 7.611252 -8.9133835 7.559067l0 0c-4.8705444 -0.05218506 -8.776596 -3.521103 -8.724411 -7.7480316z" fill-rule="evenodd"/><path stroke="#ffffff" stroke-width="1.0" stroke-linejoin="round" stroke-linecap="butt" d="m70.416916 150.51251l0 0c0.05218506 -4.226944 4.0428467 -7.611252 8.913391 -7.559067l0 0c4.870537 0.05218506 8.776588 3.521103 8.724403 7.7480316l0 0c-0.05218506 4.226944 -4.042839 7.611252 -8.9133835 7.559067l0 0c-4.8705444 -0.05218506 -8.776596 -3.521103 -8.724411 -7.7480316z" fill-rule="evenodd"/></g></svg>