<svg version="1.1" viewBox="0.0 0.0 752.6876640419947 174.23884514435696" fill="none" stroke="none" stroke-linecap="square" stroke-miterlimit="10" xmlns:xlink="http://www.w3.org/1999/xlink" xmlns="http://www.w3.org/2000/svg"><clipPath id="p.0"><path d="m0 0l752.6877 0l0 174.23885l-752.6877 0l0 -174.23885z" clip-rule="nonzero"/></clipPath><g clip-path="url(#p.0)"><path fill="#000000" fill-opacity="0.0" d="m0 0l752.6877 0l0 174.23885l-752.6877 0z" fill-rule="evenodd"/><path fill="#000000" fill-opacity="0.0" d="m-7.3228345 0.8057743l747.7165 0l0 172.62993l-747.7165 0z" fill-rule="evenodd"/><path fill="#ffffff" d="m37.13029 60.59702q15.328125 0 23.546875 7.296871q8.218746 7.296875 8.218746 22.015625l0 37.65625l-17.906246 0l0 -8.21875q-5.40625 9.203125 -20.125 9.203125q-7.59375 0 -13.1875 -2.578125q-5.578126 -2.578125 -8.531251 -7.109375q-2.9374995 -4.546875 -2.9374995 -10.3125q0 -9.203125 6.9374995 -14.46875q6.937501 -5.28125 21.40625 -5.28125l15.203125 0q0 -6.25 -3.796875 -9.625q-3.796875 -3.375 -11.40625 -3.375q-5.28125 0 -10.375 1.65625q-5.078125 1.65625 -8.640626 4.484375l-6.875 -13.375q5.40625 -3.796875 12.937501 -5.874996q7.546875 -2.09375 15.53125 -2.09375zm-1.484375 55.07812q4.90625 0 8.703125 -2.265625q3.8125 -2.28125 5.40625 -6.703125l0 -6.734375l-13.125 0q-11.765625 0 -11.765625 7.71875q0 3.6875 2.875 5.84375q2.890625 2.140625 7.90625 2.140625zm135.05397 -55.07812q12.390625 0 19.6875 7.296871q7.296875 7.296875 7.296875 21.890625l0 37.78125l-19.140625 0l0 -34.828125q0 -7.859375 -3.25 -11.71875q-3.25 -3.859375 -9.25 -3.859375q-6.75 0 -10.6875 4.359375q-3.921875 4.34375 -3.921875 12.921875l0 33.125l-19.125 0l0 -34.828125q0 -15.578125 -12.515633 -15.578125q-6.625 0 -10.546875 4.359375q-3.921875 4.34375 -3.921875 12.921875l0 33.125l-19.140625 0l0 -65.984375l18.28125 0l0 7.593746q3.671875 -4.171875 9.0 -6.374996q5.34375 -2.203125 11.734375 -2.203125q6.9843826 0 12.625008 2.765625q5.640625 2.7499962 9.078125 8.031246q4.046875 -5.15625 10.234375 -7.968746q6.203125 -2.828125 13.5625 -2.828125zm66.354004 67.953125q-8.21875 0 -16.078125 -2.015625q-7.84375 -2.03125 -12.5 -5.109375l6.375 -13.734375q4.421875 2.828125 10.671875 4.609375q6.265625 1.765625 12.265625 1.765625q12.14061 0 12.14061 -6.0q0 -2.828125 -3.3124847 -4.046875q-3.3125 -1.234375 -10.171875 -2.09375q-8.09375 -1.21875 -13.375 -2.8125q-5.265625 -1.59375 -9.140625 -5.640625q-3.859375 -4.046875 -3.859375 -11.53125q0 -6.265625 3.609375 -11.109375q3.625 -4.84375 10.546875 -7.531246q6.9375 -2.703125 16.390625 -2.703125q6.984375 0 13.906235 1.53125q6.9374847 1.53125 11.48436 4.234371l-6.390625 13.609375q-8.70311 -4.90625 -18.99997 -4.90625q-6.140625 0 -9.203125 1.71875q-3.0625 1.71875 -3.0625 4.421875q0 3.0625 3.3125 4.296875q3.3125 1.21875 10.546875 2.328125q8.093735 1.34375 13.23436 2.875q5.1562347 1.53125 8.95311 5.578125q3.8125 4.046875 3.8125 11.28125q0 6.140625 -3.6875 10.921875q-3.671875 4.78125 -10.73436 7.421875q-7.0468597 2.640625 -16.73436 2.640625zm107.56802 -33.734375q0 0.375 -0.359375 5.15625l-49.921875 0q1.34375 6.125 6.375 9.6875q5.03125 3.5625 12.515625 3.5625q5.140625 0 9.125 -1.53125q4.0 -1.546875 7.421875 -4.859375l10.1875 11.046875q-9.328125 10.671875 -27.234375 10.671875q-11.15625 0 -19.75 -4.359375q-8.578125 -4.359375 -13.25 -12.078125q-4.65625 -7.734375 -4.65625 -17.546875q0 -9.6875 4.59375 -17.46875q4.609375 -7.796875 12.640625 -12.140625q8.03125 -4.359371 17.96875 -4.359371q9.6875 0 17.53125 4.171871q7.859375 4.171875 12.328125 11.96875q4.484375 7.78125 4.484375 18.078125zm-34.21875 -19.75q-6.5 0 -10.921875 3.6875q-4.40625 3.671875 -5.390625 10.046875l32.5 0q-0.984375 -6.25 -5.40625 -9.984375q-4.40625 -3.75 -10.78125 -3.75zm46.974274 -38.51562l19.140625 0l0 91.015625l-19.140625 0l0 -91.015625zm44.15393 92.0q-5.015625 0 -8.453125 -3.4375q-3.4375 -3.4375 -3.4375 -8.59375q0 -5.265625 3.4375 -8.515625q3.4375 -3.25 8.453125 -3.25q5.03125 0 8.46875 3.25q3.4375 3.25 3.4375 8.515625q0 5.15625 -3.4375 8.59375q-3.4375 3.4375 -8.46875 3.4375zm67.46408 -4.171875q-2.8125 2.078125 -6.921875 3.125q-4.109375 1.046875 -8.65625 1.046875q-11.765625 0 -18.21875 -6.015625q-6.4375 -6.015625 -6.4375 -17.65625l0 -27.109375l-10.171875 0l0 -14.718746l10.171875 0l0 -16.0625l19.140625 0l0 16.0625l16.4375 0l0 14.718746l-16.4375 0l0 26.859375q0 4.171875 2.140625 6.4375q2.15625 2.265625 6.078125 2.265625q4.53125 0 7.71875 -2.453125l5.15625 13.5zm75.433685 -29.5625q0 0.375 -0.359375 5.15625l-49.921906 0q1.34375 6.125 6.375 9.6875q5.03125 3.5625 12.5156555 3.5625q5.140625 0 9.125 -1.53125q4.0 -1.546875 7.421875 -4.859375l10.1875 11.046875q-9.328125 10.671875 -27.234375 10.671875q-11.1562805 0 -19.75003 -4.359375q-8.578125 -4.359375 -13.25 -12.078125q-4.65625 -7.734375 -4.65625 -17.546875q0 -9.6875 4.59375 -17.46875q4.609375 -7.796875 12.640625 -12.140625q8.03125 -4.359371 17.96875 -4.359371q9.6875305 0 17.53128 4.171871q7.859375 4.171875 12.328125 11.96875q4.484375 7.78125 4.484375 18.078125zm-34.21878 -19.75q-6.5 0 -10.921875 3.6875q-4.40625 3.671875 -5.390625 10.046875l32.50003 0q-0.984375 -6.25 -5.40625 -9.984375q-4.40625 -3.75 -10.7812805 -3.75zm78.8649 53.484375q-10.546875 0 -18.953125 -4.359375q-8.390625 -4.359375 -13.125 -12.078125q-4.71875 -7.734375 -4.71875 -17.546875q0 -9.8125 4.71875 -17.53125q4.734375 -7.734375 13.125 -12.078125q8.40625 -4.359371 18.953125 -4.359371q10.421875 0 18.203125 4.359371q7.796875 4.34375 11.359375 12.4375l-14.84375 7.984375q-5.140625 -9.078125 -14.84375 -9.078125q-7.46875 0 -12.375 4.90625q-4.90625 4.90625 -4.90625 13.359375q0 8.46875 4.90625 13.375q4.90625 4.90625 12.375 4.90625q9.8125 0 14.84375 -9.078125l14.84375 8.09375q-3.5625 7.859375 -11.359375 12.28125q-7.78125 4.40625 -18.203125 4.40625zm80.70862 -67.953125q12.265625 0 19.8125 7.359371q7.546875 7.359375 7.546875 21.828125l0 37.78125l-19.140625 0l0 -34.828125q0 -7.859375 -3.4375 -11.71875q-3.421875 -3.859375 -9.9375 -3.859375q-7.234375 0 -11.53125 4.484375q-4.28125 4.46875 -4.28125 13.296875l0 32.625l-19.140625 0l0 -91.015625l19.140625 0l0 31.890621q3.796875 -3.796875 9.1875 -5.812496q5.40625 -2.03125 11.78125 -2.03125z" fill-rule="nonzero"/></g></svg>