<svg version="1.1" viewBox="0.0 0.0 380.1758530183727 382.9133858267717" fill="none" stroke="none" stroke-linecap="square" stroke-miterlimit="10" xmlns:xlink="http://www.w3.org/1999/xlink" xmlns="http://www.w3.org/2000/svg"><clipPath id="p.0"><path d="m0 0l380.17584 0l0 382.9134l-380.17584 0l0 -382.9134z" clip-rule="nonzero"/></clipPath><g clip-path="url(#p.0)"><path fill="#000000" fill-opacity="0.0" d="m0 0l380.17584 0l0 382.9134l-380.17584 0z" fill-rule="evenodd"/><path fill="#ffffff" d="m1.3545082 190.65508l0 0c1.4785576 -103.629486 86.68547 -186.43918 190.31496 -184.96063l0 0c49.76465 0.7100282 97.208984 21.1599 131.89584 56.850876c34.68683 35.69098 53.77481 83.69944 53.06479 133.46408l0 0c-1.4785461 103.6295 -86.685455 186.4392 -190.31496 184.96062l0 0c-103.62949 -1.4785461 -186.4392 -86.685455 -184.96063 -190.31496z" fill-rule="evenodd"/><path stroke="#ffffff" stroke-width="2.0" stroke-linejoin="round" stroke-linecap="butt" d="m1.3545082 190.65508l0 0c1.4785576 -103.629486 86.68547 -186.43918 190.31496 -184.96063l0 0c49.76465 0.7100282 97.208984 21.1599 131.89584 56.850876c34.68683 35.69098 53.77481 83.69944 53.06479 133.46408l0 0c-1.4785461 103.6295 -86.685455 186.4392 -190.31496 184.96062l0 0c-103.62949 -1.4785461 -186.4392 -86.685455 -184.96063 -190.31496z" fill-rule="evenodd"/><path fill="#000000" d="m352.49353 194.15569l0 0c-0.21109009 55.09857 -31.77179 105.8242 -82.724945 132.95885c-50.95314 27.134644 -113.50441 26.527496 -163.95544 -1.5914307c-50.451027 -28.118896 -81.08432 -79.44821 -80.29405 -134.54117l163.48032 2.346466z" fill-rule="evenodd"/><path stroke="#000000" stroke-width="1.0" stroke-linejoin="round" stroke-linecap="butt" d="m352.49353 194.15569l0 0c-0.21109009 55.09857 -31.77179 105.8242 -82.724945 132.95885c-50.95314 27.134644 -113.50441 26.527496 -163.95544 -1.5914307c-50.451027 -28.118896 -81.08432 -79.44821 -80.29405 -134.54117l163.48032 2.346466z" fill-rule="evenodd"/><path fill="#000000" d="m25.47143 191.70447l0 0c0.23514557 -32.193314 15.654821 -61.85115 40.42279 -77.74823c24.76796 -15.897079 55.09986 -15.604454 79.5153 0.76712036c24.41542 16.371567 39.183884 46.32065 38.715637 78.51172l-79.32284 -1.1338654z" fill-rule="evenodd"/><path stroke="#000000" stroke-width="1.0" stroke-linejoin="round" stroke-linecap="butt" d="m25.47143 191.70447l0 0c0.23514557 -32.193314 15.654821 -61.85115 40.42279 -77.74823c24.76796 -15.897079 55.09986 -15.604454 79.5153 0.76712036c24.41542 16.371567 39.183884 46.32065 38.715637 78.51172l-79.32284 -1.1338654z" fill-rule="evenodd"/><path fill="#000000" d="m321.3628 78.66677l0 0c25.797577 29.4001 29.455841 74.02146 9.58728 116.93951c-19.86856 42.918045 -60.22058 77.5587 -105.75079 90.783035c-45.530228 13.224335 -89.26445 3.0066833 -114.614624 -26.777496l105.81102 -89.98427z" fill-rule="evenodd"/><path stroke="#000000" stroke-width="1.0" stroke-linejoin="round" stroke-linecap="butt" d="m321.3628 78.66677l0 0c25.797577 29.4001 29.455841 74.02146 9.58728 116.93951c-19.86856 42.918045 -60.22058 77.5587 -105.75079 90.783035c-45.530228 13.224335 -89.26445 3.0066833 -114.614624 -26.777496l105.81102 -89.98427z" fill-rule="evenodd"/><path fill="#000000" d="m58.07877 178.95718l0 0c-0.04997635 10.34584 -5.6505623 19.873795 -14.680592 24.97522c-9.030033 5.101425 -20.108723 4.996277 -29.040133 -0.27563477c-8.93141 -5.2719116 -14.349832 -14.904434 -14.203095 -25.249374l28.960629 0.40945435z" fill-rule="evenodd"/><path stroke="#000000" stroke-width="1.0" stroke-linejoin="round" stroke-linecap="butt" d="m58.07877 178.95718l0 0c-0.04997635 10.34584 -5.6505623 19.873795 -14.680592 24.97522c-9.030033 5.101425 -20.108723 4.996277 -29.040133 -0.27563477c-8.93141 -5.2719116 -14.349832 -14.904434 -14.203095 -25.249374l28.960629 0.40945435z" fill-rule="evenodd"/><path fill="#000000" d="m377.13913 191.74768l0 0c-0.038879395 12.336121 -7.2700195 23.692673 -18.9534 29.76648c-11.68338 6.073807 -26.031494 5.9355927 -37.607605 -0.36227417c-11.576111 -6.297867 -18.60913 -17.791824 -18.434143 -30.126633l37.496063 0.5354309z" fill-rule="evenodd"/><path stroke="#000000" stroke-width="1.0" stroke-linejoin="round" stroke-linecap="butt" d="m377.13913 191.74768l0 0c-0.038879395 12.336121 -7.2700195 23.692673 -18.9534 29.76648c-11.68338 6.073807 -26.031494 5.9355927 -37.607605 -0.36227417c-11.576111 -6.297867 -18.60913 -17.791824 -18.434143 -30.126633l37.496063 0.5354309z" fill-rule="evenodd"/><path fill="#ffffff" d="m69.82448 153.17401l0 0c0.06088257 -4.3921814 4.227806 -7.8892975 9.307083 -7.81102l0 0c5.0792847 0.07827759 9.147499 3.702301 9.0866165 8.094498l0 0c-0.06088257 4.3921814 -4.227806 7.8892975 -9.307083 7.81102l0 0c-5.0792847 -0.07827759 -9.147499 -3.702301 -9.0866165 -8.094498z" fill-rule="evenodd"/><path stroke="#000000" stroke-width="1.0" stroke-linejoin="round" stroke-linecap="butt" d="m69.82448 153.17401l0 0c0.06088257 -4.3921814 4.227806 -7.8892975 9.307083 -7.81102l0 0c5.0792847 0.07827759 9.147499 3.702301 9.0866165 8.094498l0 0c-0.06088257 4.3921814 -4.227806 7.8892975 -9.307083 7.81102l0 0c-5.0792847 -0.07827759 -9.147499 -3.702301 -9.0866165 -8.094498z" fill-rule="evenodd"/></g></svg>