<svg version="1.1" viewBox="0.0 0.0 380.1758530183727 382.9133858267717" fill="none" stroke="none" stroke-linecap="square" stroke-miterlimit="10" xmlns:xlink="http://www.w3.org/1999/xlink" xmlns="http://www.w3.org/2000/svg"><clipPath id="p.0"><path d="m0 0l380.17584 0l0 382.9134l-380.17584 0l0 -382.9134z" clip-rule="nonzero"/></clipPath><g clip-path="url(#p.0)"><path fill="#000000" fill-opacity="0.0" d="m0 0l380.17584 0l0 382.9134l-380.17584 0z" fill-rule="evenodd"/><path fill="#000000" d="m198.61658 68.51182l0 0c-0.11975098 31.015556 -17.890808 59.569206 -46.580353 74.842995c-28.68956 15.273804 -63.90895 14.931305 -92.31485 -0.89772034c-28.405895 -15.829018 -45.65303 -44.72319 -45.207092 -75.73558l92.04724 1.3228378z" fill-rule="evenodd"/><path stroke="#000000" stroke-width="1.0" stroke-linejoin="round" stroke-linecap="butt" d="m198.61658 68.51182l0 0c-0.11975098 31.015556 -17.890808 59.569206 -46.580353 74.842995c-28.68956 15.273804 -63.90895 14.931305 -92.31485 -0.89772034c-28.405895 -15.829018 -45.65303 -44.72319 -45.207092 -75.73558l92.04724 1.3228378z" fill-rule="evenodd"/><path fill="#000000" d="m14.481334 67.16187l0 0c0.13392258 -18.1277 8.81713 -34.832355 22.763088 -43.791367c13.945957 -8.959012 31.023842 -8.803516 44.769783 0.40763092c13.745949 9.211149 22.059685 26.070559 21.794533 44.197067l-44.66142 -0.6141739z" fill-rule="evenodd"/><path stroke="#000000" stroke-width="1.0" stroke-linejoin="round" stroke-linecap="butt" d="m14.481334 67.16187l0 0c0.13392258 -18.1277 8.81713 -34.832355 22.763088 -43.791367c13.945957 -8.959012 31.023842 -8.803516 44.769783 0.40763092c13.745949 9.211149 22.059685 26.070559 21.794533 44.197067l-44.66142 -0.6141739z" fill-rule="evenodd"/><path fill="#000000" d="m181.07997 3.4688137l0 0c14.525482 16.553967 16.585815 41.677418 5.3995514 65.841225c-11.186279 24.163803 -33.90567 43.666603 -59.540894 51.111137c-25.635216 7.4445343 -50.25953 1.6904678 -64.53312 -15.07972l59.574806 -50.66142z" fill-rule="evenodd"/><path stroke="#000000" stroke-width="1.0" stroke-linejoin="round" stroke-linecap="butt" d="m181.07997 3.4688137l0 0c14.525482 16.553967 16.585815 41.677418 5.3995514 65.841225c-11.186279 24.163803 -33.90567 43.666603 -59.540894 51.111137c-25.635216 7.4445343 -50.25953 1.6904678 -64.53312 -15.07972l59.574806 -50.66142z" fill-rule="evenodd"/><path fill="#000000" d="m32.867634 59.927715l0 0c-0.030162811 5.8304863 -3.1871128 11.198978 -8.275185 14.072216c-5.088072 2.8732376 -11.32925 2.8118744 -16.359756 -0.16085052c-5.030507 -2.9727173 -8.081127 -8.402245 -7.9964714 -14.232197l16.31496 0.23622131z" fill-rule="evenodd"/><path stroke="#000000" stroke-width="1.0" stroke-linejoin="round" stroke-linecap="butt" d="m32.867634 59.927715l0 0c-0.030162811 5.8304863 -3.1871128 11.198978 -8.275185 14.072216c-5.088072 2.8732376 -11.32925 2.8118744 -16.359756 -0.16085052c-5.030507 -2.9727173 -8.081127 -8.402245 -7.9964714 -14.232197l16.31496 0.23622131z" fill-rule="evenodd"/><path fill="#000000" d="m212.52437 67.13197l0 0c-0.019165039 6.9443893 -4.0923004 13.337807 -10.676041 16.757675c-6.58374 3.4198608 -14.670761 3.342949 -21.196762 -0.20160675c-6.526001 -3.5445557 -10.492523 -10.014442 -10.396545 -16.9581l21.13385 0.2992096z" fill-rule="evenodd"/><path stroke="#000000" stroke-width="1.0" stroke-linejoin="round" stroke-linecap="butt" d="m212.52437 67.13197l0 0c-0.019165039 6.9443893 -4.0923004 13.337807 -10.676041 16.757675c-6.58374 3.4198608 -14.670761 3.342949 -21.196762 -0.20160675c-6.526001 -3.5445557 -10.492523 -10.014442 -10.396545 -16.9581l21.13385 0.2992096z" fill-rule="evenodd"/><path fill="#ffffff" d="m39.45628 45.42499l0 0c0.03479004 -2.478756 2.3826523 -4.459984 5.244095 -4.425194l0 0c2.8614426 0.034786224 5.1529007 2.072422 5.1181107 4.551178l0 0c-0.03479004 2.4787598 -2.3826523 4.4599876 -5.244095 4.4251976l0 0c-2.8614426 -0.03479004 -5.1529007 -2.072422 -5.1181107 -4.551182z" fill-rule="evenodd"/><path stroke="#000000" stroke-width="1.0" stroke-linejoin="round" stroke-linecap="butt" d="m39.45628 45.42499l0 0c0.03479004 -2.478756 2.3826523 -4.459984 5.244095 -4.425194l0 0c2.8614426 0.034786224 5.1529007 2.072422 5.1181107 4.551178l0 0c-0.03479004 2.4787598 -2.3826523 4.4599876 -5.244095 4.4251976l0 0c-2.8614426 -0.03479004 -5.1529007 -2.072422 -5.1181107 -4.551182z" fill-rule="evenodd"/></g></svg>