<svg version="1.1" viewBox="0.0 0.0 732.1837270341207 724.3228346456693" fill="none" stroke="none" stroke-linecap="square" stroke-miterlimit="10" xmlns:xlink="http://www.w3.org/1999/xlink" xmlns="http://www.w3.org/2000/svg"><clipPath id="p.0"><path d="m0 0l732.1837 0l0 724.3228l-732.1837 0l0 -724.3228z" clip-rule="nonzero"/></clipPath><g clip-path="url(#p.0)"><path fill="#000000" fill-opacity="0.0" d="m0 0l732.1837 0l0 724.3228l-732.1837 0z" fill-rule="evenodd"/><path fill="#000000" d="m7.774278 363.82416l0 0c0 -196.71774 159.47124 -356.189 356.18896 -356.189l0 0c94.46719 0 185.06525 37.526947 251.86365 104.32533c66.7984 66.79839 104.32532 157.39645 104.32532 251.86365l0 0c0 196.71771 -159.47125 356.18896 -356.18896 356.18896l0 0c-196.71774 0 -356.18896 -159.47125 -356.18896 -356.18896z" fill-rule="evenodd"/><path stroke="#000000" stroke-width="1.0" stroke-linejoin="round" stroke-linecap="butt" d="m7.774278 363.82416l0 0c0 -196.71774 159.47124 -356.189 356.18896 -356.189l0 0c94.46719 0 185.06525 37.526947 251.86365 104.32533c66.7984 66.79839 104.32532 157.39645 104.32532 251.86365l0 0c0 196.71771 -159.47125 356.18896 -356.18896 356.18896l0 0c-196.71774 0 -356.18896 -159.47125 -356.18896 -356.18896z" fill-rule="evenodd"/><path fill="#ffffff" d="m45.267162 382.56113l0 0c0 -186.35915 151.07393 -337.43307 337.43307 -337.43307l0 0c89.49283 0 175.32022 35.550884 238.60123 98.83186c63.280945 63.280975 98.83185 149.10838 98.83185 238.60121l0 0c0 186.35916 -151.07391 337.43307 -337.43307 337.43307l0 0c-186.35913 0 -337.43307 -151.07391 -337.43307 -337.43307z" fill-rule="evenodd"/><path stroke="#ffffff" stroke-width="2.0" stroke-linejoin="round" stroke-linecap="butt" d="m45.267162 382.56113l0 0c0 -186.35915 151.07393 -337.43307 337.43307 -337.43307l0 0c89.49283 0 175.32022 35.550884 238.60123 98.83186c63.280945 63.280975 98.83185 149.10838 98.83185 238.60121l0 0c0 186.35916 -151.07391 337.43307 -337.43307 337.43307l0 0c-186.35913 0 -337.43307 -151.07391 -337.43307 -337.43307z" fill-rule="evenodd"/><path fill="#000000" d="m629.412 369.20303l0 0c0.93292236 85.23172 -47.71808 164.40372 -127.51874 207.51706c-79.80066 43.113342 -178.54214 43.572083 -258.8106 1.2024536c-80.26846 -42.36969 -129.7835 -121.08554 -129.7835 -206.32162l258.063 0z" fill-rule="evenodd"/><path stroke="#000000" stroke-width="1.0" stroke-linejoin="round" stroke-linecap="butt" d="m629.412 369.20303l0 0c0.93292236 85.23172 -47.71808 164.40372 -127.51874 207.51706c-79.80066 43.113342 -178.54214 43.572083 -258.8106 1.2024536c-80.26846 -42.36969 -129.7835 -121.08554 -129.7835 -206.32162l258.063 0z" fill-rule="evenodd"/><path fill="#000000" d="m113.30351 372.76282l0 0c-0.37716675 -49.4393 23.238846 -95.32373 61.908432 -120.28421c38.66957 -24.960464 86.48343 -25.182602 125.34204 -0.5823517c38.858612 24.600266 62.823853 70.263626 62.823853 119.7047l-125.03938 0z" fill-rule="evenodd"/><path stroke="#000000" stroke-width="1.0" stroke-linejoin="round" stroke-linecap="butt" d="m113.30351 372.76282l0 0c-0.37716675 -49.4393 23.238846 -95.32373 61.908432 -120.28421c38.66957 -24.960464 86.48343 -25.182602 125.34204 -0.5823517c38.858612 24.600266 62.823853 70.263626 62.823853 119.7047l-125.03938 0z" fill-rule="evenodd"/><path fill="#000000" d="m568.58673 192.31117l0 0c40.27112 44.51584 45.934692 113.74321 14.842163 181.41899c-31.09253 67.67578 -94.17731 123.43088 -165.3215 146.11322c-71.144196 22.682312 -139.44733 8.816589 -178.99692 -36.336945l165.41733 -144.83466z" fill-rule="evenodd"/><path stroke="#000000" stroke-width="1.0" stroke-linejoin="round" stroke-linecap="butt" d="m568.58673 192.31117l0 0c40.27112 44.51584 45.934692 113.74321 14.842163 181.41899c-31.09253 67.67578 -94.17731 123.43088 -165.3215 146.11322c-71.144196 22.682312 -139.44733 8.816589 -178.99692 -36.336945l165.41733 -144.83466z" fill-rule="evenodd"/><path fill="#000000" d="m154.40764 363.44635l0 0c0.13534546 14.475494 -7.5099792 27.916473 -20.04042 35.2323c-12.530434 7.3158264 -28.02993 7.387848 -40.62822 0.18878174c-12.598297 -7.1990967 -20.368973 -20.56845 -20.368973 -35.044556l40.519684 0z" fill-rule="evenodd"/><path stroke="#000000" stroke-width="1.0" stroke-linejoin="round" stroke-linecap="butt" d="m154.40764 363.44635l0 0c0.13534546 14.475494 -7.5099792 27.916473 -20.04042 35.2323c-12.530434 7.3158264 -28.02993 7.387848 -40.62822 0.18878174c-12.598297 -7.1990967 -20.368973 -20.56845 -20.368973 -35.044556l40.519684 0z" fill-rule="evenodd"/><path fill="#000000" d="m669.1651 363.26425l0 0c0.20465088 21.169739 -11.161804 40.828125 -29.79419 51.529114c-18.632324 10.700958 -41.68109 10.808044 -60.416016 0.28070068c-18.734985 -10.527374 -30.291016 -30.079254 -30.291016 -51.24994l60.251953 0z" fill-rule="evenodd"/><path stroke="#000000" stroke-width="1.0" stroke-linejoin="round" stroke-linecap="butt" d="m669.1651 363.26425l0 0c0.20465088 21.169739 -11.161804 40.828125 -29.79419 51.529114c-18.632324 10.700958 -41.68109 10.808044 -60.416016 0.28070068c-18.734985 -10.527374 -30.291016 -30.079254 -30.291016 -51.24994l60.251953 0z" fill-rule="evenodd"/><path fill="#ffffff" d="m188.67496 315.87268l0 0c0 -6.1403503 5.774475 -11.118103 12.897644 -11.118103l0 0c7.123169 0 12.897644 4.9777527 12.897644 11.118103l0 0c0 6.140381 -5.774475 11.118134 -12.897644 11.118134l0 0c-7.123169 0 -12.897644 -4.9777527 -12.897644 -11.118134z" fill-rule="evenodd"/><path stroke="#000000" stroke-width="1.0" stroke-linejoin="round" stroke-linecap="butt" d="m188.67496 315.87268l0 0c0 -6.1403503 5.774475 -11.118103 12.897644 -11.118103l0 0c7.123169 0 12.897644 4.9777527 12.897644 11.118103l0 0c0 6.140381 -5.774475 11.118134 -12.897644 11.118134l0 0c-7.123169 0 -12.897644 -4.9777527 -12.897644 -11.118134z" fill-rule="evenodd"/></g></svg>