<svg version="1.1" viewBox="0.0 0.0 732.1837270341207 724.3228346456693" fill="none" stroke="none" stroke-linecap="square" stroke-miterlimit="10" xmlns:xlink="http://www.w3.org/1999/xlink" xmlns="http://www.w3.org/2000/svg"><clipPath id="p.0"><path d="m0 0l732.1837 0l0 724.3228l-732.1837 0l0 -724.3228z" clip-rule="nonzero"/></clipPath><g clip-path="url(#p.0)"><path fill="#000000" fill-opacity="0.0" d="m0 0l732.1837 0l0 724.3228l-732.1837 0z" fill-rule="evenodd"/><path fill="#000000" d="m7.774278 363.82416l0 0c0 -196.71774 159.47124 -356.189 356.18896 -356.189l0 0c94.46719 0 185.06525 37.526947 251.86365 104.32533c66.7984 66.79839 104.32532 157.39645 104.32532 251.86365l0 0c0 196.71771 -159.47125 356.18896 -356.18896 356.18896l0 0c-196.71774 0 -356.18896 -159.47125 -356.18896 -356.18896z" fill-rule="evenodd"/><path stroke="#000000" stroke-width="1.0" stroke-linejoin="round" stroke-linecap="butt" d="m7.774278 363.82416l0 0c0 -196.71774 159.47124 -356.189 356.18896 -356.189l0 0c94.46719 0 185.06525 37.526947 251.86365 104.32533c66.7984 66.79839 104.32532 157.39645 104.32532 251.86365l0 0c0 196.71771 -159.47125 356.18896 -356.18896 356.18896l0 0c-196.71774 0 -356.18896 -159.47125 -356.18896 -356.18896z" fill-rule="evenodd"/><path fill="#ffffff" d="m45.267162 382.56113l0 0c0 -186.35915 151.07393 -337.43307 337.43307 -337.43307l0 0c89.49283 0 175.32022 35.550884 238.60123 98.83186c63.280945 63.280975 98.83185 149.10838 98.83185 238.60121l0 0c0 186.35916 -151.07391 337.43307 -337.43307 337.43307l0 0c-186.35913 0 -337.43307 -151.07391 -337.43307 -337.43307z" fill-rule="evenodd"/><path stroke="#ffffff" stroke-width="2.0" stroke-linejoin="round" stroke-linecap="butt" d="m45.267162 382.56113l0 0c0 -186.35915 151.07393 -337.43307 337.43307 -337.43307l0 0c89.49283 0 175.32022 35.550884 238.60123 98.83186c63.280945 63.280975 98.83185 149.10838 98.83185 238.60121l0 0c0 186.35916 -151.07391 337.43307 -337.43307 337.43307l0 0c-186.35913 0 -337.43307 -151.07391 -337.43307 -337.43307z" fill-rule="evenodd"/><path fill="#000000" d="m600.67975 328.30707l0 0c0.8099365 77.05859 -42.30481 148.63095 -113.00961 187.60095c-70.7048 38.97003 -158.18393 39.376465 -229.29483 1.0653076c-71.1109 -38.311096 -114.97572 -109.47934 -114.97572 -186.54172l228.64568 0z" fill-rule="evenodd"/><path stroke="#000000" stroke-width="1.0" stroke-linejoin="round" stroke-linecap="butt" d="m600.67975 328.30707l0 0c0.8099365 77.05859 -42.30481 148.63095 -113.00961 187.60095c-70.7048 38.97003 -158.18393 39.376465 -229.29483 1.0653076c-71.1109 -38.311096 -114.97572 -109.47934 -114.97572 -186.54172l228.64568 0z" fill-rule="evenodd"/><path fill="#000000" d="m143.40895 331.47034l0 0c-0.32588196 -45.041077 20.633179 -86.83879 54.944336 -109.57298c34.311157 -22.734207 76.73195 -22.93129 111.206436 -0.51667786c34.474487 22.414597 55.73526 64.01614 55.73526 109.05875l-110.944885 0z" fill-rule="evenodd"/><path stroke="#000000" stroke-width="1.0" stroke-linejoin="round" stroke-linecap="butt" d="m143.40895 331.47034l0 0c-0.32588196 -45.041077 20.633179 -86.83879 54.944336 -109.57298c34.311157 -22.734207 76.73195 -22.93129 111.206436 -0.51667786c34.474487 22.414597 55.73526 64.01614 55.73526 109.05875l-110.944885 0z" fill-rule="evenodd"/><path fill="#000000" d="m554.8791 167.41081l0 0c36.660583 40.602707 42.667908 102.93672 15.743469 163.3592c-26.924438 60.422485 -82.65646 109.67807 -146.05728 129.08447c-63.40085 19.406403 -124.75891 5.991028 -160.80157 -35.157806l146.1575 -127.968506z" fill-rule="evenodd"/><path stroke="#000000" stroke-width="1.0" stroke-linejoin="round" stroke-linecap="butt" d="m554.8791 167.41081l0 0c36.660583 40.602707 42.667908 102.93672 15.743469 163.3592c-26.924438 60.422485 -82.65646 109.67807 -146.05728 129.08447c-63.40085 19.406403 -124.75891 5.991028 -160.80157 -35.157806l146.1575 -127.968506z" fill-rule="evenodd"/><path fill="#000000" d="m188.72522 312.95554l0 0c0.13536072 14.475494 -7.5099792 27.916473 -20.04042 35.2323c-12.530426 7.3158264 -28.029922 7.387848 -40.62822 0.18878174c-12.5982895 -7.1990967 -20.368965 -20.56845 -20.368965 -35.044556l40.519676 0z" fill-rule="evenodd"/><path stroke="#000000" stroke-width="1.0" stroke-linejoin="round" stroke-linecap="butt" d="m188.72522 312.95554l0 0c0.13536072 14.475494 -7.5099792 27.916473 -20.04042 35.2323c-12.530426 7.3158264 -28.029922 7.387848 -40.62822 0.18878174c-12.5982895 -7.1990967 -20.368965 -20.56845 -20.368965 -35.044556l40.519676 0z" fill-rule="evenodd"/><path fill="#000000" d="m635.127 324.4841l0 0c0.19024658 17.24527 -9.692688 33.26477 -25.904053 41.988464c-16.211365 8.723724 -36.270874 8.816925 -52.577698 0.24429321c-16.306763 -8.572632 -26.365967 -24.499481 -26.365967 -41.745636l52.42517 0z" fill-rule="evenodd"/><path stroke="#000000" stroke-width="1.0" stroke-linejoin="round" stroke-linecap="butt" d="m635.127 324.4841l0 0c0.19024658 17.24527 -9.692688 33.26477 -25.904053 41.988464c-16.211365 8.723724 -36.270874 8.816925 -52.577698 0.24429321c-16.306763 -8.572632 -26.365967 -24.499481 -26.365967 -41.745636l52.42517 0z" fill-rule="evenodd"/><path fill="#ffffff" d="m204.60672 276.65747l0 0c0 -6.1403503 5.774475 -11.118103 12.897644 -11.118103l0 0c7.123169 0 12.897629 4.9777527 12.897629 11.118103l0 0c0 6.1403503 -5.77446 11.118103 -12.897629 11.118103l0 0c-7.123169 0 -12.897644 -4.9777527 -12.897644 -11.118103z" fill-rule="evenodd"/><path stroke="#000000" stroke-width="1.0" stroke-linejoin="round" stroke-linecap="butt" d="m204.60672 276.65747l0 0c0 -6.1403503 5.774475 -11.118103 12.897644 -11.118103l0 0c7.123169 0 12.897629 4.9777527 12.897629 11.118103l0 0c0 6.1403503 -5.77446 11.118103 -12.897629 11.118103l0 0c-7.123169 0 -12.897644 -4.9777527 -12.897644 -11.118103z" fill-rule="evenodd"/><path fill="#000000" fill-opacity="0.0" d="m49.7769 552.7848l644.5354 0l0 108.22046l-644.5354 0z" fill-rule="evenodd"/><path fill="#000000" d="m200.8732 589.39417q8.328125 0 12.796875 3.96875q4.46875 3.953125 4.46875 11.953125l0 20.46875l-9.734375 0l0 -4.46875q-2.9375 5.0 -10.9375 5.0q-4.125 0 -7.15625 -1.390625q-3.03125 -1.40625 -4.640625 -3.875q-1.59375 -2.46875 -1.59375 -5.59375q0 -5.0 3.765625 -7.859375q3.765625 -2.875 11.625 -2.875l8.265625 0q0 -3.40625 -2.0625 -5.234375q-2.0625 -1.828125 -6.203125 -1.828125q-2.859375 0 -5.625 0.90625q-2.765625 0.890625 -4.703125 2.421875l-3.734375 -7.265625q2.9375 -2.0625 7.03125 -3.1875q4.109375 -1.140625 8.4375 -1.140625zm-0.796875 29.921875q2.65625 0 4.71875 -1.234375q2.078125 -1.234375 2.9375 -3.625l0 -3.671875l-7.125 0q-6.40625 0 -6.40625 4.203125q0 2.0 1.5625 3.171875q1.578125 1.15625 4.3125 1.15625zm73.37698 -29.921875q6.734375 0 10.703125 3.96875q3.96875 3.953125 3.96875 11.890625l0 20.53125l-10.40625 0l0 -18.9375q0 -4.265625 -1.765625 -6.359375q-1.765625 -2.09375 -5.03125 -2.09375q-3.65625 0 -5.796875 2.375q-2.125 2.359375 -2.125 7.015625l0 18.0l-10.406265 0l0 -18.9375q0 -8.453125 -6.796875 -8.453125q-3.59375 0 -5.734375 2.375q-2.125 2.359375 -2.125 7.015625l0 18.0l-10.40625 0l0 -35.859375l9.9375 0l0 4.125q2.0 -2.265625 4.890625 -3.453125q2.90625 -1.203125 6.375 -1.203125q3.796875 0 6.859375 1.5q3.0625153 1.5 4.9375153 4.359375q2.203125 -2.796875 5.5625 -4.328125q3.359375 -1.53125 7.359375 -1.53125zm36.06314 36.921875q-4.46875 0 -8.734375 -1.09375q-4.265625 -1.109375 -6.796875 -2.765625l3.46875 -7.46875q2.40625 1.53125 5.796875 2.5q3.40625 0.96875 6.671875 0.96875q6.59375 0 6.59375 -3.265625q0 -1.53125 -1.796875 -2.203125q-1.796875 -0.671875 -5.53125 -1.140625q-4.40625 -0.65625 -7.265625 -1.515625q-2.859375 -0.875 -4.96875 -3.078125q-2.09375 -2.203125 -2.09375 -6.265625q0 -3.40625 1.953125 -6.03125q1.96875 -2.640625 5.734375 -4.09375q3.78125 -1.46875 8.90625 -1.46875q3.796875 0 7.5625 0.828125q3.765625 0.828125 6.234375 2.296875l-3.46875 7.40625q-4.734375 -2.671875 -10.328125 -2.671875q-3.328125 0 -5.0 0.9375q-1.671875 0.9375 -1.671875 2.390625q0 1.671875 1.796875 2.34375q1.8125 0.65625 5.734375 1.265625q4.40625 0.734375 7.203125 1.5625q2.796875 0.828125 4.859375 3.03125q2.078125 2.203125 2.078125 6.140625q0 3.328125 -2.0 5.9375q-2.0 2.59375 -5.84375 4.03125q-3.828125 1.421875 -9.09375 1.421875zm58.457 -18.328125q0 0.203125 -0.1875 2.796875l-27.140625 0q0.734375 3.328125 3.46875 5.265625q2.734375 1.9375 6.796875 1.9375q2.796875 0 4.96875 -0.828125q2.171875 -0.84375 4.03125 -2.640625l5.53125 6.0q-5.0625 5.796875 -14.796875 5.796875q-6.0625 0 -10.734375 -2.359375q-4.65625 -2.375 -7.1875 -6.5625q-2.53125 -4.203125 -2.53125 -9.546875q0 -5.265625 2.484375 -9.484375q2.5 -4.234375 6.859375 -6.59375q4.375 -2.375 9.78125 -2.375q5.265625 0 9.53125 2.265625q4.265625 2.265625 6.6875 6.5q2.4375 4.234375 2.4375 9.828125zm-18.59375 -10.734375q-3.53125 0 -5.9375 2.0q-2.390625 2.0 -2.921875 5.46875l17.65625 0q-0.53125 -3.40625 -2.9375 -5.4375q-2.390625 -2.03125 -5.859375 -2.03125zm25.52893 -20.921875l10.40625 0l0 49.453125l-10.40625 0l0 -49.453125zm24.001038 49.984375q-2.734375 0 -4.609375 -1.859375q-1.859375 -1.875 -1.859375 -4.671875q0 -2.859375 1.859375 -4.625q1.875 -1.765625 4.609375 -1.765625q2.734375 0 4.59375 1.765625q1.875 1.765625 1.875 4.625q0 2.796875 -1.875 4.671875q-1.859375 1.859375 -4.59375 1.859375zm36.384827 -2.265625q-1.53125 1.140625 -3.765625 1.703125q-2.21875 0.5625 -4.6875 0.5625q-6.40625 0 -9.90625 -3.265625q-3.5 -3.265625 -3.5 -9.59375l0 -14.734375l-5.53125 0l0 -8.0l5.53125 0l0 -8.734375l10.40625 0l0 8.734375l8.921875 0l0 8.0l-8.921875 0l0 14.59375q0 2.265625 1.15625 3.5q1.171875 1.234375 3.3125 1.234375q2.453125 0 4.1875 -1.328125l2.796875 7.328125zm39.862183 -16.0625q0 0.203125 -0.1875 2.796875l-27.140625 0q0.734375 3.328125 3.46875 5.265625q2.734375 1.9375 6.796875 1.9375q2.796875 0 4.96875 -0.828125q2.171875 -0.84375 4.03125 -2.640625l5.53125 6.0q-5.0625 5.796875 -14.796875 5.796875q-6.0625 0 -10.734375 -2.359375q-4.65625 -2.375 -7.1875 -6.5625q-2.53125 -4.203125 -2.53125 -9.546875q0 -5.265625 2.484375 -9.484375q2.5 -4.234375 6.859375 -6.59375q4.375 -2.375 9.78125 -2.375q5.265625 0 9.53125 2.265625q4.265625 2.265625 6.6875 6.5q2.4375 4.234375 2.4375 9.828125zm-18.59375 -10.734375q-3.53125 0 -5.9375 2.0q-2.390625 2.0 -2.921875 5.46875l17.65625 0q-0.53125 -3.40625 -2.9375 -5.4375q-2.390625 -2.03125 -5.859375 -2.03125zm42.856995 29.0625q-5.734375 0 -10.296875 -2.359375q-4.5625 -2.375 -7.125 -6.5625q-2.5625 -4.203125 -2.5625 -9.546875q0 -5.328125 2.5625 -9.515625q2.5625 -4.203125 7.125 -6.5625q4.5625 -2.375 10.296875 -2.375q5.671875 0 9.90625 2.375q4.234375 2.359375 6.15625 6.75l-8.0625 4.328125q-2.796875 -4.921875 -8.0625 -4.921875q-4.0625 0 -6.734375 2.671875q-2.65625 2.65625 -2.65625 7.25q0 4.609375 2.65625 7.28125q2.671875 2.65625 6.734375 2.65625q5.328125 0 8.0625 -4.9375l8.0625 4.40625q-1.921875 4.265625 -6.15625 6.671875q-4.234375 2.390625 -9.90625 2.390625zm43.59601 -36.921875q6.671875 0 10.765625 4.0q4.09375 4.0 4.09375 11.859375l0 20.53125l-10.390625 0l0 -18.9375q0 -4.265625 -1.875 -6.359375q-1.859375 -2.09375 -5.390625 -2.09375q-3.9375 0 -6.265625 2.4375q-2.328125 2.421875 -2.328125 7.21875l0 17.734375l-10.40625 0l0 -49.453125l10.40625 0l0 17.328125q2.0625 -2.0625 4.984375 -3.15625q2.9375 -1.109375 6.40625 -1.109375z" fill-rule="nonzero"/></g></svg>