<?xml version="1.0" encoding="UTF-8" standalone="no"?>
<!DOCTYPE svg PUBLIC "-//W3C//DTD SVG 1.1//EN" "http://www.w3.org/Graphics/SVG/1.1/DTD/svg11.dtd"
[
<!ATTLIST g
  xmlns:vectornator CDATA #FIXED "http://vectornator.io"
  vectornator:layerName CDATA #IMPLIED >
<!ATTLIST g
  xmlns:vectornator CDATA #FIXED "http://vectornator.io"
  vectornator:mask CDATA #IMPLIED >
<!ATTLIST text
  xmlns:vectornator CDATA #FIXED "http://vectornator.io"
  vectornator:width CDATA #IMPLIED >

<!ATTLIST path
  xmlns:vectornator CDATA #FIXED "http://vectornator.io"
  vectornator:blendMode CDATA #IMPLIED >
<!ATTLIST path
  xmlns:vectornator CDATA #FIXED "http://vectornator.io"
  vectornator:shadowColor CDATA #IMPLIED >
<!ATTLIST path
  xmlns:vectornator CDATA #FIXED "http://vectornator.io"
  vectornator:shadowOpacity CDATA #IMPLIED >
<!ATTLIST path
  xmlns:vectornator CDATA #FIXED "http://vectornator.io"
  vectornator:shadowRadius CDATA #IMPLIED >
<!ATTLIST path
  xmlns:vectornator CDATA #FIXED "http://vectornator.io"
  vectornator:shadowOffset CDATA #IMPLIED >
<!ATTLIST path
  xmlns:vectornator CDATA #FIXED "http://vectornator.io"
  vectornator:shadowAngle CDATA #IMPLIED >

<!ATTLIST image
  xmlns:vectornator CDATA #FIXED "http://vectornator.io"
  vectornator:blendMode CDATA #IMPLIED >
<!ATTLIST image
  xmlns:vectornator CDATA #FIXED "http://vectornator.io"
  vectornator:shadowColor CDATA #IMPLIED >
<!ATTLIST image
  xmlns:vectornator CDATA #FIXED "http://vectornator.io"
  vectornator:shadowOpacity CDATA #IMPLIED >
<!ATTLIST image
  xmlns:vectornator CDATA #FIXED "http://vectornator.io"
  vectornator:shadowRadius CDATA #IMPLIED >
<!ATTLIST image
  xmlns:vectornator CDATA #FIXED "http://vectornator.io"
  vectornator:shadowOffset CDATA #IMPLIED >
<!ATTLIST image
  xmlns:vectornator CDATA #FIXED "http://vectornator.io"
  vectornator:shadowAngle CDATA #IMPLIED >

<!ATTLIST g
  xmlns:vectornator CDATA #FIXED "http://vectornator.io"
  vectornator:blendMode CDATA #IMPLIED >
<!ATTLIST g
  xmlns:vectornator CDATA #FIXED "http://vectornator.io"
  vectornator:shadowColor CDATA #IMPLIED >
<!ATTLIST g
  xmlns:vectornator CDATA #FIXED "http://vectornator.io"
  vectornator:shadowOpacity CDATA #IMPLIED >
<!ATTLIST g
  xmlns:vectornator CDATA #FIXED "http://vectornator.io"
  vectornator:shadowRadius CDATA #IMPLIED >
<!ATTLIST g
  xmlns:vectornator CDATA #FIXED "http://vectornator.io"
  vectornator:shadowOffset CDATA #IMPLIED >
<!ATTLIST g
  xmlns:vectornator CDATA #FIXED "http://vectornator.io"
  vectornator:shadowAngle CDATA #IMPLIED >

<!ENTITY % SVG.filter.extra.content  "| feDropShadow" >
<!ELEMENT feDropShadow EMPTY>
<!ATTLIST feDropShadow
  xmlns:svg CDATA #FIXED "http://www.w3.org/Graphics/SVG/1.1/DTD/svg11.dtd"
  dx CDATA #IMPLIED>
<!ATTLIST feDropShadow
  xmlns:svg CDATA #FIXED "http://www.w3.org/Graphics/SVG/1.1/DTD/svg11.dtd"
  dy CDATA #IMPLIED>
<!ATTLIST feDropShadow
  xmlns:svg CDATA #FIXED "http://www.w3.org/Graphics/SVG/1.1/DTD/svg11.dtd"
  stdDeviation CDATA #IMPLIED>
<!ATTLIST feDropShadow
  xmlns:svg CDATA #FIXED "http://www.w3.org/Graphics/SVG/1.1/DTD/svg11.dtd"
  flood-opacity CDATA #IMPLIED>
<!ATTLIST feDropShadow
  xmlns:svg CDATA #FIXED "http://www.w3.org/Graphics/SVG/1.1/DTD/svg11.dtd"
  in CDATA #IMPLIED>
<!ATTLIST feDropShadow
  xmlns:svg CDATA #FIXED "http://www.w3.org/Graphics/SVG/1.1/DTD/svg11.dtd"
  result CDATA #IMPLIED>
<!ATTLIST feDropShadow
  xmlns:svg CDATA #FIXED "http://www.w3.org/Graphics/SVG/1.1/DTD/svg11.dtd"
  flood-color CDATA #IMPLIED>
]
>
<!-- Created with Vectornator (http://vectornator.io/) -->
<svg height="100%" stroke-miterlimit="10" style="fill-rule:nonzero;clip-rule:evenodd;stroke-linecap:round;stroke-linejoin:round;" version="1.1" viewBox="0 0 1024 1024" width="100%" xml:space="preserve" xmlns="http://www.w3.org/2000/svg" xmlns:vectornator="http://vectornator.io" xmlns:xlink="http://www.w3.org/1999/xlink">
<defs/>
<clipPath id="ArtboardFrame">
<rect height="1024" width="1024" x="0" y="0"/>
</clipPath>
<g clip-path="url(#ArtboardFrame)" id="Ebene-1" vectornator:layerName="Ebene 1">
<path d="M0 664.485C0 664.485 80.4183 458.287 158.303 353.278C236.188 248.268 261.967 379.832 330.528 432.94C399.088 486.048 419.448 292.464 542.257 290.296C665.065 288.128 663.93 407.883 706.24 434.75C748.551 461.617 774.696 328.083 835.815 383.512C896.934 438.94 997.371 642.204 997.371 642.204" fill="#000000" fill-opacity="0" fill-rule="evenodd" opacity="1" stroke="#020066" stroke-linecap="round" stroke-linejoin="miter" stroke-width="4.04525"/>
<path d="M175.219 333.57C175.219 333.57 152.321 407.982 107.628 488.772C62.9345 569.562 0.989682 662.239 0.989682 662.239L77.4865 491.962C77.4865 491.962 105.919 434.431 135.417 391.664C164.915 348.896 175.219 333.57 175.219 333.57Z" fill="#020066" fill-rule="evenodd" opacity="1" stroke="#020066" stroke-linecap="butt" stroke-linejoin="round" stroke-width="4.04525"/>
<path d="M788.982 375.262L742.028 445.224L703.452 498.898L715.902 440.977C715.902 440.977 721.592 445.008 737.509 431.236C753.425 417.465 788.982 375.262 788.982 375.262Z" fill="#020066" fill-rule="evenodd" opacity="1" stroke="#020066" stroke-linecap="butt" stroke-linejoin="miter" stroke-width="4.04525"/>
<path d="M471.584 326.039L476.305 227.79C476.508 223.567 477.996 217.116 479.629 213.382L499.062 168.934C500.695 165.2 502.944 165.412 504.086 169.408L516.615 213.271C517.756 217.267 518.643 223.936 518.594 228.166L518.385 246.595C518.336 250.826 521.114 254.225 524.588 254.188L625.108 253.109C628.582 253.071 631.301 256.469 631.181 260.697L629.375 324.142C629.255 328.37 626.341 331.831 622.867 331.873L477.507 333.611C474.033 333.653 471.381 330.262 471.584 326.039Z" fill="#020066" fill-rule="evenodd" opacity="1" stroke="#020066" stroke-linecap="butt" stroke-linejoin="round" stroke-width="0.747993"/>
<g opacity="1">
<path d="M75.609 408.732C85.0656 414.14 84.0805 425.341 89.1577 429.796C91.8127 432.126 96.7663 431.478 95.918 426.551C94.1398 416.223 89.478 404.374 81.1817 396.142C72.8854 387.91 66.3671 398.935 62.7327 393.623C60.8771 390.911 62.4487 388.031 63.4407 383.359C64.3917 378.88 64.6944 372.591 66.1945 370.629C67.6451 368.731 70.4112 370.921 73.6308 371.686C77.2137 372.537 88.2016 366.544 90.0958 363.154C93.2835 357.45 91.8336 354.746 88.1066 355.643C84.3796 356.54 83.7522 362.088 75.6166 362.485C67.481 362.881 62.7149 348.385 55.2009 356.356C47.687 364.327 47.1022 393.551 46.2921 397.974C45.7963 400.681 47.1757 410.513 50.0188 411.557C57.348 414.246 66.1525 403.324 75.609 408.732Z" fill="#020066" fill-rule="evenodd" opacity="1" stroke="#020066" stroke-linecap="butt" stroke-linejoin="miter" stroke-width="0.747993"/>
<g opacity="1">
<path d="M93.1504 385.454C93.1504 369.674 105.049 356.882 119.727 356.882C134.405 356.882 146.304 369.674 146.304 385.454C146.304 401.234 134.405 414.026 119.727 414.026C105.049 414.026 93.1504 401.234 93.1504 385.454Z" fill="#020066" fill-rule="evenodd" opacity="1" stroke="#020066" stroke-linecap="butt" stroke-linejoin="miter" stroke-width="0.747993"/>
<path d="M37.521 453.556C37.521 437.776 49.4199 424.984 64.0979 424.984C78.776 424.984 90.6749 437.776 90.6749 453.556C90.6749 469.335 78.776 482.127 64.0979 482.127C49.4199 482.127 37.521 469.335 37.521 453.556Z" fill="#020066" fill-rule="evenodd" opacity="1" stroke="#020066" stroke-linecap="butt" stroke-linejoin="miter" stroke-width="0.747993"/>
<path d="M49.0878 334.439C49.0878 326.465 55.1376 320.001 62.6004 320.001C70.0631 320.001 76.1129 326.465 76.1129 334.439C76.1129 342.412 70.0631 348.877 62.6004 348.877C55.1376 348.877 49.0878 342.412 49.0878 334.439Z" fill="#020066" fill-rule="evenodd" opacity="1" stroke="#020066" stroke-linecap="butt" stroke-linejoin="miter" stroke-width="0.747993"/>
</g>
</g>
<g opacity="1">
<path d="M315.023 302.493C316.545 305.686 325.6 318.343 326.263 328.03C326.799 335.867 327.542 341.895 325.969 348.144C325.143 351.423 318.899 350.224 320.106 341.906C321.383 333.102 315.215 320.853 314.672 320.859C312.869 320.879 316.032 332.372 309.219 343.809C306.362 348.605 304.261 355.308 305.31 361.51C306.764 370.097 306.119 379.926 305.854 385.352C305.634 389.859 298.815 401.16 296.968 396.517C295.609 393.101 299.506 377.527 298.477 367.754C297.701 360.383 300.084 351.237 299.241 350.556C294.921 347.066 286.513 351.807 281.36 356.913C277.502 360.735 276.799 363.268 275.172 363.803C271.475 365.018 268.482 362.029 271.402 356.15C273.79 351.342 277.597 347.812 283.608 344.138C289.619 340.463 294.128 342.357 298.3 338.214C299.834 336.69 299.824 325.076 300.4 319.305C300.986 313.443 302.134 313.43 300.831 312.729C296.886 310.608 286.572 302.893 286.494 298.795C286.455 296.711 289.757 296.742 293.591 298.074C297.296 299.361 303.036 303.65 305.167 304.631C309.564 306.654 313.967 300.278 315.023 302.493Z" fill="#020066" fill-rule="evenodd" opacity="1" stroke="#020066" stroke-linecap="butt" stroke-linejoin="miter" stroke-width="0.747993"/>
<path d="M325.683 285.609C326.201 278.291 321.151 271.834 314.404 271.187C307.657 270.54 301.768 275.949 301.25 283.267C300.733 290.586 305.783 297.043 312.53 297.689C319.277 298.336 325.166 292.928 325.683 285.609Z" fill="#020066" fill-rule="evenodd" opacity="1" stroke="#020066" stroke-linecap="butt" stroke-linejoin="miter" stroke-width="0.747993"/>
</g>
<g opacity="1">
<path d="M81.8063 720.508C81.8063 646.801 309.156 587.05 589.607 587.05C755.023 587.05 901.966 607.837 994.681 640.014C1059.16 662.39 1097.41 690.275 1097.41 720.508C1097.41 768.928 999.294 811.325 852.468 834.717C775.788 846.933 685.822 853.966 589.607 853.966C309.156 853.966 81.8063 794.215 81.8063 720.508Z" fill="#ffffff" fill-opacity="0.0151515" fill-rule="evenodd" opacity="1" stroke="#ffffff" stroke-linecap="butt" stroke-linejoin="miter" stroke-opacity="0.0151515" stroke-width="2.44006"/>
<path d="M151.405 717.413C151.405 700.643 185.714 699.387 216.246 685.432C246.779 671.478 249.457 682.878 273.535 661.596C282.512 653.661 319.236 655.877 356.821 649.412C372.029 646.796 377.281 632.859 410.739 627.165C444.198 621.47 473.242 633.883 490.655 626.635C508.067 619.387 550.711 621.135 583.746 621.135C599.415 621.135 625.598 628.759 640.836 629.121C660.032 629.577 685.551 619.498 703.76 620.388C730.191 621.681 767.297 634.697 791.06 637.229C817.395 640.036 840.394 630.298 871.557 635.358C902.721 640.419 900.574 653.202 915.714 657.471C979.247 675.383 1016.09 691.704 1016.09 717.413C1016.09 736.909 979.787 738.736 935.055 753.897C899.642 765.899 862.782 792.347 807.546 799.804C742.261 808.617 736.138 778.499 654.22 778.499C631.93 778.499 598.099 794.77 575.604 794.601C542.167 794.351 501.568 776.941 469.421 775.503C428.937 773.694 385.329 780.805 349.965 778.499C318.041 776.418 291.668 757.205 266.314 753.235C196.328 742.277 151.405 740.565 151.405 717.413Z" fill="#020066" fill-rule="evenodd" opacity="1" stroke="#020066" stroke-linecap="butt" stroke-linejoin="miter" stroke-width="2.44006"/>
<path d="M841.716 797.946C841.716 797.946 851.515 761.899 845.079 747.614C838.642 733.33 823.999 749.755 815.97 740.808C807.94 731.861 824.113 718.328 812.96 711.828C801.005 704.86 829.799 682.211 834.01 691.774C838.222 701.337 850.222 676.054 860.14 683.117C872.86 692.177 878.872 697.7 884.034 695.297C897.443 689.056 897.787 734.555 889.06 728.532C882.363 723.909 884.006 754.355 872.431 743.715C868.771 740.351 865.412 741.948 862.541 748.332C855.105 764.866 859.317 794.669 859.317 794.669L841.716 797.946Z" fill="#ffffff" fill-rule="evenodd" opacity="1" stroke="#ffffff" stroke-linecap="butt" stroke-linejoin="miter" stroke-width="2.44006"/>
<path d="M743.521 808.491C743.521 808.491 753.71 773.89 747.018 760.179C740.326 746.468 725.101 762.234 716.752 753.646C708.404 745.059 725.219 732.068 713.623 725.829C701.193 719.141 731.131 697.402 735.51 706.581C739.889 715.76 752.365 691.492 762.677 698.271C775.903 706.967 782.154 712.269 787.521 709.962C801.462 703.972 801.82 747.644 792.746 741.863C785.784 737.426 787.492 766.65 775.456 756.436C771.651 753.207 768.159 754.74 765.174 760.868C757.443 776.738 761.822 805.345 761.822 805.345L743.521 808.491Z" fill="#ffffff" fill-rule="evenodd" opacity="1" stroke="#ffffff" stroke-linecap="butt" stroke-linejoin="miter" stroke-width="2.44006"/>
<path d="M929.843 761.685C929.843 761.685 938.765 732.881 932.905 721.467C927.044 710.053 913.711 723.177 906.4 716.028C899.088 708.88 913.815 698.065 903.659 692.871C892.773 687.304 918.991 669.206 922.826 676.847C926.661 684.489 937.588 664.286 946.618 669.93C958.201 677.169 963.675 681.583 968.375 679.663C980.584 674.676 980.897 711.032 972.952 706.219C966.854 702.525 968.35 726.853 957.81 718.351C954.477 715.663 951.419 716.939 948.805 722.04C942.034 735.252 945.87 759.066 945.87 759.066L929.843 761.685Z" fill="#ffffff" fill-rule="evenodd" opacity="1" stroke="#ffffff" stroke-linecap="butt" stroke-linejoin="miter" stroke-width="2.44006"/>
<path d="M441.654 686.03C446.263 680.684 457.898 690.035 468.224 695.977C481.543 703.641 494.102 681.815 494.102 681.815C494.102 681.815 484.855 666.272 486.093 658.141C486.849 653.17 502.59 649.16 506.835 647.581C511.097 645.996 513.782 648.465 510.551 652.943C507.32 657.421 495.694 654.815 494.373 662.339C493.053 669.863 520.453 698.126 520.453 698.126C520.453 698.126 493.317 706.359 477.596 705.754C471.384 705.515 465.746 706.048 457.07 700.201C447.466 693.728 438.867 689.264 441.654 686.03Z" fill="#ffffff" fill-rule="evenodd" opacity="1" stroke="#ffffff" stroke-linecap="butt" stroke-linejoin="round" stroke-width="2.44006"/>
<path d="M522.078 683.334C522.078 677.157 526.39 672.15 531.71 672.15C537.029 672.15 541.342 677.157 541.342 683.334C541.342 689.511 537.029 694.519 531.71 694.519C526.39 694.519 522.078 689.511 522.078 683.334Z" fill="#ffffff" fill-rule="evenodd" opacity="1" stroke="#ffffff" stroke-linecap="butt" stroke-linejoin="miter" stroke-width="2.44006"/>
</g>
<path d="M322.54 289.784C322.879 288.698 329.384 290.379 332.309 294.269C334.105 296.657 332.956 301.936 334.929 303.854C340.117 308.896 346.293 306.632 341.844 308.692C340.51 309.186 331.922 309.237 329.593 305.831C328.497 304.228 329.479 299.385 327.993 296.201C326.32 292.617 322.249 290.712 322.54 289.784Z" fill="#020066" fill-rule="evenodd" opacity="1" stroke="#62ff5f" stroke-linecap="butt" stroke-linejoin="miter" stroke-opacity="0" stroke-width="2.44006"/>
<path d="M476.062 315.24C482.603 304.648 465.991 329.935 465.991 329.935L300.567 565.116C300.567 565.116 321.794 517.474 348.799 473.923C368.67 441.875 394.385 412.985 403.229 402.112C422.006 379.029 436.63 355.212 442.683 348.191C468.335 318.429 472.042 321.749 476.062 315.24Z" fill="#020066" fill-rule="evenodd" opacity="1" stroke="#020066" stroke-linecap="butt" stroke-linejoin="miter" stroke-width="4.04525"/>
</g>
</svg>
