<svg version="1.1" viewBox="0.0 0.0 752.6876640419947 174.23884514435696" fill="none" stroke="none" stroke-linecap="square" stroke-miterlimit="10" xmlns:xlink="http://www.w3.org/1999/xlink" xmlns="http://www.w3.org/2000/svg"><clipPath id="p.0"><path d="m0 0l752.6877 0l0 174.23885l-752.6877 0l0 -174.23885z" clip-rule="nonzero"/></clipPath><g clip-path="url(#p.0)"><path fill="#000000" fill-opacity="0.0" d="m0 0l752.6877 0l0 174.23885l-752.6877 0z" fill-rule="evenodd"/><path fill="#000000" fill-opacity="0.0" d="m-7.3228345 0.8057743l747.7165 0l0 172.62993l-747.7165 0z" fill-rule="evenodd"/><path fill="#ffffff" d="m23.567791 47.43452l-21.5 0l0 -12.671875l58.546875 0l0 12.671875l-21.5 0l0 54.531246l-15.546875 0l0 -54.531246zm89.65735 28.906246q0 0.28125 -0.28125 4.03125l-39.078125 0q1.0625 4.796875 5.0 7.578125q3.9375 2.78125 9.78125 2.78125q4.03125 0 7.15625 -1.1875q3.125 -1.203125 5.8125 -3.796875l7.96875 8.640625q-7.296875 8.34375 -21.3125 8.34375q-8.734375 0 -15.453125 -3.40625q-6.71875 -3.40625 -10.374996 -9.453125q-3.640625 -6.046875 -3.640625 -13.734375q0 -7.578125 3.59375 -13.671871q3.5937462 -6.09375 9.874996 -9.5q6.296875 -3.421875 14.078125 -3.421875q7.578125 0 13.71875 3.265625q6.15625 3.265625 9.65625 9.359375q3.5 6.093746 3.5 14.171871zm-26.78125 -15.468746q-5.09375 0 -8.546875 2.890625q-3.453125 2.8749962 -4.21875 7.859371l25.4375 0q-0.765625 -4.890625 -4.21875 -7.812496q-3.453125 -2.9375 -8.453125 -2.9375zm61.73223 41.85937q-8.265625 0 -14.84375 -3.40625q-6.5625076 -3.40625 -10.265633 -9.453125q-3.6875 -6.046875 -3.6875 -13.734375q0 -7.671875 3.6875 -13.718746q3.703125 -6.046875 10.265633 -9.453125q6.578125 -3.421875 14.84375 -3.421875q8.15625 0 14.25 3.421875q6.09375 3.40625 8.890625 9.734375l-11.625 6.234371q-4.03125 -7.093746 -11.609375 -7.093746q-5.859375 0 -9.703125 3.8437462q-3.84375 3.828125 -3.84375 10.453125q0 6.625 3.84375 10.46875q3.84375 3.84375 9.703125 3.84375q7.671875 0 11.609375 -7.109375l11.625 6.34375q-2.796875 6.140625 -8.890625 9.59375q-6.09375 3.453125 -14.25 3.453125zm53.570724 -21.015625l-7.203125 7.09375l0 13.15625l-14.984375 0l0 -71.234375l14.984375 0l0 40.32812l21.890625 -20.734371l17.84375 0l-21.5 21.874996l23.421875 29.765625l-18.140625 0l-16.3125 -20.25zm83.324814 -34.281246l-21.5 0l0 -12.671875l58.546875 0l0 12.671875l-21.5 0l0 54.531246l-15.546875 0l0 -54.531246zm57.50412 9.703125q2.6875 -3.75 7.25 -5.671875q4.5625 -1.921875 10.5 -1.921875l0 13.828125q-2.484375 -0.1875 -3.359375 -0.1875q-6.421875 0 -10.078125 3.6093712q-3.640625 3.59375 -3.640625 10.78125l0 24.390625l-14.984375 0l0 -51.64062l14.3125 0l0 6.8125zm26.679474 -6.8125l14.984375 0l0 51.64062l-14.984375 0l0 -51.64062zm7.5 -7.203125q-4.125 0 -6.71875 -2.390625q-2.59375 -2.40625 -2.59375 -5.96875q0 -3.546875 2.59375 -5.9375q2.59375 -2.40625 6.71875 -2.40625q4.125 0 6.71875 2.3125q2.59375 2.296875 2.59375 5.75q0 3.734375 -2.59375 6.1875q-2.59375 2.453125 -6.71875 2.453125zm42.239716 6.421875q12.0 0 18.421875 5.71875q6.4375 5.71875 6.4375 17.234371l0 29.46875l-14.015625 0l0 -6.4375q-4.21875 7.203125 -15.75 7.203125q-5.953125 0 -10.328125 -2.015625q-4.359375 -2.015625 -6.671875 -5.5625q-2.296875 -3.5625 -2.296875 -8.0625q0 -7.203125 5.421875 -11.328125q5.4375 -4.140625 16.765625 -4.140625l11.890625 0q0 -4.890625 -2.96875 -7.53125q-2.96875 -2.6406212 -8.921875 -2.6406212q-4.140625 0 -8.125 1.296875q-3.984375 1.2968712 -6.765625 3.4999962l-5.375 -10.453121q4.234375 -2.984375 10.125 -4.609375q5.90625 -1.640625 12.15625 -1.640625zm-1.15625 43.10937q3.84375 0 6.8125 -1.765625q2.984375 -1.78125 4.21875 -5.234375l0 -5.28125l-10.265625 0q-9.21875 0 -9.21875 6.046875q0 2.875 2.25 4.5625q2.265625 1.671875 6.203125 1.671875zm72.856995 6.8125q-2.203125 1.640625 -5.421875 2.453125q-3.21875 0.8125 -6.765625 0.8125q-9.21875 0 -14.265625 -4.703125q-5.03125 -4.703125 -5.03125 -13.828125l0 -21.203121l-7.96875 0l0 -11.53125l7.96875 0l0 -12.578125l14.984375 0l0 12.578125l12.859375 0l0 11.53125l-12.859375 0l0 21.015621q0 3.265625 1.671875 5.046875q1.6875 1.765625 4.75 1.765625q3.5625 0 6.046875 -1.921875l4.03125 10.5625zm39.838165 -49.92187q9.609375 0 15.515625 5.765625q5.90625 5.765625 5.90625 17.093746l0 29.5625l-14.984375 0l0 -27.265625q0 -6.140625 -2.6875 -9.15625q-2.6875 -3.0312462 -7.78125 -3.0312462q-5.65625 0 -9.015625 3.4999962q-3.359375 3.5 -3.359375 10.421875l0 25.53125l-14.984436 0l0 -71.234375l14.984436 0l0 24.96875q2.96875 -2.984375 7.1875 -4.5625q4.234375 -1.59375 9.21875 -1.59375zm34.945312 -18.8125l14.984375 0l0 71.234375l-14.984375 0l0 -71.234375zm53.47412 72.0q-8.15625 0 -14.640625 -3.40625q-6.46875 -3.40625 -10.125 -9.453125q-3.640625 -6.046875 -3.640625 -13.734375q0 -7.671875 3.640625 -13.718746q3.65625 -6.046875 10.125 -9.453125q6.484375 -3.421875 14.640625 -3.421875q8.15625 0 14.59375 3.421875q6.4375 3.40625 10.078125 9.453125q3.65625 6.046871 3.65625 13.718746q0 7.6875 -3.65625 13.734375q-3.640625 6.046875 -10.078125 9.453125q-6.4375 3.40625 -14.59375 3.40625zm0 -12.28125q5.765625 0 9.453125 -3.890625q3.703125 -3.890625 3.703125 -10.421875q0 -6.53125 -3.703125 -10.40625q-3.6875 -3.8906212 -9.453125 -3.8906212q-5.75 0 -9.5 3.8906212q-3.75 3.875 -3.75 10.40625q0 6.53125 3.75 10.421875q3.75 3.890625 9.5 3.890625zm69.692505 -40.906246q9.609375 0 15.515625 5.765625q5.90625 5.765625 5.90625 17.093746l0 29.5625l-14.984375 0l0 -27.265625q0 -6.140625 -2.6875 -9.15625q-2.6875 -3.0312462 -7.78125 -3.0312462q-5.65625 0 -9.015625 3.4999962q-3.359375 3.5 -3.359375 10.421875l0 25.53125l-14.984375 0l0 -51.64062l14.3125 0l0 6.046875q2.96875 -3.265625 7.390625 -5.046875q4.421875 -1.78125 9.6875 -1.78125z" fill-rule="nonzero"/></g></svg>