<?xml version="1.0" standalone="no"?>
<!DOCTYPE svg PUBLIC "-//W3C//DTD SVG 20010904//EN"
 "http://www.w3.org/TR/2001/REC-SVG-20010904/DTD/svg10.dtd">
<svg version="1.0" xmlns="http://www.w3.org/2000/svg"
 width="1652.000000pt" height="2241.000000pt" viewBox="0 0 1652.000000 2241.000000"
 preserveAspectRatio="xMidYMid meet">

<g transform="translate(0.000000,2241.000000) scale(0.100000,-0.100000)"
fill="#000000" stroke="none">
<path d="M840 15336 c0 -4296 3 -6377 10 -6447 75 -747 429 -1619 1011 -2491
369 -553 755 -1028 1315 -1618 194 -205 609 -610 832 -813 40 -37 612 -511
1270 -1054 658 -543 1608 -1326 2110 -1741 l912 -753 168 138 c92 75 696 574
1342 1107 646 533 1519 1254 1939 1600 421 347 821 683 890 746 890 815 1626
1657 2143 2450 546 837 881 1664 963 2375 13 114 15 906 15 6487 l0 6358
-7460 0 -7460 0 0 -6344z m14444 5873 c11 -10 7 -12260 -3 -12340 -59 -462
-217 -933 -495 -1474 -349 -680 -827 -1343 -1510 -2095 -155 -171 -795 -813
-845 -850 l-29 -20 -37 66 c-98 175 -346 450 -530 587 l-90 67 -351 0 -351 0
-52 62 c-168 201 -443 350 -748 406 l-93 17 0 1242 c0 791 4 1243 10 1243 5 0
39 27 75 61 170 159 180 366 28 556 l-33 41 155 147 155 147 0 208 c0 114 -3
228 -6 252 l-6 46 -484 418 c-267 231 -488 420 -493 422 -6 2 -832 -727 -923
-817 l-28 -26 10 -270 10 -270 125 -125 c69 -69 125 -129 125 -133 0 -4 -13
-26 -30 -48 -60 -84 -89 -204 -70 -298 17 -90 54 -156 130 -233 l70 -73 -2
-414 -3 -414 -213 194 c-118 107 -218 194 -223 194 -6 0 -279 -249 -608 -554
l-598 -554 -6 -495 c-3 -272 -8 -496 -10 -499 -3 -2 -59 7 -125 21 -406 86
-648 71 -791 -50 -18 -15 -50 -50 -71 -78 -39 -54 -177 -178 -320 -288 l-85
-65 -117 5 c-199 8 -401 -38 -617 -139 -191 -90 -366 -225 -439 -338 -38 -59
-208 -255 -299 -343 l-58 -57 -185 172 c-783 726 -1457 1496 -1935 2212 -573
857 -915 1698 -953 2345 -4 69 -6 2849 -4 6177 l2 6053 958 3 c1772 5 13011 2
13016 -4z m-5363 -11444 l358 -310 1 -136 0 -136 -219 -218 -220 -218 59 -36
c136 -83 210 -170 210 -248 0 -56 -46 -108 -127 -147 -32 -15 -65 -30 -73 -35
-13 -7 -15 -178 -15 -1442 l0 -1434 110 -11 c262 -28 463 -91 625 -199 85 -56
197 -175 236 -249 l29 -56 387 0 387 0 90 -75 c174 -146 343 -354 422 -518
l23 -47 -24 -24 c-29 -28 -3748 -3097 -3828 -3158 -36 -28 -56 -38 -65 -31 -6
5 -841 695 -1855 1532 l-1842 1523 94 99 c119 123 216 237 261 305 57 86 180
182 330 257 64 32 224 86 300 102 95 19 247 22 333 5 l61 -12 103 75 c151 110
350 279 405 344 83 97 99 111 139 122 56 16 219 13 343 -5 187 -27 474 -101
565 -145 22 -10 41 -19 43 -19 2 0 3 278 3 619 l0 618 477 442 c262 242 480
441 484 441 4 0 160 -139 347 -309 187 -170 343 -307 346 -304 3 4 6 353 6
777 l-1 771 -61 35 c-33 19 -78 54 -99 78 -69 79 -65 146 14 229 28 29 78 70
111 90 34 20 63 38 66 40 2 2 -84 92 -192 201 l-196 197 -6 160 -7 161 343
307 c189 169 347 305 352 304 5 -2 170 -142 367 -312z"/>
<path d="M4099 20770 c-47 -25 -106 -92 -132 -149 -27 -60 -28 -174 -2 -251
28 -86 59 -143 173 -315 160 -242 222 -371 222 -460 0 -68 -55 -149 -173 -258
-275 -252 -317 -304 -317 -395 0 -89 78 -163 180 -170 77 -6 128 8 259 67 111
51 267 103 361 121 72 14 347 14 491 0 162 -16 274 -42 514 -120 262 -85 379
-110 560 -117 208 -8 388 15 875 113 379 76 666 158 700 199 7 8 35 22 62 30
67 20 122 7 213 -50 206 -127 475 -190 722 -167 65 6 132 8 148 6 70 -12 132
-27 162 -41 l33 -15 -6 -217 c-4 -139 -3 -225 4 -242 16 -39 155 -98 557 -235
94 -31 171 -58 172 -59 4 -2 -35 -774 -42 -860 -20 -220 -120 -605 -232 -890
-239 -609 -592 -1041 -1043 -1278 -206 -108 -379 -159 -690 -202 -539 -76
-1078 -187 -1500 -309 -872 -253 -1353 -563 -1421 -914 -26 -135 6 -222 130
-354 77 -83 84 -108 70 -263 -25 -284 -138 -778 -264 -1152 -88 -261 -120
-327 -206 -424 -284 -320 -513 -640 -579 -808 -44 -112 -65 -320 -80 -791 -6
-184 -12 -373 -13 -420 -2 -76 -9 -100 -56 -220 -121 -306 -263 -559 -382
-683 -60 -62 -71 -69 -179 -110 l-115 -43 -5 -164 -5 -164 -94 -25 -94 -26 6
-120 c16 -333 151 -531 338 -500 59 10 249 78 309 111 254 138 529 514 734
1003 78 185 164 439 252 746 40 143 107 370 148 505 l73 245 49 19 c879 351
1636 842 2128 1381 220 241 451 563 471 656 25 115 121 211 260 259 121 42
208 50 595 60 206 5 429 14 495 20 382 35 713 110 1020 232 216 86 390 187
1083 627 l691 439 546 276 c300 152 549 276 552 276 3 0 3 -282 -1 -627 l-7
-628 -205 -378 c-113 -208 -212 -397 -220 -420 -62 -176 -18 -372 116 -511
l60 -63 0 -305 0 -305 62 -89 c34 -49 103 -130 153 -181 169 -172 243 -174
403 -15 167 168 266 467 337 1022 15 113 43 212 310 1070 162 520 301 974 309
1010 53 232 41 521 -30 735 -88 267 -265 494 -490 627 -418 248 -955 496
-1231 568 l-43 11 0 57 c0 133 -40 507 -80 747 -81 487 -206 866 -356 1078
l-34 47 0 155 c0 152 0 155 23 159 406 87 631 155 801 244 39 20 94 60 123 88
48 48 51 54 60 120 13 107 10 360 -6 439 -30 153 -112 309 -194 367 l-32 23
-605 1 c-333 0 -634 4 -670 8 -240 28 -511 81 -660 128 -113 36 -168 63 -275
133 -518 339 -1023 610 -1260 676 -132 36 -190 23 -214 -50 -12 -37 -46 -262
-56 -377 l-7 -70 -108 -20 -109 -20 -289 241 c-213 177 -309 265 -364 331
-103 122 -273 285 -348 333 -172 112 -282 106 -369 -19 -60 -86 -74 -129 -74
-240 -1 -114 24 -222 89 -387 24 -61 44 -116 44 -122 0 -14 -148 -84 -243
-115 -138 -45 -270 -52 -337 -17 -89 47 -169 145 -335 411 -175 281 -211 324
-315 373 -90 43 -183 45 -251 5 -98 -58 -138 -164 -144 -387 -7 -234 -26 -256
-220 -256 -94 0 -123 4 -199 29 -96 32 -178 86 -243 161 -142 162 -408 447
-499 535 -133 128 -226 200 -320 245 -80 39 -122 43 -175 15z"/>
<path d="M2170 17371 c0 -118 3 -160 13 -163 6 -2 131 -4 277 -4 l265 1 5
-785 5 -785 192 -3 193 -2 2 787 3 788 275 0 275 0 3 163 2 162 -755 0 -755 0
0 -159z"/>
<path d="M3780 17524 c0 -8 647 -1816 666 -1862 l13 -32 203 2 203 3 47 130
c101 278 621 1731 625 1748 5 16 -9 17 -199 17 l-204 0 -230 -694 c-126 -382
-232 -692 -235 -688 -3 4 -111 316 -240 694 l-234 688 -207 0 c-115 0 -208 -3
-208 -6z"/>
<path d="M5680 16580 l0 -951 403 2 c523 3 736 12 807 34 217 68 361 250 377
480 14 206 -83 375 -268 463 l-81 39 33 13 c51 21 142 118 176 187 86 173 57
370 -74 513 -65 71 -138 114 -238 142 -77 21 -102 22 -607 26 l-528 4 0 -952z
m1013 601 c67 -33 100 -85 105 -166 8 -116 -56 -200 -169 -224 -28 -6 -161
-11 -304 -11 l-255 0 0 216 0 216 288 -4 c278 -3 288 -4 335 -27z m-102 -732
c114 -11 169 -31 212 -75 43 -42 59 -81 65 -150 9 -112 -39 -199 -133 -241
-35 -16 -77 -18 -352 -21 l-313 -3 0 250 0 251 209 0 c115 0 255 -5 312 -11z"/>
</g>
</svg>
